<?xml version="1.0" encoding="UTF-8"?>
<!DOCTYPE svg PUBLIC "-//W3C//DTD SVG 1.1//EN" "http://www.w3.org/Graphics/SVG/1.1/DTD/svg11.dtd">
<!-- Creator: CorelDRAW X7 -->
<svg xmlns="http://www.w3.org/2000/svg" xml:space="preserve" width="350px" height="600px" version="1.1" style="shape-rendering:geometricPrecision; text-rendering:geometricPrecision; image-rendering:optimizeQuality; fill-rule:evenodd; clip-rule:evenodd"
viewBox="0 0 350 600"
 xmlns:xlink="http://www.w3.org/1999/xlink"
 xmlns:dc="http://purl.org/dc/elements/1.1/"
 xmlns:cc="http://creativecommons.org/ns#"
 xmlns:rdf="http://www.w3.org/1999/02/22-rdf-syntax-ns#"
 xmlns:svg="http://www.w3.org/2000/svg"
 xmlns:sodipodi="http://sodipodi.sourceforge.net/DTD/sodipodi-0.dtd"
 xmlns:inkscape="http://www.inkscape.org/namespaces/inkscape"
 enable-background="new 0 0 90 90">
 <defs>
  <style type="text/css">
   <![CDATA[
    .str0 {stroke:#373435;stroke-width:2.36222}
    .fil0 {fill:#373435}
    .fil1 {fill:black}
   ]]>
  </style>
 </defs>
 <g id="Layer_x0020_1">
  <metadata id="CorelCorpID_0Corel-Layer"/>
  <rect class="fil0 str0" x="171" y="328" width="22.3658" height="131.905"/>
  <rect class="fil0 str0" x="171" y="163" width="22.3658" height="116.314"/>
  <g id="_900936382160">
   <g>
    <path class="fil1" d="M245 39l-94 0 0 0 0 -14c0,-7 -7,-13 -14,-13l-44 0c-7,0 -12,6 -12,13l0 118c0,3 1,7 4,9 1,1 2,1 4,2 1,0 3,0 4,0l44 0c2,0 3,0 5,0 1,-1 3,-1 4,-2 3,-3 5,-6 5,-9l0 -7 26 0 1 0 0 11 -17 0c-3,0 -6,2 -6,4l0 9c0,2 3,3 6,3l53 0c2,0 4,-1 4,-3l0 -9c0,-2 -2,-4 -4,-4l-16 0 0 -11 47 0c7,0 14,-6 14,-13l0 -72c0,-7 -7,-12 -14,-12zm-99 102c0,2 0,3 0,4 -1,3 -4,5 -8,5l0 0 -44 0 0 0c-3,0 -6,-2 -8,-5 0,-1 0,-2 0,-4l0 -116c0,-1 0,-2 0,-3 2,-3 5,-5 8,-5l0 0 44 0 0 0c4,0 7,2 8,5 0,1 0,2 0,3l0 116zm5 -35l0 -51 91 0c0,0 1,0 1,0l0 50c0,1 -1,2 -1,2l-91 0 0 -1zm63 46l0 7 -54 0 0 -7 17 0c2,0 5,-2 5,-5l0 -11 11 0 1 0 0 11c0,3 1,5 4,5l16 0zm40 -29c0,5 -4,9 -9,9l-94 0 0 -1 0 -20 91 0c3,0 6,-3 6,-6l0 -50c0,-3 -3,-4 -6,-4l-91 0 0 -1 0 -6 94 0c5,0 9,3 9,7l0 72z"/>
    <circle class="fil1" cx="187" cy="122" r="4"/>
    <path class="fil1" d="M142 152l0 7 -54 0 0 -7c0,0 -3,-1 -4,-2 0,0 -1,1 -1,1l0 9c0,2 3,3 6,3l53 0c2,0 4,-1 4,-3l0 -9c0,0 0,-1 0,-1 -1,1 -2,2 -4,2z"/>
    <circle class="fil1" cx="115" cy="134" r="4"/>
    <path class="fil1" d="M136 35c0,0 0,0 0,0l-39 0c-1,0 -1,0 -1,0 -2,0 -4,2 -4,4l0 0 0 10 0 0c0,2 2,3 4,4 0,0 0,0 1,0l39 0c0,0 0,0 0,0 2,-1 4,-2 4,-4l0 0 0 -10 0 0c0,-2 -2,-4 -4,-4zm-1 13l-38 0 0 -9 38 0 0 9z"/>
    <polygon class="fil1" points="97,91 97,93 133,93 133,91 133,89 97,89 "/>
    <polygon class="fil1" points="97,99 97,102 133,102 133,99 133,98 97,98 "/>
    <polygon class="fil1" points="97,107 97,109 133,109 133,107 133,105 97,105 "/>
    <polygon class="fil1" points="97,116 97,118 133,118 133,116 133,114 97,114 "/>
   </g>
  </g>
  <g id="_900936383760">
   <path class="fil1" d="M190 420l-60 40 49 0 56 -40 -45 0zm49 0l-58 41 0 122 60 -51 0 -112 -2 0zm-5 14c0,1 0,1 0,1 0,1 -1,2 -1,2 -1,1 -2,1 -2,0 0,-1 1,-2 2,-2 0,0 0,-1 1,-1zm-4 3c0,0 0,1 0,1 0,1 -1,2 -1,2 -1,1 -2,1 -2,0 0,-1 1,-2 2,-2 0,-1 0,-1 1,-1zm4 1c0,1 0,1 0,1 0,1 -1,2 -1,2 -1,1 -2,1 -2,0 0,-1 1,-2 2,-2 0,0 0,-1 1,-1zm-8 2c0,0 0,1 0,1 0,1 -1,2 -1,2 -1,1 -2,1 -2,0 0,-1 1,-2 2,-2 0,-1 0,-1 1,-1zm4 1c0,0 0,1 0,1 0,1 -1,2 -1,2 -1,1 -2,1 -2,0 0,-1 1,-2 2,-2 0,-1 0,-1 1,-1zm3 1c1,0 1,1 1,1 0,1 -1,2 -1,2 -1,1 -2,1 -2,0 0,-1 1,-2 2,-2 0,0 0,0 0,-1 0,0 0,0 0,0zm-11 1c0,0 0,1 0,1 0,1 -1,2 -1,2 -1,1 -2,1 -2,0 0,-1 1,-2 2,-2 0,-1 0,-1 1,-1zm4 1c0,0 0,1 0,1 0,1 -1,2 -1,2 -1,1 -2,1 -2,0 0,-1 1,-2 2,-2 0,-1 0,-1 1,-1zm3 1c1,0 1,1 1,1 0,1 -1,2 -1,2 -1,1 -2,1 -2,0 0,-1 1,-2 2,-2 0,0 0,-1 0,-1 0,0 0,0 0,0zm-11 1c0,0 0,1 0,1 0,1 -1,2 -1,2 -1,1 -2,1 -2,0 0,-1 1,-2 2,-2 0,-1 0,-1 1,-1zm15 0c1,0 1,1 1,1 0,1 -1,2 -1,2 -1,1 -2,1 -2,0 0,-1 1,-2 2,-2 0,0 0,0 0,-1 0,0 0,0 0,0zm-11 1c0,0 0,1 0,1 0,1 -1,2 -1,2 -1,1 -2,1 -2,0 0,-1 1,-2 2,-2 0,-1 0,-1 0,-1 0,0 0,0 1,0zm4 1c0,0 0,1 0,1 0,1 -1,2 -1,2 -1,1 -2,1 -2,0 0,-1 1,-2 2,-2 0,0 0,-1 0,-1 0,0 0,0 1,0zm-12 1c0,0 0,1 0,1 0,1 -1,2 -1,2 -1,1 -2,1 -2,0 0,-1 1,-2 2,-2 0,-1 0,-1 1,-1zm15 0c1,0 1,1 1,1 0,1 -1,2 -1,2 -1,1 -2,1 -2,0 0,-1 1,-2 2,-2 0,0 0,-1 0,-1 0,0 0,0 0,0zm-11 1c0,0 0,1 0,1 0,1 -1,2 -1,2 -1,1 -2,1 -2,0 0,-1 1,-2 2,-2 0,-1 0,-1 0,-1 0,0 0,0 1,0zm15 0c1,0 1,1 1,1 0,1 -1,2 -1,2 -1,1 -2,1 -2,0 0,-1 1,-2 2,-2 0,0 0,-1 0,-1 0,0 0,0 0,0zm-11 1c0,0 0,1 0,1 0,1 -1,2 -1,2 -1,1 -2,1 -2,0 0,-1 1,-2 2,-2 0,0 0,-1 0,-1 0,0 0,0 1,0zm4 1c0,0 0,1 0,1 0,1 -1,2 -1,2 -1,1 -2,1 -2,0 0,-1 1,-2 2,-2 0,0 0,-1 0,-1 0,0 0,0 1,0zm-12 1c0,0 0,0 0,1 0,1 -1,2 -1,2 -1,1 -2,1 -2,0 0,-1 1,-2 2,-2 0,-1 0,-1 0,-1 0,0 0,0 1,0zm16 0c0,0 0,1 0,1 0,1 -1,2 -1,2 -1,1 -2,1 -2,0 0,-1 1,-2 2,-2 0,-1 0,-1 1,-1zm-12 1c0,0 0,1 0,1 0,1 -1,2 -1,2 -1,1 -2,1 -2,0 0,-1 1,-2 2,-2 0,-1 0,-1 0,-1 0,0 0,0 1,0zm4 1c0,0 0,1 0,1 0,1 -1,2 -1,2 -1,1 -2,1 -2,0 0,-1 1,-2 2,-2 0,-1 0,-1 0,-1 0,0 0,0 1,0zm4 1c0,0 0,1 0,1 0,1 -1,2 -1,2 -1,1 -2,1 -2,0 0,-1 1,-2 2,-2 0,-1 0,-1 1,-1zm-12 1c0,0 0,0 0,1 0,1 -1,2 -1,2 -1,1 -2,1 -2,0 0,-1 1,-2 2,-2 0,-1 0,-1 0,-1 0,0 0,0 1,0zm4 1c0,0 0,1 0,1 0,1 -1,2 -1,2 -1,1 -2,1 -2,0 0,-1 1,-2 2,-2 0,-1 0,-1 1,-1zm4 1c0,0 0,1 0,1 0,1 -1,2 -1,2 -1,1 -2,1 -2,0 0,-1 1,-2 2,-2 0,-1 0,-1 1,-1zm-8 2c0,0 0,0 0,1 0,1 -1,2 -1,2 -1,1 -2,1 -2,0 0,-1 1,-2 2,-2 0,-1 0,-1 1,-1zm-86 1l0 122 51 0 0 -122 -51 0zm90 0c0,0 0,1 0,1 0,1 -1,2 -1,2 -1,1 -2,1 -2,0 0,-1 1,-2 2,-2 0,-1 0,-1 1,-1zm-4 3c0,0 0,1 0,1 0,1 -1,2 -1,2 -1,1 -2,1 -2,0 0,-1 1,-2 2,-3 0,0 0,0 1,0zm-80 6l37 0 0 6 -37 0 0 -6zm0 8l37 0 0 6 -37 0 0 -6zm0 8l37 0 0 7 -37 0 0 -7zm0 9l37 0 0 6 -37 0 0 -6zm32 8c0,0 0,0 0,0 0,0 1,0 1,0 0,0 0,0 0,0 0,0 0,0 0,0 0,0 0,0 0,0 0,0 0,0 0,0l0 4c0,0 0,1 0,1 0,0 0,0 0,0 0,0 0,0 0,0 -1,0 -1,0 -1,0 0,0 0,0 0,0 0,0 0,0 0,0 0,0 0,0 0,0 0,0 0,-1 0,-1l0 -4c0,0 0,0 0,0 0,0 0,0 0,0 0,0 0,0 0,0 0,0 0,0 0,0 0,0 0,0 0,0l0 0zm-1 2c0,0 0,0 0,0 0,0 0,0 0,0 0,1 0,1 0,1 0,0 -1,0 -1,1 -1,1 0,2 1,3 1,1 3,1 3,0 1,-2 1,-3 0,-4 0,0 0,0 0,0 0,0 0,0 0,0 0,0 0,0 0,-1 0,0 0,0 0,0 0,0 0,0 0,0 0,0 0,0 0,0 0,0 0,0 0,0 0,0 0,0 0,0 0,0 0,0 1,0 1,1 2,4 0,5 -1,2 -3,2 -5,1 -2,-1 -2,-4 -1,-5 0,-1 1,-1 1,-1 0,0 0,0 0,0 0,0 0,0 0,0 0,0 0,0 0,0 0,0 0,0 0,0 0,0 0,0 1,0l0 0zm-26 0c1,0 2,1 2,2 0,1 -1,2 -2,2 -2,0 -3,-1 -3,-2 0,-1 1,-2 3,-2zm6 0c1,0 2,1 2,2 0,1 -1,2 -2,2 -2,0 -2,-1 -2,-2 0,-1 0,-2 2,-2zm-13 46c0,0 0,0 0,0 0,0 0,0 0,0 0,0 0,0 0,0 0,0 0,0 0,0 0,0 0,0 0,0 0,0 0,0 0,0 0,0 0,0 0,0 0,0 0,0 0,0 0,0 0,0 0,0 0,0 0,0 0,0 0,0 0,0 0,0 0,0 0,0 0,0 0,0 0,0 0,0 0,0 0,0 0,0 0,0 0,0 0,0 0,0 0,0 0,0l41 0c0,0 0,0 0,0 1,0 1,0 1,1 0,1 0,1 -1,1 0,0 0,0 0,0l-41 0c0,0 0,0 0,0 -1,0 -1,0 -1,-1 0,0 0,-1 1,-1l0 0zm0 4c0,0 0,0 0,0 0,0 0,0 0,0 0,0 0,0 0,0 0,0 0,0 0,0 0,0 0,0 0,0 0,0 0,0 0,0 0,0 0,0 0,0 0,0 0,0 0,0 0,0 0,0 0,0 0,0 0,0 0,0 0,0 0,0 0,0 0,0 0,0 0,0 0,0 0,0 0,0 0,0 0,0 0,0 0,0 0,0 0,0 0,0 0,0 0,0l41 0c0,0 0,0 0,0 1,0 1,1 1,1 0,1 0,1 -1,1 0,0 0,0 0,0l-41 0c0,0 0,0 0,0 -1,0 -1,0 -1,-1 0,0 0,-1 1,-1l0 0zm0 4c0,0 0,0 0,0 0,0 0,0 0,0 0,0 0,0 0,0 0,0 0,0 0,0 0,0 0,0 0,0 0,0 0,0 0,0 0,0 0,0 0,0 0,0 0,0 0,0 0,0 0,0 0,0 0,0 0,0 0,0 0,0 0,0 0,0 0,0 0,0 0,0 0,0 0,0 0,0 0,0 0,0 0,0 0,0 0,0 0,0 0,0 0,0 0,0l41 0c0,0 0,0 0,0 1,0 1,1 1,1 0,1 0,1 -1,1 0,0 0,0 0,0l-41 0c0,0 0,0 0,0 -1,0 -1,0 -1,-1 0,0 0,-1 1,-1l0 0zm0 4c0,0 0,0 0,0 0,0 0,0 0,0 0,0 0,0 0,0 0,0 0,0 0,0 0,0 0,0 0,0 0,0 0,0 0,0 0,0 0,0 0,0 0,0 0,0 0,0 0,0 0,0 0,0 0,0 0,0 0,0 0,0 0,0 0,0 0,0 0,0 0,0 0,0 0,0 0,0 0,0 0,0 0,0 0,0 0,0 0,0 0,0 0,0 0,0l41 0c0,0 0,0 0,0 1,0 1,1 1,1 0,1 0,1 -1,1 0,0 0,0 0,0l-41 0c0,0 0,0 0,0 -1,0 -1,0 -1,-1 0,0 0,-1 1,-1l0 0zm0 4c0,0 0,0 0,0 0,0 0,0 0,0 0,0 0,0 0,0 0,0 0,0 0,0 0,0 0,0 0,0 0,0 0,0 0,0 0,0 0,0 0,0 0,0 0,0 0,0 0,0 0,0 0,0 0,0 0,0 0,0 0,0 0,0 0,0 0,0 0,0 0,0 0,0 0,0 0,0 0,0 0,0 0,0 0,0 0,0 0,0 0,0 0,0 0,0l41 0c0,0 0,0 0,0 1,0 1,1 1,1 0,1 0,1 -1,1 0,0 0,0 0,0l-41 0c0,0 0,0 0,0 -1,0 -1,0 -1,-1 0,0 0,0 1,-1l0 0zm0 4c0,0 0,0 0,0 0,0 0,0 0,0 0,0 0,0 0,0 0,0 0,0 0,0 0,0 0,0 0,0 0,0 0,0 0,0 0,0 0,0 0,0 0,0 0,0 0,0 0,0 0,0 0,0 0,0 0,0 0,0 0,0 0,0 0,0 0,0 0,0 0,0 0,0 0,0 0,0 0,0 0,0 0,0 0,0 0,0 0,0 0,0 0,0 0,0l41 0c0,0 0,0 0,0 1,0 1,1 1,1 0,1 0,2 -1,2 0,0 0,0 0,0l-41 0c0,0 0,0 0,0 -1,0 -1,-1 -1,-2 0,0 0,0 1,-1l0 0zm0 5c0,0 0,0 0,0 0,0 0,0 0,0 0,0 0,0 0,0 0,0 0,0 0,0 0,0 0,0 0,0 0,0 0,0 0,0 0,0 0,0 0,0 0,0 0,0 0,0 0,0 0,0 0,0 0,0 0,0 0,0 0,0 0,0 0,0 0,0 0,0 0,0 0,0 0,0 0,0 0,0 0,0 0,0 0,0 0,0 0,0 0,0 0,0 0,0l41 0c0,0 0,0 0,0 1,0 1,0 1,0 0,0 0,0 0,0 0,0 0,0 0,0 0,0 0,0 0,0 0,0 0,0 0,0 0,0 0,0 0,0 0,0 0,0 0,0 0,0 0,0 0,0 0,0 0,0 0,0 0,0 0,0 0,0 0,0 0,0 0,0 0,0 0,0 0,0 0,0 0,0 0,1 0,0 0,0 0,0 0,0 0,0 0,0 0,0 0,0 0,0 0,0 0,0 0,0 0,0 0,0 0,0 0,0 0,0 0,0 0,0 0,0 0,0 0,0 0,0 0,0 0,0 0,0 0,1 0,0 0,0 -1,0 0,0 0,0 0,0l-41 0c0,0 0,0 0,0 -1,0 -1,-1 -1,-1 0,-1 0,-1 1,-1l0 0z"/>
  </g>
  <g id="_900936381168">
   <path class="fil1" d="M181 314c-15,0 -28,-5 -34,-13l0 9c0,11 15,19 34,19 18,0 33,-8 33,-19l0 -9c-6,8 -19,13 -33,13z"/>
   <path class="fil1" d="M157 304c13,8 34,8 47,0 13,-7 13,-20 0,-27 -13,-7 -34,-7 -47,0 -13,7 -13,20 0,27zm16 -22l4 -2 -2 7 -12 1 3 -2 -8 -5 7 -3 8 4zm28 5l-4 -2 -8 5 -7 -4 9 -5 -4 -2 12 1 2 7zm-13 12l-4 2 2 -7 12 -1 -3 2 8 5 -7 3 -8 -4zm-26 2l-2 -7 4 2 8 -5 7 4 -9 5 4 2 -12 -1z"/>
  </g>
 </g>
</svg>
