<?xml version="1.0" encoding="UTF-8"?>
<!DOCTYPE svg PUBLIC "-//W3C//DTD SVG 1.1//EN" "http://www.w3.org/Graphics/SVG/1.1/DTD/svg11.dtd">
<!-- Creator: CorelDRAW X7 -->
<svg xmlns="http://www.w3.org/2000/svg" xml:space="preserve" width="350px" height="600px" version="1.1" style="shape-rendering:geometricPrecision; text-rendering:geometricPrecision; image-rendering:optimizeQuality; fill-rule:evenodd; clip-rule:evenodd"
viewBox="0 0 350 600"
 xmlns:xlink="http://www.w3.org/1999/xlink"
 enable-background="new 0 0 90 90">
 <defs>
  <style type="text/css">
   <![CDATA[
    .str0 {stroke:#373435;stroke-width:0.900004}
    .fil1 {fill:#373435}
    .fil0 {fill:#91D8F7}
    .fil2 {fill:#00A859}
    .fil3 {fill:black}
    .fil4 {fill:#373435;fill-rule:nonzero}
    .fil5 {fill:#ED3237;fill-rule:nonzero}
    .fil7 {fill:#4E5A62;fill-rule:nonzero}
    .fil6 {fill:#3E4095;fill-rule:nonzero}
   ]]>
  </style>
 </defs>
 <g id="Layer_x0020_1">
  <metadata id="CorelCorpID_0Corel-Layer"/>
  <rect class="fil0" x="41" y="33" width="268" height="546"/>
  <rect class="fil1 str0" x="199" y="55" width="74.5432" height="18.5422"/>
  <rect class="fil1 str0" x="69" y="55" width="76.3125" height="18.5422"/>
  <rect class="fil1 str0" transform="matrix(3.06945E-014 -0.713245 1 1.62991E-014 255.001 144.501)" width="123.381" height="18.5422"/>
  <rect class="fil1 str0" transform="matrix(3.06945E-014 -0.713245 1 1.62991E-014 67.9999 144.501)" width="123.381" height="18.5422"/>
  <rect class="fil2 str0" transform="matrix(3.06945E-014 -1.18965 1 2.71859E-014 255.001 495.42)" width="123.381" height="18.5422"/>
  <rect class="fil1 str0" transform="matrix(3.06945E-014 -1.07556 1 2.45787E-014 255.001 315.704)" width="123.381" height="18.5422"/>
  <rect class="fil1 str0" transform="matrix(3.06945E-014 -1.07556 1 2.45787E-014 67.9999 315.704)" width="123.381" height="18.5422"/>
  <rect class="fil1 str0" transform="matrix(3.06945E-014 -1.17791 1 2.69177E-014 67.9999 493.972)" width="123.381" height="18.5422"/>
  <rect class="fil1 str0" x="285" y="155" width="51.0002" height="18.5422"/>
  <rect class="fil1 str0" x="285" y="505" width="51.0002" height="18.5422"/>
  <rect class="fil1 str0" x="5" y="505" width="51.0002" height="18.5422"/>
  <rect class="fil1 str0" x="99" y="155" width="142.993" height="18.5422"/>
  <rect class="fil1 str0" x="99" y="325" width="142.993" height="18.5422"/>
  <rect class="fil2 str0" x="99" y="505" width="142.993" height="18.5422"/>
  <g id="_1043433922624">
   <path class="fil3" d="M78 527c-15,0 -26,-5 -32,-12l0 9c0,10 14,18 32,18 17,0 31,-8 31,-18l0 -9c-5,7 -17,12 -31,12z"/>
   <path class="fil3" d="M55 518c12,7 33,7 45,0 12,-7 12,-19 0,-26 -12,-7 -33,-7 -45,0 -12,7 -12,19 0,26zm16 -21l3 -2 -2 7 -11 1 3 -2 -8 -5 6 -3 9 4zm26 5l-3 -2 -8 4 -7 -3 8 -5 -3 -2 11 1 2 7zm-12 11l-4 2 2 -7 11 -1 -3 2 8 5 -6 3 -8 -4zm-25 2l-2 -6 4 1 8 -4 6 4 -8 4 3 2 -11 -1z"/>
  </g>
  <g id="_1043433924448">
   <path class="fil3" d="M265 527c-15,0 -26,-5 -32,-12l0 9c0,10 14,18 32,18 17,0 31,-8 31,-18l0 -9c-5,7 -17,12 -31,12z"/>
   <path class="fil3" d="M242 518c12,7 33,7 45,0 12,-7 12,-19 0,-26 -12,-7 -33,-7 -45,0 -12,7 -12,19 0,26zm16 -21l3 -2 -2 7 -11 1 3 -2 -8 -5 6 -3 9 4zm26 5l-3 -2 -9 4 -6 -3 8 -5 -3 -2 11 1 2 7zm-12 11l-4 2 2 -7 11 -1 -3 2 8 5 -6 3 -8 -4zm-25 2l-2 -6 4 1 8 -4 6 4 -8 4 3 2 -11 -1z"/>
  </g>
  <g id="_1043433925024">
   <path class="fil3" d="M78 347c-15,0 -26,-5 -32,-12l0 9c0,10 14,18 32,18 17,0 31,-8 31,-18l0 -9c-5,7 -17,12 -31,12z"/>
   <path class="fil3" d="M55 338c12,7 33,7 45,0 12,-7 12,-18 0,-25 -12,-8 -33,-8 -45,0 -12,7 -12,18 0,25zm16 -20l3 -2 -2 6 -11 1 3 -2 -8 -4 6 -4 9 5zm26 4l-3 -2 -8 4 -7 -3 8 -5 -3 -2 11 1 2 7zm-12 11l-4 2 2 -7 11 -1 -3 2 8 5 -6 4 -8 -5zm-25 2l-2 -6 4 2 8 -5 6 4 -8 4 3 2 -11 -1z"/>
  </g>
  <g id="_1043433932000">
   <path class="fil3" d="M265 347c-15,0 -26,-5 -32,-12l0 9c0,10 14,18 32,18 17,0 31,-8 31,-18l0 -9c-5,7 -17,12 -31,12z"/>
   <path class="fil3" d="M242 338c12,7 33,7 45,0 12,-7 12,-18 0,-25 -12,-8 -33,-8 -45,0 -12,7 -12,18 0,25zm16 -20l3 -2 -2 6 -11 1 3 -2 -8 -4 6 -4 9 5zm26 4l-3 -2 -9 4 -6 -3 8 -5 -3 -2 11 1 2 7zm-12 11l-4 2 2 -7 11 -1 -3 2 8 5 -6 4 -8 -5zm-25 2l-2 -6 4 2 8 -5 6 4 -8 4 3 2 -11 -1z"/>
  </g>
  <g id="_1043433931872">
   <path class="fil3" d="M78 177c-15,0 -26,-5 -32,-12l0 9c0,10 14,18 32,18 17,0 31,-8 31,-18l0 -9c-5,7 -17,12 -31,12z"/>
   <path class="fil3" d="M55 168c12,7 33,7 45,0 12,-7 12,-19 0,-26 -12,-7 -33,-7 -45,0 -12,7 -12,19 0,26zm16 -21l3 -1 -2 6 -11 1 3 -2 -8 -4 6 -4 9 4zm26 5l-3 -2 -8 4 -7 -3 8 -5 -3 -2 11 1 2 7zm-12 11l-4 2 2 -7 11 -1 -3 2 8 5 -6 3 -8 -4zm-25 2l-2 -6 4 2 8 -5 6 4 -8 4 3 2 -11 -1z"/>
  </g>
  <g id="_1043433930080">
   <path class="fil3" d="M265 177c-15,0 -26,-5 -32,-12l0 9c0,10 14,18 32,18 17,0 31,-8 31,-18l0 -9c-5,7 -17,12 -31,12z"/>
   <path class="fil3" d="M242 168c12,7 33,7 45,0 12,-7 12,-19 0,-26 -12,-7 -33,-7 -45,0 -12,7 -12,19 0,26zm16 -21l3 -1 -2 6 -11 1 3 -2 -8 -4 6 -4 9 4zm26 5l-3 -2 -9 4 -6 -3 8 -5 -3 -2 11 1 2 7zm-12 11l-4 2 2 -7 11 -1 -3 2 8 5 -6 3 -8 -4zm-25 2l-2 -6 4 2 8 -5 6 4 -8 4 3 2 -11 -1z"/>
  </g>
  <g id="_1043433928640">
   <path class="fil3" d="M168 77c-14,0 -26,-5 -32,-12l0 9c0,10 14,18 32,18 17,0 32,-8 32,-18l0 -9c-6,7 -18,12 -32,12z"/>
   <path class="fil3" d="M145 68c13,7 33,7 45,0 13,-7 13,-19 0,-26 -12,-7 -32,-7 -45,0 -12,7 -12,19 0,26zm16 -21l3 -1 -2 6 -11 1 3 -2 -8 -4 7 -4 8 4zm26 5l-3 -2 -8 4 -7 -3 8 -5 -3 -2 11 1 2 7zm-12 11l-4 2 2 -7 12 -1 -4 2 8 5 -6 3 -8 -4zm-25 2l-2 -6 4 2 8 -5 6 4 -8 4 4 2 -12 -1z"/>
  </g>
  <path class="fil4" d="M17 500l0 -2 11 -13c-1,0 -3,0 -3,0l-7 0 0 -2 14 0 0 2 -10 11 -2 2c2,0 3,0 4,0l8 0 0 2 -15 0z"/>
  <path class="fil4" d="M306 502l0 -2c0,0 1,0 1,0 1,0 2,0 2,0 0,-1 1,-1 1,-1 0,-1 0,-1 1,-3 0,0 0,0 0,0l-6 -18 3 0 3 10c1,2 1,3 2,4 0,-1 0,-2 1,-4l3 -10 3 0 -6 18c-1,2 -1,3 -2,4 0,1 -1,2 -2,2 0,0 -1,1 -2,1 -1,0 -1,0 -2,-1z"/>
  <polygon class="fil5" points="304,146 310,137 305,128 310,128 313,133 316,128 322,128 316,137 322,146 317,146 313,140 310,146 "/>
  <path class="fil6" d="M84 569l-3 0 0 -18c0,0 -1,1 -2,2 -1,0 -2,1 -3,1l0 -3c1,0 3,-1 4,-2 1,-2 2,-3 2,-4l2 0 0 24z"/>
  <path id="1" class="fil6" d="M104 567c-1,1 -2,2 -3,2 -1,0 -2,1 -4,1 -1,0 -3,-1 -4,-2 -1,-1 -1,-2 -1,-3 0,-1 0,-2 0,-3 1,0 1,-1 2,-1 0,-1 1,-1 2,-1 0,0 1,-1 2,-1 3,0 4,0 5,-1 1,0 1,0 1,0 0,-2 -1,-2 -1,-3 -1,-1 -2,-1 -4,-1 -1,0 -2,0 -3,1 0,0 -1,1 -1,2l-3 0c0,-1 1,-2 1,-3 1,-1 2,-1 3,-2 1,0 2,0 4,0 1,0 2,0 3,0 1,1 2,1 2,1 1,1 1,2 1,2 0,1 0,2 0,3l0 4c0,3 1,4 1,5 0,1 0,2 0,2l-3 0c0,0 0,-1 0,-2zm0 -6c-2,0 -3,0 -5,1 -1,0 -2,0 -3,0 0,1 -1,1 -1,1 0,1 0,1 0,2 0,0 0,1 1,2 0,0 1,0 2,0 1,0 2,0 3,0 1,-1 2,-2 2,-2 0,-1 0,-2 0,-3l1 -1z"/>
  <path class="fil6" d="M265 569l-3 0 0 -18c-1,0 -2,1 -3,2 -1,0 -2,1 -3,1l0 -3c2,0 3,-1 4,-2 1,-2 2,-3 3,-4l2 0 0 24z"/>
  <path id="1" class="fil6" d="M276 569l-3 0 0 -24 3 0 0 9c1,-2 3,-2 4,-2 2,0 3,0 3,0 1,1 2,1 3,2 0,1 1,2 1,3 1,1 1,2 1,3 0,3 -1,6 -2,7 -2,2 -4,3 -6,3 -2,0 -3,-1 -4,-3l0 2zm0 -8c0,2 0,3 0,4 1,2 3,2 4,2 1,0 2,0 3,-1 1,-2 2,-3 2,-5 0,-3 -1,-4 -2,-5 0,-1 -2,-2 -3,-2 -1,0 -2,1 -3,2 -1,1 -1,2 -1,5z"/>
  <path class="fil6" d="M284 390l-2 0 0 -19c-1,1 -2,1 -3,2 -1,1 -2,1 -3,1l0 -2c1,-1 3,-2 4,-3 1,-1 2,-2 3,-3l1 0 0 24z"/>
  <path id="1" class="fil6" d="M304 383l3 1c-1,2 -1,3 -3,4 -1,1 -3,2 -4,2 -3,0 -5,-1 -6,-2 -1,-2 -2,-4 -2,-7 0,-2 0,-3 1,-5 0,-1 1,-2 3,-3 1,-1 2,-1 4,-1 1,0 3,0 4,1 1,1 2,3 2,4l-2 1c-1,-1 -1,-2 -2,-3 0,0 -1,-1 -2,-1 -2,0 -3,1 -4,2 -1,1 -1,3 -1,5 0,2 0,4 1,5 1,1 2,2 4,2 1,0 2,-1 2,-1 1,-1 2,-2 2,-4z"/>
  <path class="fil6" d="M109 387l0 3 -16 0c0,-1 0,-2 1,-2 0,-1 1,-3 2,-4 0,-1 2,-2 3,-3 3,-2 5,-4 5,-5 1,-1 2,-3 2,-4 0,-1 -1,-2 -1,-3 -1,0 -2,-1 -4,-1 -1,0 -2,1 -3,1 -1,1 -1,2 -1,4l-3 0c0,-3 1,-4 2,-6 1,-1 3,-1 5,-1 3,0 5,0 6,2 1,1 2,2 2,4 0,1 0,2 -1,3 0,1 -1,2 -2,3 -1,1 -2,2 -4,4 -2,2 -3,3 -4,3 0,1 0,1 -1,2l12 0z"/>
  <path id="1" class="fil6" d="M124 387c-1,1 -2,2 -3,2 -1,1 -2,1 -3,1 -2,0 -4,0 -5,-1 -1,-1 -1,-2 -1,-4 0,-1 0,-2 0,-2 1,-1 1,-2 2,-2 0,0 1,-1 2,-1 0,0 1,0 3,0 2,-1 4,-1 5,-1 0,-1 0,-1 0,-1 0,-1 -1,-2 -1,-3 -1,0 -2,-1 -3,-1 -2,0 -3,1 -3,1 -1,1 -2,1 -2,3l-3 -1c1,-1 1,-2 2,-3 0,0 1,-1 2,-1 1,-1 3,-1 4,-1 1,0 3,0 4,0 0,1 1,1 2,2 0,0 0,1 0,2 1,0 1,1 1,2l0 4c0,3 0,5 0,6 0,0 0,1 1,2l-4 0c0,-1 0,-2 0,-3zm0 -6c-1,0 -3,1 -5,1 -1,0 -2,0 -3,1 0,0 0,0 -1,1 0,0 0,0 0,1 0,1 0,1 1,2 0,0 1,1 2,1 1,0 2,-1 3,-1 1,-1 2,-1 2,-2 1,-1 1,-2 1,-3l0 -1z"/>
  <path class="fil6" d="M277 215l3 0c0,1 1,2 2,3 0,1 1,1 2,1 2,0 3,0 4,-1 1,-1 1,-2 1,-4 0,-1 0,-2 -1,-3 -1,-1 -2,-1 -3,-1 -1,0 -2,0 -2,0l0 -3c0,0 0,0 0,0 2,0 3,0 4,-1 1,0 1,-1 1,-3 0,-1 0,-2 -1,-2 -1,-1 -1,-1 -3,-1 -1,0 -2,0 -2,1 -1,1 -2,2 -2,3l-3 0c1,-2 1,-4 3,-5 1,-1 2,-2 4,-2 2,0 3,1 4,1 1,1 2,1 2,2 1,1 1,2 1,4 0,1 0,1 -1,2 0,1 -1,2 -2,2 1,1 2,1 3,2 1,1 1,3 1,4 0,2 0,4 -2,6 -1,1 -3,2 -6,2 -2,0 -3,-1 -5,-2 -1,-1 -2,-3 -2,-5z"/>
  <path id="1" class="fil6" d="M307 215l3 0c0,2 -1,4 -2,5 -2,1 -3,2 -5,2 -2,0 -4,-1 -6,-3 -1,-1 -2,-3 -2,-6 0,-2 1,-4 1,-5 1,-2 2,-3 3,-3 1,-1 3,-1 4,-1 2,0 3,0 5,1 1,1 1,2 2,4l-3 1c0,-2 -1,-3 -1,-3 -1,-1 -2,-1 -3,-1 -1,0 -3,1 -3,2 -1,1 -2,2 -2,5 0,2 1,4 1,5 1,1 3,1 4,1 1,0 2,0 3,-1 1,-1 1,-2 1,-3z"/>
  <path class="fil6" d="M94 213l3 0c0,2 0,3 1,4 1,0 2,1 3,1 2,0 3,-1 4,-2 1,-1 1,-2 1,-3 0,-2 0,-3 -1,-4 -1,-1 -2,-1 -4,-1 0,0 -1,0 -2,0l1 -2c0,0 0,0 0,0 1,0 3,-1 4,-1 0,-1 1,-2 1,-3 0,-1 0,-2 -1,-3 -1,-1 -2,-1 -3,-1 -1,0 -2,0 -3,1 0,1 -1,2 -1,3l-3 0c0,-2 1,-4 2,-5 2,-1 3,-1 5,-1 1,0 3,0 4,1 1,0 2,1 2,2 1,1 1,2 1,3 0,1 0,2 -1,3 0,1 -1,1 -2,2 1,0 2,1 3,2 1,1 1,2 1,4 0,2 -1,3 -2,5 -2,1 -4,2 -6,2 -2,0 -4,-1 -5,-2 -1,-1 -2,-3 -2,-5z"/>
  <path id="1" class="fil6" d="M124 217c-1,1 -2,2 -3,2 -1,1 -2,1 -3,1 -2,0 -4,0 -5,-1 -1,-1 -1,-2 -1,-4 0,-1 0,-2 0,-2 1,-1 1,-2 2,-2 0,0 1,-1 2,-1 0,0 1,0 3,0 2,-1 4,-1 5,-1 0,-1 0,-1 0,-1 0,-1 -1,-2 -1,-3 -1,0 -2,-1 -3,-1 -2,0 -3,1 -3,1 -1,1 -2,1 -2,3l-3 -1c1,-1 1,-2 2,-3 0,0 1,-1 2,-1 1,-1 3,-1 4,-1 1,0 3,0 4,0 0,1 1,1 2,2 0,0 0,1 0,2 1,0 1,1 1,2l0 4c0,3 0,5 0,6 0,0 0,1 1,2l-4 0c0,-1 0,-2 0,-3zm0 -6c-1,0 -3,1 -5,1 -1,0 -2,0 -3,1 0,0 0,0 -1,1 0,0 0,0 0,1 0,1 0,1 1,2 0,0 1,1 2,1 1,0 2,-1 3,-1 1,-1 2,-1 2,-2 1,-1 1,-2 1,-3l0 -1z"/>
  <path class="fil6" d="M187 105l3 0c0,1 1,3 2,3 0,1 1,1 2,1 2,0 3,0 4,-1 1,-1 1,-2 1,-4 0,-1 0,-2 -1,-3 -1,-1 -2,-1 -3,-1 -1,0 -2,0 -2,0l0 -2c0,0 0,0 0,0 2,0 3,-1 4,-1 1,-1 1,-2 1,-3 0,-1 0,-2 -1,-3 -1,-1 -1,-1 -3,-1 -1,0 -2,0 -2,1 -1,1 -2,2 -2,3l-3 0c1,-2 1,-4 3,-5 1,-1 2,-2 4,-2 2,0 3,1 4,1 1,1 2,2 2,3 1,1 1,2 1,3 0,1 0,2 -1,2 0,1 -1,2 -2,3 1,0 2,1 3,2 1,1 1,2 1,3 0,2 0,4 -2,6 -1,1 -3,2 -6,2 -2,0 -3,-1 -5,-2 -1,-1 -2,-3 -2,-5z"/>
  <path id="1" class="fil6" d="M209 111l-3 0 0 -23 3 0 0 8c1,-1 3,-2 5,-2 1,0 2,0 3,0 0,1 1,1 2,2 0,1 1,2 1,3 1,1 1,2 1,4 0,3 -1,5 -2,6 -2,2 -4,3 -6,3 -2,0 -3,-1 -4,-3l0 2zm0 -8c0,2 0,3 0,4 1,2 3,2 4,2 1,0 3,0 3,-1 1,-1 2,-3 2,-5 0,-2 -1,-4 -1,-5 -1,-1 -2,-2 -4,-2 -1,0 -2,1 -3,2 -1,1 -1,3 -1,5z"/>
  <path class="fil7" d="M131 300l13 -36 6 0 14 36 -5 0 -4 -11 -15 0 -4 11 -5 0zm10 -15l12 0 -4 -10c-1,-3 -2,-5 -2,-7 -1,2 -1,4 -2,6l-4 11z"/>
  <path id="1" class="fil7" d="M166 288l5 0c0,2 0,3 1,4 1,1 2,2 4,3 1,1 3,1 5,1 2,0 4,0 5,-1 2,0 3,-1 3,-2 1,-1 1,-2 1,-3 0,-1 0,-2 -1,-3 0,-1 -1,-1 -3,-2 -1,0 -3,-1 -6,-2 -4,-1 -6,-1 -7,-2 -2,-1 -3,-2 -4,-3 -1,-2 -1,-3 -1,-5 0,-2 0,-3 1,-5 1,-1 3,-3 5,-4 2,0 4,-1 6,-1 3,0 5,1 7,2 2,0 4,2 5,3 1,2 2,4 2,6l-5 0c0,-2 -1,-4 -2,-5 -2,-1 -4,-2 -7,-2 -2,0 -4,1 -6,2 -1,1 -2,2 -2,4 0,1 1,2 2,3 1,1 3,2 7,3 4,0 6,1 8,2 2,1 3,2 4,3 1,2 2,4 2,6 0,1 -1,3 -2,5 -1,2 -2,3 -5,4 -2,1 -4,1 -6,1 -4,0 -6,0 -9,-1 -2,-1 -3,-3 -5,-4 -1,-2 -2,-4 -2,-7z"/>
  <path id="2" class="fil7" d="M216 300l-4 0 0 -28c-1,1 -3,2 -5,3 -1,1 -3,1 -4,2l0 -4c2,-1 4,-3 6,-4 2,-2 3,-4 4,-5l3 0 0 36z"/>
 </g>
</svg>
