<?xml version="1.0" encoding="UTF-8"?>
<!DOCTYPE svg PUBLIC "-//W3C//DTD SVG 1.1//EN" "http://www.w3.org/Graphics/SVG/1.1/DTD/svg11.dtd">
<!-- Creator: CorelDRAW X7 -->
<svg xmlns="http://www.w3.org/2000/svg" xml:space="preserve" width="350px" height="600px" version="1.1" style="shape-rendering:geometricPrecision; text-rendering:geometricPrecision; image-rendering:optimizeQuality; fill-rule:evenodd; clip-rule:evenodd"
viewBox="0 0 350 600"
 xmlns:xlink="http://www.w3.org/1999/xlink"
 xmlns:dc="http://purl.org/dc/elements/1.1/"
 xmlns:cc="http://creativecommons.org/ns#"
 xmlns:rdf="http://www.w3.org/1999/02/22-rdf-syntax-ns#"
 xmlns:svg="http://www.w3.org/2000/svg"
 xmlns:sodipodi="http://sodipodi.sourceforge.net/DTD/sodipodi-0.dtd"
 xmlns:inkscape="http://www.inkscape.org/namespaces/inkscape"
 enable-background="new 0 0 90 90">
 <defs>
  <style type="text/css">
   <![CDATA[
    .str0 {stroke:#373435;stroke-width:7.38192}
    .fil1 {fill:black}
    .fil0 {fill:#373435}
    .fil2 {fill:#373435;fill-rule:nonzero}
   ]]>
  </style>
 </defs>
 <g id="Layer_x0020_1">
  <metadata id="CorelCorpID_0Corel-Layer"/>
  <g id="_402013388304">
   <rect class="fil0 str0" x="164" y="285" width="19.16" height="133.349"/>
   <rect class="fil0 str0" x="164" y="143" width="19.16" height="99.6421"/>
   <g id="_900936382160">
    <g>
     <path class="fil1" d="M238 37l-81 0 0 0 0 -12c0,-6 -6,-11 -12,-11l-38 0c-6,0 -10,5 -10,11l0 101c0,3 1,6 3,8 1,1 2,1 4,2 1,0 2,0 3,0l38 0c2,0 3,0 4,0 1,-1 3,-1 4,-2 2,-3 4,-5 4,-8l0 -6 22 0 1 0 0 10 -14 0c-3,0 -6,1 -6,3l0 8c0,1 3,2 6,2l45 0c2,0 3,-1 3,-2l0 -8c0,-2 -1,-3 -3,-3l-14 0 0 -10 41 0c6,0 12,-5 12,-11l0 -62c0,-6 -6,-10 -12,-10l0 0zm-85 88c0,1 0,2 0,3 -1,3 -4,4 -7,4l0 0 -38 0 0 0c-2,0 -5,-1 -7,-4 0,-1 0,-2 0,-3l0 -100c0,-1 0,-2 0,-2 2,-3 5,-5 7,-5l0 0 38 0 0 0c3,0 6,2 7,5 0,0 0,1 0,2l0 100zm4 -30l0 -44 78 0c0,0 1,0 1,0l0 43c0,1 -1,1 -1,1l-78 0 0 0zm54 39l0 6 -46 0 0 -6 14 0c2,0 5,-2 5,-4l0 -10 9 0 1 0 0 10c0,2 1,4 3,4l14 0 0 0zm34 -25c0,4 -3,8 -7,8l-81 0 0 -1 0 -17 78 0c3,0 5,-3 5,-5l0 -43c0,-3 -2,-4 -5,-4l-78 0 0 0 0 -6 81 0c4,0 7,3 7,6l0 62z"/>
     <circle class="fil1" cx="188" cy="108" r="3"/>
     <path class="fil1" d="M149 134l0 6 -46 0 0 -6c0,0 -3,-1 -3,-2 0,0 -1,1 -1,1l0 8c0,2 2,2 5,2l45 0c2,0 4,0 4,-2l0 -8c0,0 0,-1 0,-1 -1,1 -2,2 -4,2z"/>
     <circle class="fil1" cx="126" cy="119" r="3"/>
     <path class="fil1" d="M144 34c0,0 0,0 0,0l-33 0c-1,0 -1,0 -1,0 -2,0 -4,1 -4,3l0 0 0 9 0 0c0,1 2,2 4,3 0,0 0,0 1,0l33 0c0,0 0,0 0,0 2,-1 4,-2 4,-3l0 0 0 -9 0 0c0,-2 -2,-3 -4,-3zm-1 11l-32 0 0 -8 32 0 0 8z"/>
     <polygon class="fil1" points="111,82 111,83 142,83 142,82 142,80 111,80 "/>
     <polygon class="fil1" points="111,89 111,91 142,91 142,89 142,88 111,88 "/>
     <polygon class="fil1" points="111,95 111,97 142,97 142,95 142,94 111,94 "/>
     <polygon class="fil1" points="111,103 111,105 142,105 142,103 142,101 111,101 "/>
    </g>
   </g>
   <g id="_900936381168">
    <path class="fil1" d="M174 273c-13,0 -24,-5 -29,-11l0 7c0,10 12,17 29,17 15,0 28,-7 28,-17l0 -7c-5,6 -16,11 -28,11z"/>
    <path class="fil1" d="M153 264c11,7 29,7 40,0 12,-6 12,-17 0,-23 -11,-6 -29,-6 -40,0 -11,6 -11,17 0,23zm14 -19l3 -1 -1 6 -11 0 3 -1 -7 -5 6 -2 7 3 0 0zm24 5l-4 -2 -6 4 -6 -3 7 -5 -3 -1 10 1 2 6 0 0zm-11 10l-4 2 2 -6 10 -1 -2 1 7 5 -6 2 -7 -3 0 0zm-23 2l-1 -6 3 1 7 -4 6 3 -8 5 4 1 -11 0 0 0z"/>
   </g>
   <g id="_900936382160_0">
    <g>
     <path class="fil1" d="M238 418l-81 0 0 0 0 -12c0,-6 -6,-11 -12,-11l-38 0c-6,0 -10,5 -10,11l0 101c0,3 1,6 3,8 1,1 2,1 4,2 1,0 2,0 3,0l38 0c2,0 3,0 4,0 1,-1 3,-1 4,-2 2,-3 4,-5 4,-8l0 -6 22 0 1 0 0 10 -14 0c-3,0 -6,1 -6,3l0 8c0,1 3,2 6,2l45 0c2,0 3,-1 3,-2l0 -8c0,-2 -1,-3 -3,-3l-14 0 0 -10 41 0c6,0 12,-5 12,-11l0 -62c0,-6 -6,-10 -12,-10l0 0zm-85 87c0,2 0,3 0,4 -1,2 -4,4 -7,4l0 0 -38 0 0 0c-2,0 -5,-2 -7,-4 0,-1 0,-2 0,-4l0 -99c0,-1 0,-2 0,-3 2,-2 5,-4 7,-4l0 0 38 0 0 0c3,0 6,2 7,4 0,1 0,2 0,3l0 99zm4 -30l0 -43 78 0c0,0 1,0 1,0l0 43c0,0 -1,1 -1,1l-78 0 0 -1zm54 40l0 6 -46 0 0 -6 14 0c2,0 5,-2 5,-4l0 -10 9 0 1 0 0 10c0,2 1,4 3,4l14 0 0 0zm34 -25c0,4 -3,8 -7,8l-81 0 0 -1 0 -17 78 0c3,0 5,-3 5,-5l0 -43c0,-3 -2,-4 -5,-4l-78 0 0 -1 0 -5 81 0c4,0 7,3 7,6l0 62z"/>
     <circle class="fil1" cx="188" cy="489" r="3"/>
     <path class="fil1" d="M149 515l0 6 -46 0 0 -6c0,0 -3,-1 -3,-2 0,0 -1,1 -1,1l0 8c0,1 2,2 5,2l45 0c2,0 4,-1 4,-2l0 -8c0,0 0,-1 0,-1 -1,1 -2,2 -4,2z"/>
     <circle class="fil1" cx="126" cy="499" r="3"/>
     <path class="fil1" d="M144 415c0,0 0,0 0,0l-33 0c-1,0 -1,0 -1,0 -2,0 -4,1 -4,3l0 0 0 9 0 0c0,1 2,2 4,3 0,0 0,0 1,0l33 0c0,0 0,0 0,0 2,-1 4,-2 4,-3l0 0 0 -9 0 0c0,-2 -2,-3 -4,-3zm-1 11l-32 0 0 -8 32 0 0 8z"/>
     <polygon class="fil1" points="111,463 111,464 142,464 142,463 142,461 111,461 "/>
     <polygon class="fil1" points="111,469 111,472 142,472 142,469 142,469 111,469 "/>
     <polygon class="fil1" points="111,476 111,478 142,478 142,476 142,475 111,475 "/>
     <polygon class="fil1" points="111,484 111,486 142,486 142,484 142,482 111,482 "/>
    </g>
   </g>
  </g>
  <polygon class="fil2" points="225,166 225,136 229,136 229,148 244,148 244,136 248,136 248,166 244,166 244,152 229,152 229,166 "/>
  <path id="1" class="fil2" d="M253 155c0,-4 1,-7 3,-9 2,-1 5,-2 7,-2 3,0 6,1 8,3 1,2 2,4 2,8 0,2 0,5 -1,6 -1,2 -2,3 -3,4 -2,1 -4,1 -6,1 -3,0 -5,-1 -7,-3 -2,-2 -3,-4 -3,-8zm4 0c0,3 1,5 2,6 1,2 2,2 4,2 2,0 4,0 5,-2 1,-1 2,-3 2,-6 0,-3 -1,-5 -2,-6 -1,-2 -3,-2 -5,-2 -2,0 -3,0 -4,2 -1,1 -2,3 -2,6z"/>
  <path id="2" class="fil2" d="M276 159l4 0c0,1 1,2 2,3 0,1 2,1 3,1 2,0 3,0 4,-1 1,0 1,-1 1,-2 0,-1 0,-2 -1,-2 0,0 -1,-1 -3,-1 -3,-1 -5,-2 -6,-2 -1,-1 -2,-1 -2,-2 -1,-1 -1,-2 -1,-3 0,-1 0,-2 1,-3 0,-1 1,-1 1,-2 1,0 2,-1 3,-1 1,0 2,0 3,0 2,0 3,0 4,0 2,1 2,2 3,2 1,1 1,2 1,4l-3 0c0,-1 -1,-2 -2,-2 0,-1 -2,-1 -3,-1 -2,0 -3,0 -4,1 0,0 -1,1 -1,1 0,1 1,1 1,2 0,0 1,0 1,1 1,0 2,0 3,1 3,0 5,1 6,1 1,1 2,1 2,2 1,1 1,2 1,3 0,2 0,3 -1,4 -1,1 -2,2 -3,2 -1,1 -3,1 -5,1 -2,0 -4,0 -6,-1 -1,-2 -2,-3 -3,-6z"/>
  <path id="3" class="fil2" d="M306 163l1 3c-1,0 -2,0 -3,0 -1,0 -2,0 -3,-1 -1,0 -1,-1 -1,-1 -1,-1 -1,-2 -1,-5l0 -12 -3 0 0 -3 3 0 0 -5 4 -2 0 7 3 0 0 3 -3 0 0 13c0,1 0,1 0,2 0,0 0,0 1,0 0,1 0,1 1,1 0,0 1,0 1,0z"/>
  <path id="4" class="fil2" d="M317 166l11 -30 4 0 13 30 -5 0 -3 -9 -13 0 -3 9 -4 0zm8 -12l10 0 -3 -9c-1,-2 -1,-4 -2,-6 0,2 -1,4 -2,6l-3 9z"/>
  <polygon class="fil2" points="221,541 221,512 225,512 225,524 240,524 240,512 244,512 244,541 240,541 240,527 225,527 225,541 "/>
  <path id="1" class="fil2" d="M249 531c0,-4 1,-7 3,-9 2,-2 4,-3 7,-3 3,0 6,1 7,3 2,2 3,5 3,8 0,3 0,5 -1,7 -1,2 -2,3 -4,4 -1,1 -3,1 -5,1 -3,0 -5,-1 -7,-3 -2,-2 -3,-5 -3,-8zm4 0c0,2 0,5 2,6 1,1 2,2 4,2 2,0 3,-1 5,-2 1,-2 1,-4 1,-6 0,-3 0,-5 -1,-6 -2,-2 -3,-3 -5,-3 -2,0 -3,1 -4,2 -2,2 -2,4 -2,7z"/>
  <path id="2" class="fil2" d="M272 535l4 -1c0,2 0,3 1,4 1,1 3,1 4,1 2,0 3,0 4,-1 1,-1 1,-2 1,-2 0,-1 0,-2 -1,-2 0,-1 -2,-1 -4,-2 -2,0 -4,-1 -5,-1 -1,-1 -2,-2 -2,-2 -1,-1 -1,-2 -1,-3 0,-1 0,-2 0,-3 1,-1 1,-2 2,-2 1,-1 2,-1 2,-1 1,0 3,-1 4,-1 1,0 3,1 4,1 1,1 2,1 3,2 1,1 1,2 1,3l-3 1c-1,-1 -1,-2 -2,-3 -1,0 -2,-1 -3,-1 -2,0 -3,1 -4,1 0,1 -1,1 -1,2 0,1 0,1 1,1 0,1 0,1 1,1 0,1 2,1 3,1 3,1 5,2 6,2 1,1 2,1 2,2 1,1 1,2 1,3 0,1 0,2 -1,4 -1,1 -2,1 -3,2 -1,1 -3,1 -5,1 -2,0 -5,-1 -6,-2 -2,-1 -3,-3 -3,-5z"/>
  <path id="3" class="fil2" d="M302 538l1 3c-1,1 -2,1 -3,1 -1,0 -2,0 -3,-1 -1,0 -1,-1 -2,-2 0,0 0,-2 0,-4l0 -12 -3 0 0 -3 3 0 0 -5 4 -3 0 8 3 0 0 3 -3 0 0 12c0,1 0,2 0,2 0,1 0,1 0,1 1,0 1,0 2,0 0,0 1,0 1,0z"/>
  <path id="4" class="fil2" d="M318 541l0 -29 11 0c2,0 4,0 5,1 2,0 3,1 4,2 1,2 1,3 1,4 0,2 0,3 -1,4 -1,1 -2,2 -3,3 2,0 3,1 4,2 1,2 1,3 1,5 0,1 0,3 -1,4 0,1 -1,2 -2,3 -1,0 -2,1 -3,1 -1,0 -3,0 -5,0l-11 0zm4 -17l6 0c2,0 3,0 4,0 1,0 2,-1 2,-2 1,0 1,-1 1,-2 0,-1 0,-2 -1,-3 0,-1 -1,-1 -2,-1 -1,-1 -2,-1 -4,-1l-6 0 0 9zm0 14l7 0c1,0 2,0 3,0 1,0 2,-1 2,-1 1,0 1,-1 2,-2 0,0 0,-1 0,-2 0,-1 0,-2 -1,-3 0,-1 -1,-1 -2,-2 -1,0 -2,0 -4,0l-7 0 0 10z"/>
 </g>
</svg>
