<?xml version="1.0" encoding="UTF-8"?>
<!DOCTYPE svg PUBLIC "-//W3C//DTD SVG 1.1//EN" "http://www.w3.org/Graphics/SVG/1.1/DTD/svg11.dtd">
<!-- Creator: CorelDRAW X7 -->
<svg xmlns="http://www.w3.org/2000/svg" xml:space="preserve" width="350px" height="600px" version="1.1" style="shape-rendering:geometricPrecision; text-rendering:geometricPrecision; image-rendering:optimizeQuality; fill-rule:evenodd; clip-rule:evenodd"
viewBox="0 0 350 600"
 xmlns:xlink="http://www.w3.org/1999/xlink"
 enable-background="new 0 0 100 100">
 <defs>
  <style type="text/css">
   <![CDATA[
    .str0 {stroke:#373435;stroke-width:7.38192}
    .fil0 {fill:black}
    .fil1 {fill:#373435}
    .fil2 {fill:#373435;fill-rule:nonzero}
   ]]>
  </style>
 </defs>
 <g id="Layer_x0020_1">
  <metadata id="CorelCorpID_0Corel-Layer"/>
  <path class="fil0" d="M170 46l-87 0 0 0 0 -13c0,-6 -7,-12 -13,-12l-41 0c-6,0 -10,6 -10,12l0 109c0,3 1,6 3,8 1,1 2,1 3,2 2,0 3,0 4,0l41 0c2,0 3,0 4,0 1,-1 3,-1 5,-2 2,-2 4,-5 4,-8l0 -6 24 0 1 0 0 10 -16 0c-2,0 -5,2 -5,4l0 8c0,2 3,3 5,3l49 0c3,0 5,-1 5,-3l0 -8c0,-2 -2,-4 -5,-4l-15 0 0 -10 44 0c7,0 13,-6 13,-12l0 -67c0,-6 -6,-11 -13,-11l0 0zm-91 95c0,1 0,2 0,3 -2,2 -5,4 -8,4l0 0 -40 0 0 0c-4,0 -7,-2 -8,-4 0,-1 0,-2 0,-3l0 -108c0,-1 0,-2 0,-3 1,-2 4,-5 8,-5l0 0 40 0 0 0c3,0 6,3 8,5 0,1 0,2 0,3l0 108zm4 -32l0 -48 84 0c1,0 1,0 1,0l0 47c0,0 0,1 -1,1l-84 0 0 0zm58 41l0 7 -50 0 0 -7 16 0c2,0 6,-2 6,-4l0 -10 9 0 0 0 0 10c0,2 2,4 4,4l15 0 0 0zm38 -26c0,4 -5,8 -9,8l-87 0 0 -1 0 -18 84 0c3,0 5,-2 5,-5l0 -47c0,-2 -2,-5 -5,-5l-84 0 0 -1 0 -5 87 0c4,0 9,3 9,7l0 67 0 0z"/>
  <circle class="fil0" cx="117" cy="122" r="3"/>
  <path class="fil0" d="M74 151l0 6 -50 0 0 -6c0,-1 -2,-2 -3,-3 0,1 0,1 0,2l0 8c0,2 2,3 4,3l49 0c2,0 5,-1 5,-3l0 -8c0,-1 0,-1 0,-2 -2,1 -3,2 -5,3l0 0z"/>
  <circle class="fil0" cx="50" cy="134" r="3"/>
  <path class="fil0" d="M70 43c-1,0 -1,0 -1,0l-36 0c0,0 0,0 -1,0 -1,0 -4,1 -4,3l0 0 0 9 0 0c0,1 3,4 4,4 0,0 1,0 1,0l36 0c0,0 0,0 1,0 1,0 2,-3 2,-4l0 0 0 -9 0 0c0,-2 -1,-3 -2,-3zm-1 11l-36 0 0 -8 36 0 0 8z"/>
  <polygon class="fil0" points="33,94 33,96 67,96 67,94 67,92 33,92 "/>
  <polygon class="fil0" points="33,101 33,104 67,104 67,101 67,100 33,100 "/>
  <polygon class="fil0" points="33,110 33,111 67,111 67,110 67,106 33,106 "/>
  <polygon class="fil0" points="33,117 33,119 67,119 67,117 67,115 33,115 "/>
  <path class="fil0" d="M170 234l-87 0 0 0 0 -12c0,-7 -7,-12 -13,-12l-41 0c-6,0 -10,5 -10,12l0 108c0,4 1,7 3,9 1,1 2,1 3,2 2,0 3,0 4,0l41 0c2,0 3,0 4,0 1,-1 3,-1 5,-2 2,-2 4,-5 4,-9l0 -6 24 0 1 0 0 11 -16 0c-2,0 -5,2 -5,4l0 7c0,3 3,4 5,4l49 0c3,0 5,-1 5,-4l0 -7c0,-2 -2,-4 -5,-4l-15 0 0 -11 44 0c7,0 13,-5 13,-12l0 -66c0,-6 -6,-12 -13,-12l0 0zm-91 95c0,1 0,2 0,4 -2,2 -5,4 -8,4l0 0 -40 0 0 0c-4,0 -7,-2 -8,-4 0,-2 0,-3 0,-4l0 -107c0,-1 0,-2 0,-4 1,-2 4,-4 8,-4l0 0 40 0 0 0c3,0 6,2 8,4 0,2 0,3 0,4l0 107zm4 -32l0 -48 84 0c1,0 1,0 1,0l0 47c0,0 0,1 -1,1l-84 0 0 0zm58 42l0 6 -50 0 0 -6 16 0c2,0 6,-2 6,-4l0 -11 9 0 0 0 0 11c0,2 2,4 4,4l15 0 0 0zm38 -27c0,5 -5,9 -9,9l-87 0 0 -1 0 -18 84 0c3,0 5,-4 5,-6l0 -47c0,-2 -2,-4 -5,-4l-84 0 0 -1 0 -5 87 0c4,0 9,3 9,7l0 66 0 0z"/>
  <circle class="fil0" cx="117" cy="311" r="3"/>
  <path class="fil0" d="M74 339l0 6 -50 0 0 -6c0,0 -2,-1 -3,-2 0,1 0,1 0,2l0 7c0,3 2,4 4,4l49 0c2,0 5,-1 5,-4l0 -7c0,-1 0,-1 0,-2 -2,1 -3,2 -5,2l0 0z"/>
  <circle class="fil0" cx="50" cy="323" r="3"/>
  <path class="fil0" d="M70 231c-1,0 -1,0 -1,0l-36 0c0,0 0,0 -1,0 -1,0 -4,1 -4,3l0 0 0 10 0 0c0,1 3,3 4,3 0,0 1,0 1,0l36 0c0,0 0,0 1,0 1,0 2,-2 2,-3l0 0 0 -10 0 0c0,-2 -1,-3 -2,-3zm-1 12l-36 0 0 -9 36 0 0 9z"/>
  <polygon class="fil0" points="33,282 33,285 67,285 67,282 67,280 33,280 "/>
  <polygon class="fil0" points="33,290 33,293 67,293 67,290 67,289 33,289 "/>
  <polygon class="fil0" points="33,298 33,299 67,299 67,298 67,295 33,295 "/>
  <polygon class="fil0" points="33,306 33,308 67,308 67,306 67,304 33,304 "/>
  <path class="fil0" d="M170 416l-87 0 0 0 0 -13c0,-7 -7,-12 -13,-12l-41 0c-6,0 -10,5 -10,12l0 109c0,3 1,6 3,8 1,1 2,1 3,2 2,0 3,0 4,0l41 0c2,0 3,0 4,0 1,-1 3,-1 5,-2 2,-2 4,-5 4,-8l0 -7 24 0 1 0 0 11 -16 0c-2,0 -5,2 -5,4l0 8c0,2 3,3 5,3l49 0c3,0 5,-1 5,-3l0 -8c0,-2 -2,-4 -5,-4l-15 0 0 -11 44 0c7,0 13,-5 13,-11l0 -67c0,-6 -6,-11 -13,-11l0 0zm-91 95c0,1 0,2 0,3 -2,2 -5,4 -8,4l0 0 -40 0 0 0c-4,0 -7,-2 -8,-4 0,-1 0,-2 0,-3l0 -108c0,-1 0,-2 0,-3 1,-2 4,-5 8,-5l0 0 40 0 0 0c3,0 6,3 8,5 0,1 0,2 0,3l0 108zm4 -32l0 -48 84 0c1,0 1,0 1,0l0 47c0,0 0,1 -1,1l-84 0 0 0zm58 41l0 7 -50 0 0 -7 16 0c2,0 6,-2 6,-4l0 -11 9 0 0 0 0 11c0,2 2,4 4,4l15 0 0 0zm38 -26c0,4 -5,8 -9,8l-87 0 0 -1 0 -18 84 0c3,0 5,-3 5,-5l0 -47c0,-3 -2,-5 -5,-5l-84 0 0 -1 0 -5 87 0c4,0 9,3 9,7l0 67 0 0z"/>
  <circle class="fil0" cx="117" cy="492" r="3"/>
  <path class="fil0" d="M74 520l0 7 -50 0 0 -7c0,0 -2,-1 -3,-2 0,1 0,1 0,2l0 8c0,2 2,3 4,3l49 0c2,0 5,-1 5,-3l0 -8c0,-1 0,-1 0,-2 -2,1 -3,2 -5,2l0 0z"/>
  <circle class="fil0" cx="50" cy="504" r="3"/>
  <path class="fil0" d="M70 412c-1,0 -1,0 -1,0l-36 0c0,0 0,0 -1,0 -1,0 -4,2 -4,4l0 0 0 9 0 0c0,1 3,3 4,3 0,0 1,0 1,0l36 0c0,0 0,0 1,0 1,0 2,-2 2,-3l0 0 0 -9 0 0c0,-2 -1,-4 -2,-4zm-1 12l-36 0 0 -8 36 0 0 8z"/>
  <polygon class="fil0" points="33,464 33,466 67,466 67,464 67,462 33,462 "/>
  <polygon class="fil0" points="33,471 33,474 67,474 67,471 67,470 33,470 "/>
  <polygon class="fil0" points="33,480 33,481 67,481 67,480 67,476 33,476 "/>
  <polygon class="fil0" points="33,487 33,489 67,489 67,487 67,485 33,485 "/>
  <rect class="fil1 str0" x="183" y="84" width="123.681" height="26.6557"/>
  <rect class="fil1 str0" x="183" y="269" width="123.681" height="26.6557"/>
  <rect class="fil1 str0" x="184" y="448" width="121.999" height="26.6557"/>
  <rect class="fil1 str0" x="298" y="84" width="29.8545" height="390.768"/>
  <polygon class="fil2" points="36,198 36,174 40,174 40,184 52,184 52,174 55,174 55,198 52,198 52,187 40,187 40,198 "/>
  <path id="1" class="fil2" d="M59 186c0,-4 2,-7 4,-9 2,-2 5,-3 8,-3 2,0 4,0 6,1 2,1 3,3 4,5 1,2 1,4 1,6 0,2 0,5 -1,7 -1,1 -3,3 -4,4 -2,1 -4,1 -6,1 -2,0 -4,0 -6,-1 -2,-1 -3,-3 -4,-5 -1,-2 -2,-4 -2,-6zm4 0c0,3 1,6 2,7 2,2 4,3 6,3 2,0 4,-1 6,-3 1,-2 2,-4 2,-7 0,-2 0,-4 -1,-5 -1,-1 -2,-3 -3,-3 -1,-1 -3,-2 -4,-2 -2,0 -4,1 -6,3 -1,1 -2,4 -2,7z"/>
  <path id="2" class="fil2" d="M85 190l3 0c0,1 1,2 1,3 1,1 2,1 3,2 1,0 2,1 3,1 2,0 3,-1 4,-1 0,0 1,-1 2,-1 0,-1 0,-2 0,-3 0,0 0,-1 0,-1 -1,-1 -2,-2 -3,-2 0,0 -2,-1 -4,-1 -2,-1 -4,-1 -4,-2 -2,0 -2,-1 -3,-2 0,-1 -1,-2 -1,-3 0,-1 1,-2 1,-3 1,-1 2,-2 3,-3 2,0 3,0 5,0 1,0 3,0 4,1 2,0 3,1 3,2 1,1 2,2 2,4l-3 0c-1,-1 -1,-3 -2,-3 -1,-1 -2,-2 -4,-2 -2,0 -4,1 -4,2 -1,0 -2,1 -2,2 0,1 1,2 1,2 1,1 2,1 5,2 3,0 4,1 5,1 2,1 3,2 3,3 1,1 1,2 1,3 0,1 0,3 -1,4 -1,1 -2,2 -3,2 -1,1 -3,1 -5,1 -2,0 -3,0 -5,-1 -1,0 -3,-1 -3,-2 -1,-2 -2,-3 -2,-5z"/>
  <polygon id="3" class="fil2" points="115,198 115,177 107,177 107,174 126,174 126,177 118,177 118,198 "/>
  <path id="4" class="fil2" d="M159 198l-5 0 -2 -5 -10 0 -2 5 -5 0 9 -24 5 0 10 24zm-9 -10l-3 -8 -3 8 6 0z"/>
  <polygon class="fil2" points="37,382 37,358 40,358 40,368 52,368 52,358 55,358 55,382 52,382 52,371 40,371 40,382 "/>
  <path id="1" class="fil2" d="M60 370c0,-4 1,-7 3,-9 2,-2 5,-3 8,-3 2,0 4,0 6,1 2,1 3,3 4,5 1,2 2,4 2,6 0,2 -1,5 -2,7 -1,1 -2,3 -4,4 -2,1 -4,1 -6,1 -2,0 -4,0 -6,-1 -2,-1 -3,-3 -4,-5 -1,-2 -1,-4 -1,-6zm3 0c0,3 1,6 2,7 2,2 4,3 6,3 3,0 4,-1 6,-3 2,-2 2,-4 2,-7 0,-2 0,-4 -1,-5 0,-1 -1,-3 -3,-3 -1,-1 -2,-2 -4,-2 -2,0 -4,1 -6,3 -1,1 -2,4 -2,7z"/>
  <path id="2" class="fil2" d="M86 374l3 0c0,1 0,2 1,3 0,1 1,1 2,2 1,0 2,1 4,1 1,0 2,-1 3,-1 1,0 1,-1 2,-1 0,-1 1,-2 1,-3 0,0 -1,-1 -1,-1 -1,-1 -1,-2 -2,-2 -1,0 -2,-1 -5,-1 -2,-1 -3,-1 -4,-2 -1,0 -2,-1 -3,-2 0,-1 -1,-2 -1,-3 0,-1 1,-2 2,-3 0,-1 1,-2 3,-3 1,0 2,0 4,0 2,0 3,0 5,1 1,0 2,1 3,2 0,1 1,2 1,4l-3 0c0,-1 -1,-3 -2,-3 -1,-1 -2,-2 -4,-2 -2,0 -3,1 -4,2 -1,0 -1,1 -1,2 0,1 0,2 0,2 1,1 3,1 5,2 3,0 5,1 5,1 2,1 3,2 4,3 0,1 1,2 1,3 0,1 -1,3 -2,4 0,1 -1,2 -3,2 -1,1 -3,1 -4,1 -2,0 -4,0 -6,-1 -1,0 -2,-1 -3,-2 -1,-2 -1,-3 -1,-5z"/>
  <polygon id="3" class="fil2" points="115,382 115,361 107,361 107,358 126,358 126,361 118,361 118,382 "/>
  <path id="4" class="fil2" d="M138 358l9 0c2,0 4,0 5,0 0,0 1,1 2,1 1,1 1,1 2,2 0,1 1,2 1,3 0,1 -1,2 -1,3 -1,1 -2,2 -3,2 2,1 3,1 4,2 0,1 1,3 1,4 0,1 -1,2 -1,3 -1,1 -1,2 -2,3 -1,0 -2,1 -3,1 -1,0 -3,0 -6,0l-8 0 0 -24zm5 4l0 6 3 0c2,0 3,0 3,-1 1,0 2,0 2,0 1,-1 1,-1 1,-2 0,-1 0,-2 -1,-2 0,-1 -1,-1 -2,-1 0,0 -1,0 -4,0l-2 0zm0 10l0 6 4 0c2,0 3,0 3,0 1,0 2,-1 2,-1 1,-1 1,-1 1,-2 0,-1 0,-2 -1,-2 0,-1 -1,-1 -1,-1 -1,0 -2,0 -5,0l-3 0z"/>
  <polygon class="fil2" points="37,570 37,546 40,546 40,556 52,556 52,546 55,546 55,570 52,570 52,559 40,559 40,570 "/>
  <path id="1" class="fil2" d="M60 558c0,-4 1,-7 3,-9 2,-2 5,-3 8,-3 2,0 4,0 6,1 2,1 3,3 4,5 1,2 2,4 2,6 0,2 -1,5 -2,7 -1,1 -2,3 -4,4 -2,1 -4,1 -6,1 -2,0 -4,0 -6,-1 -2,-1 -3,-3 -4,-5 -1,-2 -1,-4 -1,-6zm3 0c0,3 1,6 2,7 2,2 4,3 6,3 3,0 4,-1 6,-3 2,-2 2,-4 2,-7 0,-2 0,-4 -1,-5 0,-1 -1,-3 -3,-3 -1,-1 -2,-2 -4,-2 -2,0 -4,1 -6,3 -1,1 -2,4 -2,7z"/>
  <path id="2" class="fil2" d="M86 562l3 0c0,1 0,2 1,3 0,1 1,1 2,2 1,0 2,1 4,1 1,0 2,-1 3,-1 1,0 1,-1 2,-1 0,-1 1,-2 1,-3 0,0 -1,-1 -1,-1 -1,-1 -1,-2 -2,-2 -1,0 -2,-1 -5,-1 -2,-1 -3,-1 -4,-2 -1,0 -2,-1 -3,-2 0,-1 -1,-2 -1,-3 0,-1 1,-2 2,-3 0,-1 1,-2 3,-3 1,0 2,0 4,0 2,0 3,0 5,1 1,0 2,1 3,2 0,1 1,2 1,4l-3 0c0,-1 -1,-3 -2,-3 -1,-1 -2,-2 -4,-2 -2,0 -3,1 -4,2 -1,0 -1,1 -1,2 0,1 0,2 0,2 1,1 3,1 5,2 3,0 5,1 5,1 2,1 3,2 4,3 0,1 1,2 1,3 0,1 -1,3 -2,4 0,1 -1,2 -3,2 -1,1 -3,1 -4,1 -2,0 -4,0 -6,-1 -1,0 -2,-1 -3,-2 -1,-2 -1,-3 -1,-5z"/>
  <polygon id="3" class="fil2" points="115,570 115,549 107,549 107,546 126,546 126,549 118,549 118,570 "/>
  <path id="4" class="fil2" d="M153 561l5 2c-1,2 -2,4 -4,5 -2,2 -4,2 -6,2 -3,0 -6,-1 -8,-3 -2,-2 -3,-5 -3,-9 0,-4 1,-7 3,-9 2,-2 5,-3 8,-3 3,0 5,1 7,2 1,1 2,3 3,5l-5 1c0,-1 -1,-2 -2,-3 -1,-1 -2,-1 -3,-1 -2,0 -3,0 -5,2 -1,1 -1,3 -1,6 0,3 0,5 1,6 2,2 3,2 5,2 1,0 2,0 3,-1 1,-1 2,-2 2,-4z"/>
 </g>
</svg>
