<?xml version="1.0" encoding="UTF-8"?>
<!DOCTYPE svg PUBLIC "-//W3C//DTD SVG 1.1//EN" "http://www.w3.org/Graphics/SVG/1.1/DTD/svg11.dtd">
<!-- Creator: CorelDRAW X7 -->
<svg xmlns="http://www.w3.org/2000/svg" xml:space="preserve" width="140px" height="176px" version="1.1" style="shape-rendering:geometricPrecision; text-rendering:geometricPrecision; image-rendering:optimizeQuality; fill-rule:evenodd; clip-rule:evenodd"
viewBox="0 0 172 215"
 xmlns:xlink="http://www.w3.org/1999/xlink"
 enable-background="new 0 0 100 100">
 <defs>
  <style type="text/css">
   <![CDATA[
    .str0 {stroke:#373435;stroke-width:2.89179}
    .fil1 {fill:#373435}
    .fil0 {fill:black}
   ]]>
  </style>
 </defs>
 <g id="Layer_x0020_1">
  <metadata id="CorelCorpID_0Corel-Layer"/>
  <g id="_558801082080">
   <g>
    <path class="fil0" d="M166 12l-44 0 0 0 0 -6c0,-4 -3,-6 -6,-6l-20 0c-3,0 -5,2 -5,6l0 53c0,2 0,3 1,4 1,1 2,1 2,1 1,1 2,0 2,0l20 0c1,0 2,1 2,0 1,0 2,0 2,-1 2,-1 2,-2 2,-4l0 -3 12 0 1 0 0 5 -8 0c-1,0 -2,1 -2,2l0 4c0,1 1,2 2,2l24 0c1,0 2,-1 2,-2l0 -4c0,-1 -1,-2 -2,-2l-7 0 0 -5 22 0c3,0 6,-2 6,-6l0 -32c0,-3 -3,-6 -6,-6zm-46 47c0,0 0,1 0,1 0,1 -2,2 -3,2l0 0 -20 0 0 0c-2,0 -3,-1 -4,-2 0,0 0,-1 0,-1l0 -53c0,-1 0,-1 0,-2 1,-1 2,-2 4,-2l0 0 20 0 0 0c1,0 3,1 3,2 0,1 0,1 0,2l0 53zm2 -16l0 -24 42 0c0,0 0,0 0,0l0 23c0,1 0,1 0,1l-42 0 0 0zm29 20l0 4 -24 0 0 -4 7 0c1,0 3,-1 3,-2l0 -5 5 0 0 0 0 5c0,1 1,2 2,2l7 0zm19 -13c0,2 -2,4 -4,4l-44 0 0 0 0 -9 42 0c1,0 2,-1 2,-3l0 -23c0,-1 -1,-2 -2,-2l-42 0 0 0 0 -3 44 0c2,0 4,2 4,4l0 32z"/>
    <circle class="fil0" cx="139" cy="50" r="2"/>
    <path class="fil0" d="M118 64l0 3 -24 0 0 -3c0,-1 -2,-1 -2,-2 0,1 0,1 0,1l0 4c0,1 1,2 2,2l24 0c1,0 2,-1 2,-2l0 -4c0,0 0,0 0,-1 0,1 -1,1 -2,2z"/>
    <circle class="fil0" cx="106" cy="55" r="2"/>
    <path class="fil0" d="M116 10c0,0 0,0 -1,0l-17 0c0,0 0,0 -1,0 0,0 -1,1 -1,2l0 0 0 5 0 0c0,0 1,1 1,1 1,0 1,0 1,0l17 0c1,0 1,0 1,0 1,0 1,-1 1,-1l0 0 0 -5 0 0c0,-1 0,-2 -1,-2zm-1 6l-17 0 0 -4 17 0 0 4z"/>
    <polygon class="fil0" points="98,36 98,37 114,37 114,36 114,35 98,35 "/>
    <polygon class="fil0" points="98,39 98,41 114,41 114,39 114,39 98,39 "/>
    <polygon class="fil0" points="98,43 98,44 114,44 114,43 114,42 98,42 "/>
    <polygon class="fil0" points="98,47 98,48 114,48 114,47 114,46 98,46 "/>
   </g>
  </g>
  <g id="_558801084064">
   <g>
    <path class="fil0" d="M166 85l-44 0 0 0 0 -6c0,-3 -3,-6 -6,-6l-20 0c-3,0 -5,3 -5,6l0 53c0,2 0,4 1,5 1,0 2,0 2,1 1,0 2,0 2,0l20 0c1,0 2,0 2,0 1,-1 2,-1 2,-1 2,-2 2,-3 2,-5l0 -3 12 0 1 0 0 6 -8 0c-1,0 -2,0 -2,1l0 4c0,1 1,2 2,2l24 0c1,0 2,-1 2,-2l0 -4c0,-1 -1,-1 -2,-1l-7 0 0 -6 22 0c3,0 6,-2 6,-5l0 -33c0,-3 -3,-6 -6,-6zm-46 47c0,0 0,1 0,1 0,2 -2,3 -3,3l0 0 -20 0 0 0c-2,0 -3,-1 -4,-3 0,0 0,-1 0,-1l0 -53c0,-1 0,-1 0,-1 1,-2 2,-3 4,-3l0 0 20 0 0 0c1,0 3,1 3,3 0,0 0,0 0,1l0 53zm2 -16l0 -23 42 0c0,0 0,-1 0,0l0 23c0,0 0,0 0,0l-42 0 0 0zm29 21l0 3 -24 0 0 -3 7 0c1,0 3,-1 3,-2l0 -6 5 0 0 0 0 6c0,1 1,2 2,2l7 0zm19 -13c0,2 -2,3 -4,3l-44 0 0 0 0 -9 42 0c1,0 2,-1 2,-2l0 -23c0,-2 -1,-2 -2,-2l-42 0 0 -1 0 -2 44 0c2,0 4,1 4,3l0 33z"/>
    <circle class="fil0" cx="139" cy="123" r="2"/>
    <path class="fil0" d="M118 137l0 3 -24 0 0 -3c0,0 -2,-1 -2,-1 0,0 0,0 0,0l0 4c0,1 1,2 2,2l24 0c1,0 2,-1 2,-2l0 -4c0,0 0,0 0,0 0,0 -1,1 -2,1z"/>
    <circle class="fil0" cx="106" cy="129" r="2"/>
    <path class="fil0" d="M116 83c0,0 0,0 -1,0l-17 0c0,0 0,0 -1,0 0,1 -1,1 -1,2l0 0 0 5 0 0c0,1 1,1 1,2 1,0 1,0 1,0l17 0c1,0 1,0 1,0 1,-1 1,-1 1,-2l0 0 0 -5 0 0c0,-1 0,-1 -1,-2zm-1 7l-17 0 0 -5 17 0 0 5z"/>
    <polygon class="fil0" points="98,109 98,110 114,110 114,109 114,108 98,108 "/>
    <polygon class="fil0" points="98,113 98,114 114,114 114,113 114,112 98,112 "/>
    <polygon class="fil0" points="98,116 98,117 114,117 114,116 114,115 98,115 "/>
    <polygon class="fil0" points="98,120 98,121 114,121 114,120 114,119 98,119 "/>
   </g>
  </g>
  <g id="_558801088512">
   <g>
    <path class="fil0" d="M166 159l-44 0 0 0 0 -7c0,-3 -3,-5 -6,-5l-20 0c-3,0 -5,2 -5,5l0 54c0,2 0,3 1,4 1,1 2,1 2,1 1,0 2,0 2,0l20 0c1,0 2,0 2,0 1,0 2,-1 2,-1 2,-1 2,-2 2,-4l0 -3 12 0 1 0 0 5 -8 0c-1,0 -2,1 -2,2l0 4c0,1 1,1 2,1l24 0c1,0 2,0 2,-1l0 -4c0,-1 -1,-2 -2,-2l-7 0 0 -5 22 0c3,0 6,-3 6,-6l0 -33c0,-3 -3,-5 -6,-5zm-46 46c0,1 0,1 0,2 0,1 -2,2 -3,2l0 0 -20 0 0 0c-2,0 -3,-1 -4,-2 0,-1 0,-1 0,-2l0 -53c0,0 0,-1 0,-1 1,-1 2,-2 4,-2l0 0 20 0 0 0c1,0 3,1 3,2 0,0 0,1 0,1l0 53zm2 -16l0 -23 42 0c0,0 0,0 0,0l0 23c0,0 0,1 0,1l-42 0 0 -1zm29 21l0 3 -24 0 0 -3 7 0c1,0 3,-1 3,-2l0 -5 5 0 0 0 0 5c0,1 1,2 2,2l7 0zm19 -13c0,2 -2,4 -4,4l-44 0 0 0 0 -9 42 0c1,0 2,-2 2,-3l0 -23c0,-1 -1,-2 -2,-2l-42 0 0 0 0 -3 44 0c2,0 4,1 4,3l0 33z"/>
    <circle class="fil0" cx="139" cy="196" r="2"/>
    <path class="fil0" d="M118 210l0 3 -24 0 0 -3c0,0 -2,0 -2,-1 0,0 0,1 0,1l0 4c0,1 1,1 2,1l24 0c1,0 2,0 2,-1l0 -4c0,0 0,-1 0,-1 0,1 -1,1 -2,1z"/>
    <circle class="fil0" cx="106" cy="202" r="2"/>
    <path class="fil0" d="M116 157c0,0 0,0 -1,0l-17 0c0,0 0,0 -1,0 0,0 -1,1 -1,2l0 0 0 4 0 0c0,1 1,2 1,2 1,0 1,0 1,0l17 0c1,0 1,0 1,0 1,0 1,-1 1,-2l0 0 0 -4 0 0c0,-1 0,-2 -1,-2zm-1 6l-17 0 0 -4 17 0 0 4z"/>
    <polygon class="fil0" points="98,182 98,183 114,183 114,182 114,181 98,181 "/>
    <polygon class="fil0" points="98,186 98,188 114,188 114,186 114,186 98,186 "/>
    <polygon class="fil0" points="98,190 98,191 114,191 114,190 114,189 98,189 "/>
    <polygon class="fil0" points="98,194 98,195 114,195 114,194 114,193 98,193 "/>
   </g>
  </g>
  <rect class="fil1 str0" x="12" y="32" width="78.3124" height="14.469"/>
  <rect class="fil1 str0" x="12" y="106" width="78.3124" height="14.469"/>
  <rect class="fil1 str0" x="12" y="179" width="78.3124" height="14.469"/>
  <rect class="fil1 str0" x="1" y="32" width="11.0177" height="161.372"/>
 </g>
</svg>
