<?xml version="1.0" encoding="UTF-8"?>
<!DOCTYPE svg PUBLIC "-//W3C//DTD SVG 1.1//EN" "http://www.w3.org/Graphics/SVG/1.1/DTD/svg11.dtd">
<!-- Creator: CorelDRAW X7 -->
<svg xmlns="http://www.w3.org/2000/svg" xml:space="preserve" width="350px" height="600px" version="1.1" style="shape-rendering:geometricPrecision; text-rendering:geometricPrecision; image-rendering:optimizeQuality; fill-rule:evenodd; clip-rule:evenodd"
viewBox="0 0 350 600"
 xmlns:xlink="http://www.w3.org/1999/xlink"
 enable-background="new 0 0 90 90">
 <defs>
  <style type="text/css">
   <![CDATA[
    .str0 {stroke:#373435;stroke-width:0.900004}
    .fil3 {fill:#D2D3D5}
    .fil1 {fill:#373435}
    .fil2 {fill:#F58634}
    .fil0 {fill:#CCE7D4}
    .fil4 {fill:black}
    .fil6 {fill:#373435;fill-rule:nonzero}
    .fil5 {fill:#3E4095;fill-rule:nonzero}
   ]]>
  </style>
 </defs>
 <g id="Layer_x0020_1">
  <metadata id="CorelCorpID_0Corel-Layer"/>
  <rect class="fil0" x="29" y="280" width="284" height="308"/>
  <rect class="fil1 str0" x="198" y="314" width="74.5421" height="18.5422"/>
  <rect class="fil1 str0" transform="matrix(1.6381E-014 -0.740489 1 3.17076E-014 63.4987 522.002)" width="123.381" height="18.5422"/>
  <rect class="fil1 str0" x="77" y="503" width="74.5421" height="18.5422"/>
  <rect class="fil1 str0" x="198" y="503" width="74.5421" height="18.5422"/>
  <rect class="fil1 str0" transform="matrix(1.6381E-014 -0.53764 1 2.30216E-014 253.5 507.337)" width="123.381" height="18.5422"/>
  <rect class="fil1 str0" transform="matrix(1.6381E-014 -0.53764 1 2.30216E-014 253.5 397.502)" width="123.381" height="18.5422"/>
  <rect class="fil2" y="404" width="49.9998" height="18.5422"/>
  <rect class="fil1 str0" transform="matrix(1.6381E-014 -1.24171 1 5.31699E-014 163.458 494.205)" width="123.381" height="18.5422"/>
  <rect class="fil3" x="7" y="20" width="326" height="190"/>
  <rect class="fil2" transform="matrix(1.6381E-014 -1.00908 1 4.32084E-014 163.458 295.501)" width="123.381" height="18.5422"/>
  <rect class="fil1 str0" x="102" y="63" width="137.709" height="18.5422"/>
  <rect class="fil1 str0" transform="matrix(1.6381E-014 -0.576861 1 2.4701E-014 263.5 161.813)" width="123.381" height="18.5422"/>
  <rect class="fil1 str0" transform="matrix(1.6381E-014 -0.57687 1 2.47014E-014 63.4574 161.813)" width="123.381" height="18.5422"/>
  <rect class="fil1 str0" x="203" y="143" width="74.5432" height="18.5422"/>
  <rect class="fil1 str0" x="73" y="143" width="76.3125" height="18.5422"/>
  <g id="_210435947696">
   <path class="fil4" d="M172 165c-14,0 -26,-4 -32,-12l0 9c0,10 14,18 32,18 17,0 31,-8 31,-18l0 -9c-5,8 -17,12 -31,12z"/>
   <path class="fil4" d="M149 156c13,7 33,7 45,0 13,-7 13,-18 0,-25 -12,-7 -32,-7 -45,0 -12,7 -12,18 0,25zm16 -20l3 -2 -2 6 -11 1 3 -1 -8 -5 7 -4 8 5zm26 4l-3 -2 -8 5 -7 -4 8 -5 -3 -2 11 1 2 7zm-12 11l-4 2 2 -6 11 -1 -3 2 8 4 -6 4 -8 -5zm-25 3l-2 -7 4 2 8 -5 6 4 -8 5 3 2 -11 -1z"/>
  </g>
  <path class="fil5" d="M202 200l-3 0 0 -19c-1,1 -2,2 -3,2 -1,1 -2,1 -3,2l0 -3c2,-1 3,-2 4,-3 1,-1 2,-2 3,-3l2 0 0 24z"/>
  <path id="1" class="fil5" d="M221 198c-1,1 -2,1 -3,2 -1,0 -2,0 -3,0 -2,0 -4,0 -5,-1 -1,-1 -1,-2 -1,-4 0,-1 0,-1 0,-2 1,-1 1,-1 2,-2 1,0 1,0 2,-1 1,0 1,0 3,0 2,0 4,-1 5,-1 0,-1 0,-1 0,-1 0,-1 -1,-2 -1,-2 -1,-1 -2,-1 -3,-1 -2,0 -3,0 -3,0 -1,1 -2,2 -2,3l-3 0c1,-2 1,-3 2,-3 0,-1 1,-2 2,-2 1,-1 3,-1 4,-1 2,0 3,0 4,1 1,0 1,0 2,1 0,1 0,1 1,2 0,1 0,1 0,3l0 4c0,2 0,4 0,5 0,0 0,1 1,2l-3 0c-1,-1 -1,-1 -1,-2zm0 -7c-1,1 -3,1 -5,1 -1,0 -2,1 -3,1 0,0 0,0 -1,1 0,0 0,1 0,1 0,1 0,2 1,2 0,1 1,1 2,1 1,0 2,0 3,-1 1,0 2,-1 2,-2 1,0 1,-1 1,-3l0 -1z"/>
  <g id="_210435944944">
   <path class="fil4" d="M75 89c-14,0 -26,-5 -32,-12l0 9c0,10 14,18 32,18 18,0 32,-8 32,-18l0 -9c-6,7 -18,12 -32,12z"/>
   <path class="fil4" d="M53 80c12,7 32,7 44,0 13,-7 13,-18 0,-25 -12,-8 -32,-8 -44,0 -13,7 -13,18 0,25zm15 -20l3 -2 -1 6 -12 1 4 -2 -8 -4 6 -4 8 5zm26 4l-3 -2 -8 4 -6 -3 8 -5 -4 -2 12 1 1 7zm-12 11l-3 2 1 -7 12 -1 -4 2 8 5 -6 4 -8 -5zm-25 2l-1 -6 3 2 8 -5 6 4 -8 4 4 2 -12 -1z"/>
  </g>
  <g id="_210435946416">
   <path class="fil4" d="M272 89c-14,0 -26,-5 -32,-12l0 9c0,10 14,18 32,18 18,0 32,-8 32,-18l0 -9c-6,7 -18,12 -32,12z"/>
   <path class="fil4" d="M250 80c12,7 32,7 44,0 13,-7 13,-18 0,-25 -12,-8 -32,-8 -44,0 -13,7 -13,18 0,25zm15 -20l3 -2 -1 6 -12 1 4 -2 -8 -4 6 -4 8 5zm26 4l-3 -2 -8 4 -6 -3 8 -5 -4 -2 12 1 1 7zm-12 11l-3 2 1 -7 12 -1 -4 2 8 5 -6 4 -8 -5zm-25 2l-1 -6 3 2 8 -5 6 4 -8 4 4 2 -12 -1z"/>
  </g>
  <path class="fil5" d="M302 130l-3 0 0 -19c-1,1 -2,2 -3,2 -1,1 -2,2 -3,2l0 -3c1,-1 3,-2 4,-3 1,-1 2,-2 3,-3l2 0 0 24z"/>
  <path id="1" class="fil5" d="M321 124l3 0c-1,2 -1,4 -3,5 -1,1 -2,2 -4,2 -3,0 -5,-1 -6,-3 -1,-1 -2,-4 -2,-6 0,-2 0,-4 1,-5 0,-2 1,-3 3,-3 1,-1 2,-2 4,-2 2,0 3,1 4,2 1,1 2,2 2,4l-2 0c-1,-1 -1,-2 -2,-2 0,-1 -1,-1 -2,-1 -2,0 -3,0 -4,1 -1,2 -1,3 -1,5 0,3 0,4 1,6 1,1 2,1 4,1 1,0 2,0 2,-1 1,-1 2,-2 2,-3z"/>
  <path class="fil5" d="M32 120l-3 0 0 -19c-1,1 -2,2 -3,2 -1,1 -2,1 -3,2l0 -3c1,-1 3,-2 4,-3 1,-1 2,-2 3,-3l2 0 0 24z"/>
  <path id="1" class="fil5" d="M42 120l-2 0 0 -24 3 0 0 9c1,-2 2,-3 4,-3 1,0 2,1 3,1 1,0 2,1 3,2 0,1 1,1 1,3 0,1 1,2 1,3 0,3 -1,5 -3,7 -1,2 -3,2 -5,2 -2,0 -3,-1 -5,-2l0 2zm0 -9c0,2 1,4 1,5 1,1 2,2 4,2 1,0 2,-1 3,-2 1,-1 2,-2 2,-5 0,-2 -1,-4 -2,-5 -1,-1 -2,-1 -3,-1 -1,0 -2,0 -3,1 -1,1 -2,3 -2,5z"/>
  <path class="fil6" d="M143 53l9 -24 4 0 9 24 -3 0 -3 -7 -10 0 -3 7 -3 0zm7 -10l8 0 -2 -7c-1,-2 -2,-3 -2,-5 -1,2 -1,3 -2,5l-2 7z"/>
  <path id="1" class="fil6" d="M167 45l3 0c0,1 0,2 1,3 0,1 1,1 2,2 1,0 2,0 4,0 1,0 2,0 3,0 1,-1 2,-1 2,-2 1,0 1,-1 1,-2 0,0 0,-1 -1,-2 0,0 -1,-1 -2,-1 -1,0 -2,-1 -4,-1 -2,-1 -4,-1 -5,-2 -1,0 -2,-1 -2,-2 -1,-1 -1,-2 -1,-3 0,-1 0,-2 1,-3 0,-1 1,-2 3,-3 1,0 3,0 4,0 2,0 3,0 5,0 1,1 2,2 3,3 1,1 1,2 1,4l-3 0c0,-2 -1,-3 -2,-4 -1,0 -2,-1 -4,-1 -2,0 -3,1 -4,1 -1,1 -1,2 -1,3 0,1 0,1 1,2 0,1 2,1 4,2 3,0 5,1 6,1 1,1 2,2 3,3 0,1 1,2 1,3 0,1 -1,2 -1,4 -1,1 -2,2 -3,2 -2,1 -3,1 -5,1 -2,0 -4,0 -5,-1 -2,0 -3,-1 -4,-3 -1,-1 -1,-2 -1,-4z"/>
  <path id="2" class="fil6" d="M200 53l-3 0 0 -19c-1,1 -2,1 -3,2 -1,1 -2,1 -3,2l0 -3c2,-1 3,-2 4,-3 2,-1 3,-2 3,-3l2 0 0 24z"/>
  <g id="_210435942480">
   <path class="fil4" d="M173 336c-15,0 -27,-5 -32,-12l0 8c0,10 14,18 32,18 17,0 31,-8 31,-18l0 -8c-5,7 -17,12 -31,12z"/>
   <path class="fil4" d="M150 326c12,8 33,8 45,0 12,-7 12,-18 0,-25 -12,-7 -33,-7 -45,0 -12,7 -12,18 0,25zm15 -20l4 -2 -2 7 -11 1 3 -2 -8 -5 6 -4 8 5zm27 4l-4 -2 -8 5 -6 -4 8 -4 -3 -2 11 1 2 6zm-12 11l-4 2 2 -6 11 -1 -3 2 8 4 -6 4 -8 -5zm-25 3l-2 -7 4 2 8 -4 6 3 -8 5 3 2 -11 -1z"/>
  </g>
  <path class="fil6" d="M143 583l9 -23 3 0 10 23 -3 0 -3 -7 -10 0 -3 7 -3 0zm7 -9l8 0 -3 -7c0,-2 -1,-4 -1,-5 -1,2 -1,3 -2,5l-2 7z"/>
  <path id="1" class="fil6" d="M167 576l3 0c0,1 0,2 1,2 0,1 1,2 2,2 1,1 2,1 4,1 1,0 2,0 3,-1 1,0 1,0 2,-1 0,-1 1,-1 1,-2 0,-1 -1,-1 -1,-2 0,-1 -1,-1 -2,-1 -1,-1 -2,-1 -4,-2 -3,0 -4,-1 -5,-1 -1,-1 -2,-1 -3,-2 0,-1 0,-2 0,-3 0,-1 0,-3 1,-4 0,-1 1,-1 3,-2 1,-1 2,-1 4,-1 2,0 3,0 5,1 1,1 2,1 3,3 0,1 1,2 1,3l-3 1c0,-2 -1,-3 -2,-4 -1,-1 -2,-1 -4,-1 -2,0 -3,0 -4,1 -1,1 -1,2 -1,3 0,0 0,1 1,2 0,0 2,1 4,1 3,1 5,1 6,2 1,1 2,1 3,2 0,1 1,2 1,4 0,1 -1,2 -1,3 -1,1 -2,2 -4,3 -1,1 -2,1 -4,1 -2,0 -4,0 -6,-1 -1,-1 -2,-2 -3,-3 -1,-1 -1,-3 -1,-4z"/>
  <path id="2" class="fil6" d="M204 581l0 2 -16 0c0,0 0,-1 1,-2 0,-1 1,-2 2,-3 1,-1 2,-2 3,-3 3,-3 5,-4 6,-5 1,-2 1,-3 1,-4 0,-1 0,-2 -1,-3 -1,-1 -2,-1 -3,-1 -2,0 -3,0 -4,1 -1,1 -1,2 -1,4l-3 -1c0,-2 1,-4 2,-5 2,-1 3,-2 6,-2 2,0 4,1 5,2 1,2 2,3 2,5 0,1 0,2 0,3 -1,1 -2,2 -2,3 -1,1 -3,2 -5,4 -2,2 -3,3 -3,3 -1,1 -1,1 -2,2l12 0z"/>
  <g id="_210435942192">
   <path class="fil4" d="M75 429c-14,0 -26,-5 -32,-12l0 9c0,10 14,18 32,18 18,0 32,-8 32,-18l0 -9c-6,7 -18,12 -32,12z"/>
   <path class="fil4" d="M53 420c12,7 32,7 44,0 13,-7 13,-18 0,-25 -12,-8 -32,-8 -44,0 -13,7 -13,18 0,25zm15 -20l3 -2 -1 6 -12 1 4 -2 -8 -4 6 -4 8 5zm26 4l-3 -2 -8 4 -6 -3 8 -5 -4 -2 12 1 1 7zm-12 11l-3 2 1 -7 12 -1 -4 2 8 5 -6 4 -8 -5zm-25 2l-1 -6 3 2 8 -5 6 4 -8 4 4 2 -12 -1z"/>
  </g>
  <g id="_210435941424">
   <path class="fil4" d="M265 429c-14,0 -26,-5 -32,-12l0 9c0,10 15,18 32,18 18,0 32,-8 32,-18l0 -9c-6,7 -18,12 -32,12z"/>
   <path class="fil4" d="M243 420c12,7 32,7 45,0 12,-7 12,-18 0,-25 -13,-8 -33,-8 -45,0 -13,7 -13,18 0,25zm15 -20l4 -2 -2 6 -12 1 4 -2 -8 -4 6 -4 8 5zm27 4l-4 -2 -8 4 -6 -3 8 -5 -4 -2 12 1 2 7zm-13 11l-3 2 2 -7 11 -1 -3 2 8 5 -7 4 -8 -5zm-24 2l-2 -6 3 2 8 -5 7 4 -8 4 3 2 -11 -1z"/>
  </g>
  <g id="_210435938480">
   <path class="fil4" d="M173 526c-15,0 -27,-5 -32,-12l0 8c0,10 14,19 32,19 17,0 31,-9 31,-19l0 -8c-5,7 -17,12 -31,12z"/>
   <path class="fil4" d="M150 517c12,7 33,7 45,0 12,-7 12,-19 0,-26 -12,-7 -33,-7 -45,0 -12,7 -12,19 0,26zm15 -21l4 -2 -2 7 -11 1 3 -2 -8 -5 6 -3 8 4zm27 4l-4 -2 -8 5 -6 -4 8 -4 -3 -2 11 1 2 6zm-12 12l-4 1 2 -6 11 -1 -3 2 8 4 -6 4 -8 -4zm-25 2l-2 -7 4 2 8 -4 6 3 -8 5 3 2 -11 -1z"/>
  </g>
  <path class="fil5" d="M116 337l0 3 -16 0c0,-1 0,-2 1,-2 0,-1 1,-3 2,-4 0,-1 2,-2 3,-3 3,-2 5,-4 5,-5 1,-1 2,-3 2,-4 0,-1 -1,-2 -1,-3 -1,0 -2,-1 -4,-1 -1,0 -2,1 -3,1 -1,1 -1,2 -1,4l-3 0c0,-3 1,-4 2,-6 1,-1 3,-1 5,-1 3,0 5,0 6,2 1,1 2,2 2,4 0,1 0,2 -1,3 0,1 -1,2 -2,3 -1,1 -2,2 -4,4 -2,2 -3,3 -4,3 0,1 0,1 -1,2l12 0z"/>
  <path id="1" class="fil5" d="M131 337c-1,1 -2,2 -3,2 -1,1 -2,1 -3,1 -2,0 -4,0 -5,-1 -1,-1 -1,-2 -1,-4 0,-1 0,-2 0,-2 1,-1 1,-2 2,-2 0,0 1,-1 2,-1 0,0 1,0 2,0 3,-1 5,-1 6,-1 0,-1 0,-1 0,-1 0,-1 -1,-2 -1,-3 -1,0 -2,-1 -3,-1 -2,0 -3,1 -3,1 -1,1 -2,1 -2,3l-3 -1c1,-1 1,-2 2,-3 0,0 1,-1 2,-1 1,-1 3,-1 4,-1 1,0 3,0 4,0 0,1 1,1 2,2 0,0 0,1 0,2 1,0 1,1 1,2l0 4c0,3 0,5 0,6 0,0 0,1 0,2l-3 0c0,-1 0,-2 0,-3zm0 -6c-1,0 -3,1 -5,1 -1,0 -2,0 -3,1 0,0 0,0 -1,1 0,0 0,0 0,1 0,1 0,1 1,2 0,0 1,1 2,1 1,0 2,-1 3,-1 1,-1 2,-1 2,-2 1,-1 1,-2 1,-3l0 -1z"/>
  <path class="fil5" d="M306 457l0 2 -16 0c0,0 0,-1 0,-2 1,-1 1,-2 2,-3 1,-1 2,-2 4,-3 3,-2 4,-4 5,-5 1,-2 2,-3 2,-4 0,-1 -1,-2 -2,-3 0,-1 -2,-1 -3,-1 -1,0 -2,0 -3,1 -1,1 -1,2 -1,4l-3 -1c0,-2 1,-4 2,-5 1,-1 3,-1 5,-1 2,0 4,0 6,1 1,2 2,3 2,5 0,1 -1,2 -1,3 0,1 -1,2 -2,3 -1,1 -2,2 -4,4 -2,2 -3,3 -4,3 0,1 -1,1 -1,2l12 0z"/>
  <path id="1" class="fil5" d="M312 459l-2 0 0 -23 2 0 0 8c2,-1 3,-2 5,-2 1,0 2,0 3,0 1,1 2,1 2,2 1,1 1,2 2,3 0,1 0,2 0,4 0,3 0,5 -2,6 -1,2 -3,3 -5,3 -2,0 -4,-1 -5,-3l0 2zm0 -8c0,2 0,3 1,4 1,2 2,2 4,2 1,0 2,0 3,-1 1,-1 1,-3 1,-5 0,-2 0,-4 -1,-5 -1,-1 -2,-2 -3,-2 -1,0 -3,1 -3,2 -1,1 -2,3 -2,5z"/>
  <path class="fil5" d="M226 547l0 3 -16 0c0,-1 0,-2 1,-2 0,-1 1,-3 2,-4 0,-1 2,-2 3,-3 3,-2 5,-4 5,-5 1,-1 2,-3 2,-4 0,-1 -1,-2 -1,-3 -1,0 -2,-1 -4,-1 -1,0 -2,1 -3,1 -1,1 -1,2 -1,4l-3 0c0,-3 1,-4 2,-6 1,-1 3,-1 5,-1 3,0 5,0 6,2 1,1 2,2 2,4 0,1 0,2 -1,3 0,1 -1,2 -2,3 -1,1 -2,2 -4,4 -2,2 -3,3 -4,3 0,1 0,1 -1,2l12 0z"/>
  <path id="1" class="fil5" d="M241 543l3 1c-1,2 -1,3 -3,4 -1,1 -2,2 -4,2 -3,0 -5,-1 -6,-2 -1,-2 -2,-4 -2,-7 0,-2 0,-3 1,-5 0,-1 1,-2 3,-3 1,-1 2,-1 4,-1 2,0 3,0 4,1 1,1 2,3 2,4l-2 1c-1,-1 -1,-2 -2,-3 0,0 -1,-1 -2,-1 -2,0 -3,1 -4,2 -1,1 -1,3 -1,5 0,2 0,4 1,5 1,1 2,2 4,2 1,0 2,-1 2,-1 1,-1 2,-2 2,-4z"/>
  <path class="fil5" d="M106 467l0 3 -16 0c0,-1 0,-2 0,-2 1,-1 1,-3 2,-4 1,-1 2,-2 4,-3 3,-2 4,-4 5,-5 1,-1 2,-3 2,-4 0,-1 -1,-2 -2,-3 0,0 -2,-1 -3,-1 -1,0 -2,1 -3,1 -1,1 -1,2 -1,4l-3 0c0,-3 1,-4 2,-6 1,-1 3,-1 5,-1 2,0 4,0 6,2 1,1 2,2 2,4 0,1 -1,2 -1,3 0,1 -1,2 -2,3 -1,1 -2,2 -4,4 -2,2 -3,3 -4,3 0,1 -1,1 -1,2l12 0z"/>
  <path id="1" class="fil5" d="M121 470l0 -3c-2,2 -3,3 -5,3 -2,0 -3,0 -4,-1 -1,-1 -2,-2 -3,-3 0,-2 -1,-3 -1,-5 0,-2 1,-3 1,-5 1,-1 2,-2 3,-3 1,-1 2,-1 4,-1 1,0 2,0 2,1 1,0 2,1 2,1l0 -8 3 0 0 24 -2 0zm-10 -9c0,2 1,4 2,5 1,1 2,2 3,2 1,0 2,-1 3,-2 1,-1 2,-3 2,-5 0,-2 -1,-4 -2,-5 -1,-1 -2,-2 -3,-2 -1,0 -2,1 -3,2 -1,1 -2,3 -2,5z"/>
 </g>
</svg>
