<svg xmlns="http://www.w3.org/2000/svg" xmlns:xlink="http://www.w3.org/1999/xlink" version="1.1" x="0px" y="0px" viewBox="0 0 100 125" enable-background="new 0 0 100 100" xml:space="preserve"><g><path d="M85.032,31H43v-0.274v-6.232C43,21.392,40.042,19,36.94,19H17.301C14.199,19,12,21.392,12,24.494v52.371   c0,1.645,0.552,3.123,1.682,4.153c0.54,0.492,1.093,0.634,1.793,0.888C16.072,82.122,16.63,82,17.301,82H36.94   c0.67,0,1.311,0.121,1.907-0.095c0.7-0.254,1.552-0.518,2.092-1.01c1.13-1.03,2.061-2.385,2.061-4.03V74h11.533H55v5h-7.656   C46.324,79,45,79.651,45,80.672v3.818C45,85.51,46.324,86,47.344,86h23.752C72.117,86,73,85.51,73,84.49v-3.818   C73,79.651,72.117,79,71.097,79H64v-5h21.032C88.135,74,91,71.314,91,68.212v-31.86C91,33.25,88.135,31,85.032,31z M41,76.374   c0,0.501-0.101,0.978-0.285,1.411C40.165,79.087,38.876,80,37.374,80h0H17.626h0c-1.502,0-2.791-0.913-3.341-2.215   C14.101,77.352,14,76.875,14,76.374V24.626c0-0.501,0.101-0.978,0.285-1.411C14.835,21.913,16.124,21,17.626,21h0h19.747h0   c1.502,0,2.791,0.913,3.341,2.215C40.899,23.648,41,24.125,41,24.626V76.374z M43,60.804V38h40.506C83.732,38,84,37.778,84,38.004   v22.382C84,60.613,83.732,61,83.506,61H43V60.804z M71,81v3H47v-3h7.683C55.703,81,57,79.991,57,78.971V74h4.909H62v4.971   C62,79.991,62.739,81,63.759,81H71z M89,68.212c0,2-1.968,3.788-3.968,3.788H43v-0.162V63h40.506C84.839,63,86,61.719,86,60.387   V38.004C86,36.672,84.839,36,83.506,36H43v-0.413V33h42.032c2,0,3.968,1.353,3.968,3.352V68.212z"/><circle cx="59.221" cy="67.544" r="1.662"/><path d="M39,81.151V84H15v-2.849c0-0.253-1.335-0.641-1.875-1.133C13.048,80.222,13,80.441,13,80.672v3.818   C13,85.51,14.224,86,15.244,86h23.752C40.017,86,41,85.51,41,84.49v-3.818c0-0.231-0.048-0.45-0.125-0.654   C40.335,80.51,40,80.897,39,81.151z"/><circle cx="27.12" cy="73.061" r="1.662"/><path d="M36.522,29.038C36.402,29.013,36.277,29,36.149,29H18.851c-0.128,0-0.252,0.013-0.373,0.038   C17.634,29.21,17,29.956,17,30.85v0v4.299v0c0,0.894,0.634,1.64,1.478,1.813C18.598,36.987,18.723,37,18.851,37h17.299   c0.128,0,0.253-0.013,0.373-0.038C37.366,36.79,38,36.044,38,35.15v0v-4.299v0C38,29.956,37.366,29.21,36.522,29.038z M36,35H19v-4   h17V35z"/><polygon points="19,53.776 19,55 35,55 35,53.776 35,53 19,53  "/><polygon points="19,57.51 19,59 35,59 35,57.51 35,57 19,57  "/><polygon points="19,61.244 19,62 35,62 35,61.244 35,60 19,60  "/><polygon points="19,64.977 19,66 35,66 35,64.977 35,64 19,64  "/></g></svg>