<svg xmlns="http://www.w3.org/2000/svg" xmlns:xlink="http://www.w3.org/1999/xlink" version="1.1" x="0px" y="0px" viewBox="0 0 90 112.5" enable-background="new 0 0 90 90" xml:space="preserve"><path d="M45,62.152c-19.139,0-35.345-6.519-43.217-16.227v11.678c0,13.611,19.349,24.647,43.217,24.647s43.217-11.036,43.217-24.647  V45.927C80.346,55.635,64.139,62.152,45,62.152z"/><path d="M14.44,49.83c16.878,9.626,44.242,9.626,61.119,0s16.877-25.235,0-34.862s-44.241-9.627-61.119,0  C-2.437,24.595-2.437,40.204,14.44,49.83z M35.47,21.963l4.638-2.645l-2.375,8.936l-15.666,1.354l4.637-2.645l-10.921-6.229l8.766-5  L35.47,21.963z M71.38,27.642l-4.637-2.646l-10.923,6.23l-8.766-5.001l10.922-6.229L53.34,17.35l15.665,1.354L71.38,27.642z   M54.531,42.834l-4.639,2.646l2.373-8.936l15.666-1.354l-4.637,2.645l10.921,6.229l-8.765,4.999L54.531,42.834z M20.994,46.092  l-2.375-8.935l4.638,2.645l10.921-6.229l8.766,4.999l-10.922,6.23l4.637,2.645L20.994,46.092z"/></svg>