<?xml version="1.0" encoding="UTF-8"?>
<!DOCTYPE svg PUBLIC "-//W3C//DTD SVG 1.1//EN" "http://www.w3.org/Graphics/SVG/1.1/DTD/svg11.dtd">
<!-- Creator: CorelDRAW X7 -->
<svg xmlns="http://www.w3.org/2000/svg" xml:space="preserve" width="350px" height="529px" version="1.1" style="shape-rendering:geometricPrecision; text-rendering:geometricPrecision; image-rendering:optimizeQuality; fill-rule:evenodd; clip-rule:evenodd"
viewBox="0 0 350 530"
 xmlns:xlink="http://www.w3.org/1999/xlink">
 <defs>
  <style type="text/css">
   <![CDATA[
    .str0 {stroke:#373435;stroke-width:1.05378}
    .str1 {stroke:#373435;stroke-width:0.398332}
    .fil6 {fill:black}
    .fil3 {fill:#00A859}
    .fil0 {fill:#373435}
    .fil2 {fill:#3E4095}
    .fil1 {fill:#ED3237}
    .fil4 {fill:#F58634}
    .fil5 {fill:#FEFEFE;fill-rule:nonzero}
   ]]>
  </style>
 </defs>
 <g id="Layer_x0020_1">
  <metadata id="CorelCorpID_0Corel-Layer"/>
  <rect class="fil0 str0" x="149" y="17" width="25.1865" height="87.2313"/>
  <rect class="fil1 str0" x="237" y="17" width="25.1865" height="87.2313"/>
  <rect class="fil2 str0" x="193" y="16" width="25.1865" height="87.2313"/>
  <rect class="fil3 str0" x="281" y="16" width="25.1865" height="87.2313"/>
  <rect class="fil4 str0" x="324" y="15" width="25.1865" height="87.2313"/>
  <g id="_496697069968">
   <polygon class="fil5" points="156,38 156,22 167,22 167,25 160,25 160,29 166,29 166,32 160,32 160,38 "/>
  </g>
  <g id="_496697073456">
   <polygon class="fil5" points="160,63 160,47 163,47 163,63 "/>
  </g>
  <g id="_496697072432">
   <path class="fil5" d="M155 83l3 0c0,1 1,2 1,2 1,1 2,1 3,1 1,0 2,0 2,-1 1,0 1,-1 1,-1 0,-1 0,-1 0,-1 -1,-1 -1,-1 -2,-1 0,0 -1,0 -2,-1 -2,0 -3,-1 -4,-1 -1,-1 -1,-2 -1,-3 0,-1 0,-2 0,-3 1,0 2,-1 2,-1 1,-1 2,-1 4,-1 2,0 3,0 4,1 1,1 2,2 2,4l-4 0c0,-1 0,-1 0,-2 -1,0 -2,0 -2,0 -1,0 -2,0 -3,0 0,1 0,1 0,1 0,1 0,1 0,1 1,1 2,1 3,1 2,1 3,1 4,1 0,1 1,1 2,2 0,1 0,2 0,3 0,1 0,1 -1,2 0,1 -1,2 -2,2 -1,0 -2,1 -3,1 -2,0 -4,-1 -5,-2 -1,-1 -2,-2 -2,-4z"/>
  </g>
  <g id="_496697073488">
   <polygon class="fil5" points="200,37 200,21 212,21 212,24 203,24 203,28 211,28 211,30 203,30 203,35 212,35 212,37 "/>
  </g>
  <g id="_496697073168">
   <polygon class="fil5" points="199,62 199,46 202,46 209,57 209,46 212,46 212,62 208,62 202,52 202,62 "/>
  </g>
  <g id="_496697072848">
   <polygon class="fil5" points="200,87 200,71 203,71 203,84 212,84 212,87 "/>
  </g>
  <g id="_496697075376">
   <path class="fil5" d="M243 38l0 -16 7 0c2,0 3,0 4,0 0,1 1,1 1,2 1,1 1,1 1,2 0,2 0,3 -1,3 -1,1 -2,2 -3,2 1,0 1,1 2,1 0,1 1,2 1,3l2 3 -3 0 -3 -4c-1,-1 -1,-2 -2,-2 0,0 0,0 0,-1 -1,0 -1,0 -2,0l-1 0 0 7 -3 0zm3 -9l3 0c1,0 2,0 3,-1 0,0 0,0 0,0 1,-1 1,-1 1,-1 0,-1 0,-1 -1,-2 0,0 0,0 -1,0 0,0 -1,0 -2,0l-3 0 0 4z"/>
  </g>
  <g id="_496697075280">
   <polygon class="fil5" points="243,63 243,47 255,47 255,50 247,50 247,53 255,53 255,56 247,56 247,60 256,60 256,63 "/>
  </g>
  <g id="_496697074256">
   <path class="fil5" d="M243 72l6 0c1,0 2,0 3,0 1,0 2,1 2,2 1,0 1,1 2,2 0,1 0,3 0,4 0,1 0,2 0,3 -1,2 -1,3 -2,3 0,1 -1,1 -2,2 -1,0 -2,0 -3,0l-6 0 0 -16zm3 3l0 10 3 0c1,0 1,0 2,0 0,0 1,0 1,-1 0,0 1,0 1,-1 0,-1 0,-2 0,-3 0,-1 0,-2 0,-3 0,-1 -1,-1 -1,-2 -1,0 -1,0 -2,0 0,0 -1,0 -2,0l-2 0z"/>
  </g>
  <g id="_496697074704">
   <polygon class="fil5" points="292,37 292,24 287,24 287,21 300,21 300,24 295,24 295,37 "/>
  </g>
  <g id="_496697076912">
   <path class="fil5" d="M287 62l0 -16 7 0c1,0 2,0 3,0 1,0 2,1 2,2 1,0 1,1 1,2 0,1 -1,2 -1,3 -1,1 -2,1 -3,1 0,1 1,1 1,2 1,0 1,1 2,2l2 4 -4 0 -2 -4c-1,-1 -1,-2 -2,-2 0,-1 0,-1 -1,-1 0,0 -1,0 -1,0l-1 0 0 7 -3 0zm3 -10l2 0c2,0 3,0 3,0 1,0 1,0 1,-1 0,0 0,0 0,-1 0,0 0,-1 0,-1 0,0 -1,-1 -1,-1 0,0 -1,0 -3,0l-2 0 0 4z"/>
  </g>
  <g id="_496697077840">
   <path class="fil5" d="M301 87l-3 0 -2 -4 -6 0 -1 4 -4 0 6 -16 4 0 6 16zm-6 -7l-2 -6 -2 6 4 0z"/>
  </g>
  <g id="_496697077136">
   <path class="fil5" d="M345 36l-4 0 -1 -4 -6 0 -2 4 -3 0 6 -16 3 0 7 16zm-6 -6l-2 -6 -2 6 4 0z"/>
  </g>
  <g id="_496697076688">
   <path class="fil5" d="M331 61l0 -16 5 0c2,0 3,0 4,0 1,1 2,1 2,2 1,1 1,2 1,3 0,1 0,2 0,3 -1,0 -1,1 -2,1 0,0 -1,1 -1,1 -1,0 -2,0 -4,0l-2 0 0 6 -3 0zm3 -13l0 4 2 0c1,0 2,0 2,0 1,0 1,0 1,-1 1,0 1,0 1,-1 0,-1 0,-1 -1,-1 0,-1 0,-1 -1,-1 0,0 -1,0 -2,0l-2 0z"/>
  </g>
  <g id="_496697077680">
   <polygon class="fil5" points="332,86 332,70 335,70 335,83 343,83 343,86 "/>
  </g>
  <rect class="fil0 str0" x="149" y="397" width="25.1865" height="87.2313"/>
  <rect class="fil1 str0" x="237" y="396" width="25.1865" height="87.2313"/>
  <rect class="fil2 str0" x="193" y="396" width="25.1865" height="87.2313"/>
  <rect class="fil3 str0" x="281" y="395" width="25.1865" height="87.2313"/>
  <rect class="fil4 str0" x="324" y="395" width="25.1865" height="87.2313"/>
  <g id="_496697078736">
   <polygon class="fil5" points="156,418 156,402 167,402 167,404 160,404 160,408 166,408 166,411 160,411 160,418 "/>
  </g>
  <g id="_496697081936">
   <polygon class="fil5" points="160,443 160,427 163,427 163,443 "/>
  </g>
  <g id="_496697081616">
   <path class="fil5" d="M155 462l3 0c0,1 1,2 1,2 1,1 2,1 3,1 1,0 2,0 2,-1 1,0 1,0 1,-1 0,0 0,-1 0,-1 -1,0 -1,-1 -2,-1 0,0 -1,0 -2,0 -2,-1 -3,-1 -4,-2 -1,-1 -1,-2 -1,-3 0,-1 0,-2 0,-3 1,0 2,-1 2,-1 1,-1 2,-1 4,-1 2,0 3,1 4,2 1,1 2,2 2,3l-4 0c0,-1 0,-1 0,-1 -1,-1 -2,-1 -2,-1 -1,0 -2,0 -3,1 0,0 0,0 0,1 0,0 0,0 0,1 1,0 2,0 3,1 2,0 3,0 4,1 0,0 1,1 2,1 0,1 0,2 0,3 0,1 0,2 -1,2 0,1 -1,2 -2,2 -1,1 -2,1 -3,1 -2,0 -4,-1 -5,-2 -1,0 -2,-2 -2,-4z"/>
  </g>
  <g id="_496697081392">
   <polygon class="fil5" points="200,417 200,401 212,401 212,403 203,403 203,407 211,407 211,410 203,410 203,414 212,414 212,417 "/>
  </g>
  <g id="_496697081712">
   <polygon class="fil5" points="199,442 199,426 202,426 209,436 209,426 212,426 212,442 208,442 202,431 202,442 "/>
  </g>
  <g id="_496697083184">
   <polygon class="fil5" points="200,467 200,451 203,451 203,464 212,464 212,467 "/>
  </g>
  <g id="_496697083888">
   <path class="fil5" d="M243 417l0 -16 7 0c2,0 3,0 4,1 0,0 1,0 1,1 1,1 1,2 1,3 0,1 0,2 -1,3 -1,0 -2,1 -3,1 1,0 1,1 2,1 0,1 1,2 1,3l2 3 -3 0 -3 -3c-1,-2 -1,-2 -2,-3 0,0 0,0 0,0 -1,0 -1,-1 -2,-1l-1 0 0 7 -3 0zm3 -9l3 0c1,0 2,0 3,0 0,0 0,-1 0,-1 1,0 1,-1 1,-1 0,-1 0,-1 -1,-1 0,-1 0,-1 -1,-1 0,0 -1,0 -2,0l-3 0 0 4z"/>
  </g>
  <g id="_496697082320">
   <polygon class="fil5" points="243,442 243,426 255,426 255,429 247,429 247,432 255,432 255,435 247,435 247,439 256,439 256,442 "/>
  </g>
  <g id="_496697082800">
   <path class="fil5" d="M243 451l6 0c1,0 2,0 3,0 1,1 2,1 2,2 1,1 1,1 2,2 0,2 0,3 0,4 0,2 0,3 0,4 -1,1 -1,2 -2,2 0,1 -1,1 -2,2 -1,0 -2,0 -3,0l-6 0 0 -16zm3 3l0 10 3 0c1,0 1,0 2,0 0,0 1,0 1,0 0,-1 1,-1 1,-2 0,-1 0,-2 0,-3 0,-1 0,-2 0,-3 0,0 -1,-1 -1,-1 -1,-1 -1,-1 -2,-1 0,0 -1,0 -2,0l-2 0z"/>
  </g>
  <g id="_496697082608">
   <polygon class="fil5" points="292,416 292,403 287,403 287,400 300,400 300,403 295,403 295,416 "/>
  </g>
  <g id="_496697085296">
   <path class="fil5" d="M287 441l0 -16 7 0c1,0 2,0 3,1 1,0 2,0 2,1 1,1 1,2 1,3 0,1 -1,2 -1,3 -1,0 -2,1 -3,1 0,1 1,1 1,2 1,0 1,1 2,2l2 3 -4 0 -2 -3c-1,-1 -1,-2 -2,-3 0,0 0,0 -1,0 0,0 -1,0 -1,0l-1 0 0 6 -3 0zm3 -9l2 0c2,0 3,0 3,0 1,0 1,-1 1,-1 0,0 0,-1 0,-1 0,-1 0,-1 0,-1 0,-1 -1,-1 -1,-1 0,0 -1,0 -3,0l-2 0 0 4z"/>
  </g>
  <g id="_496697085360">
   <path class="fil5" d="M301 466l-3 0 -2 -3 -6 0 -1 3 -4 0 6 -16 4 0 6 16zm-6 -6l-2 -6 -2 6 4 0z"/>
  </g>
  <g id="_496697084336">
   <path class="fil5" d="M345 416l-4 0 -1 -4 -6 0 -2 4 -3 0 6 -16 3 0 7 16zm-6 -7l-2 -5 -2 5 4 0z"/>
  </g>
  <g id="_496697084208">
   <path class="fil5" d="M331 440l0 -16 5 0c2,0 3,0 4,1 1,0 2,0 2,1 1,1 1,2 1,3 0,1 0,2 0,3 -1,0 -1,1 -2,1 0,1 -1,1 -1,1 -1,0 -2,0 -4,0l-2 0 0 6 -3 0zm3 -13l0 5 2 0c1,0 2,0 2,-1 1,0 1,0 1,0 1,-1 1,-1 1,-2 0,0 0,-1 -1,-1 0,0 0,-1 -1,-1 0,0 -1,0 -2,0l-2 0z"/>
  </g>
  <g id="_496697086640">
   <polygon class="fil5" points="332,465 332,449 335,449 335,463 343,463 343,465 "/>
  </g>
  <rect class="fil0 str0" x="149" y="212" width="25.1865" height="87.2313"/>
  <rect class="fil1 str0" x="237" y="212" width="25.1865" height="87.2313"/>
  <rect class="fil2 str0" x="193" y="211" width="25.1865" height="87.2313"/>
  <g id="_496697086384">
   <polygon class="fil5" points="156,233 156,217 167,217 167,220 160,220 160,224 166,224 166,227 160,227 160,233 "/>
  </g>
  <g id="_496697091856">
   <polygon class="fil5" points="160,258 160,242 163,242 163,258 "/>
  </g>
  <g id="_496697091984">
   <path class="fil5" d="M155 278l3 0c0,1 1,2 1,2 1,1 2,1 3,1 1,0 2,0 2,-1 1,0 1,-1 1,-1 0,-1 0,-1 0,-1 -1,-1 -1,-1 -2,-1 0,0 -1,0 -2,-1 -2,0 -3,-1 -4,-1 -1,-1 -1,-2 -1,-4 0,0 0,-1 0,-2 1,-1 2,-1 2,-1 1,-1 2,-1 4,-1 2,0 3,0 4,1 1,1 2,2 2,4l-4 0c0,-1 0,-1 0,-2 -1,0 -2,0 -2,0 -1,0 -2,0 -3,0 0,1 0,1 0,1 0,1 0,1 0,1 1,1 2,1 3,1 2,1 3,1 4,1 0,1 1,1 2,2 0,1 0,2 0,3 0,1 0,1 -1,2 0,1 -1,2 -2,2 -1,0 -2,1 -3,1 -2,0 -4,-1 -5,-2 -1,-1 -2,-2 -2,-4z"/>
  </g>
  <g id="_496697092912">
   <polygon class="fil5" points="200,232 200,216 212,216 212,219 203,219 203,223 211,223 211,225 203,225 203,230 212,230 212,232 "/>
  </g>
  <g id="_496697096432">
   <polygon class="fil5" points="199,257 199,241 202,241 209,252 209,241 212,241 212,257 208,257 202,247 202,257 "/>
  </g>
  <g id="_496697096720">
   <polygon class="fil5" points="200,282 200,266 203,266 203,279 212,279 212,282 "/>
  </g>
  <g id="_496697099216">
   <path class="fil5" d="M243 233l0 -16 7 0c2,0 3,0 4,0 0,1 1,1 1,2 1,1 1,1 1,2 0,2 0,3 -1,3 -1,1 -2,2 -3,2 1,0 1,1 2,1 0,1 1,2 1,3l2 3 -3 0 -3 -4c-1,-1 -1,-2 -2,-2 0,0 0,-1 0,-1 -1,0 -1,0 -2,0l-1 0 0 7 -3 0zm3 -9l3 0c1,0 2,0 3,-1 0,0 0,0 0,0 1,-1 1,-1 1,-1 0,-1 0,-1 -1,-2 0,0 0,0 -1,0 0,0 -1,0 -2,0l-3 0 0 4z"/>
  </g>
  <g id="_496697099376">
   <polygon class="fil5" points="243,258 243,242 255,242 255,245 247,245 247,248 255,248 255,251 247,251 247,255 256,255 256,258 "/>
  </g>
  <g id="_496697069744">
   <path class="fil5" d="M243 267l6 0c1,0 2,0 3,0 1,0 2,1 2,2 1,0 1,1 2,2 0,1 0,3 0,4 0,1 0,2 0,3 -1,2 -1,3 -2,3 0,1 -1,1 -2,1 -1,1 -2,1 -3,1l-6 0 0 -16zm3 3l0 10 3 0c1,0 1,0 2,0 0,0 1,0 1,-1 0,0 1,-1 1,-1 0,-1 0,-2 0,-3 0,-1 0,-2 0,-3 0,-1 -1,-1 -1,-2 -1,0 -1,0 -2,0 0,0 -1,0 -2,0l-2 0z"/>
  </g>
 </g>
 <g id="Layer_x0020_1_0">
  <metadata id="CorelCorpID_1Corel-Layer"/>
  <g id="_252675855120">
   <g>
    <path class="fil6" d="M127 21l-73 0 0 0 0 -11c0,-6 -5,-10 -9,-10l-35 0c-6,0 -9,4 -9,10l0 90c0,3 0,6 3,8 2,0 2,1 3,1 1,0 1,0 3,0l35 0c0,0 1,0 2,0 2,0 3,-1 5,-1 1,-4 2,-5 2,-8l0 -5 20 0 1 0 0 8 -13 0c-2,0 -3,1 -3,3l0 7c0,1 1,2 3,2l41 0c2,0 3,-1 3,-2l0 -7c0,-2 -1,-3 -3,-3l-12 0 0 -8 36 0c6,0 10,-4 10,-10l0 -54c0,-6 -4,-10 -10,-10l0 0 0 0zm-75 78c0,1 -2,1 -2,3 0,1 -3,4 -5,4l0 0 -34 0 0 0c-3,0 -5,-3 -5,-4 -2,-2 -2,-2 -2,-3l0 -89c0,-2 0,-2 2,-3 0,-1 2,-3 5,-3l0 0 34 0 0 0c2,0 5,2 5,3 0,1 2,1 2,3l0 89zm2 -26l0 -40 70 0c0,0 1,-1 1,0l0 38c0,2 -1,2 -1,2l-70 0 0 0 0 0 0 0zm49 35l0 3 -41 0 0 -3 13 0c2,0 3,-2 3,-5l0 -8 9 0 1 0 0 8c0,3 0,5 3,5l12 0 0 0zm31 -23c0,3 -4,7 -7,7l-73 0 0 -1 0 -14 70 0c3,0 5,-3 5,-6l0 -38c0,-2 -2,-4 -5,-4l-70 0 0 0 0 -5 73 0c3,0 7,2 7,7l0 54 0 0 0 0z"/>
    <circle class="fil6" cx="82" cy="84" r="3"/>
    <path class="fil6" d="M47 108l0 3 -41 0 0 -3c0,0 -2,-2 -3,-2 0,0 0,0 0,0l0 7c0,1 3,2 4,2l40 0c2,0 5,-1 5,-2l0 -7c0,0 0,0 -2,0 0,0 -1,2 -3,2l0 0z"/>
    <circle class="fil6" cx="27" cy="93" r="3"/>
    <path class="fil6" d="M43 18c0,0 0,-1 0,-1l-31 0c0,0 0,1 0,1 -1,0 -2,2 -2,3l0 0 0 7 0 0c0,1 1,3 2,3 0,0 0,0 0,0l31 0c0,0 0,0 0,0 2,0 3,-2 3,-3l0 0 0 -7 0 0c0,-1 -1,-3 -3,-3zm-1 10l-30 0 0 -7 30 0 0 7z"/>
    <polygon class="fil6" points="12,60 12,63 41,63 41,60 41,59 12,59 "/>
    <polygon class="fil6" points="12,67 12,70 41,70 41,67 41,66 12,66 "/>
    <polygon class="fil6" points="12,73 12,74 41,74 41,73 41,71 12,71 "/>
    <polygon class="fil6" points="12,79 12,81 41,81 41,79 41,78 12,78 "/>
   </g>
  </g>
  <rect class="fil0 str1" x="66" y="115" width="22.5757" height="115.796"/>
  <rect class="fil0 str1" x="66" y="295" width="22.5757" height="81.3954"/>
  <g id="_252675852592">
   <path class="fil6" d="M59 375l-58 38 48 0 53 -38 -43 0 0 0 0 0zm46 0l-55 39 0 116 58 -48 0 -107 -3 0 0 0 0 0 0 0zm-5 14c0,0 0,0 0,1 0,0 0,2 -1,2 0,1 -1,0 -1,0 0,-2 1,-2 1,-3 1,0 1,0 1,0l0 0zm-4 3c0,0 0,0 0,1 0,0 0,1 0,1 -1,2 -1,0 -1,0 0,-1 0,-1 1,-2 0,0 0,0 0,0l0 0zm4 1c0,0 0,0 0,0 0,1 0,3 -1,3 0,0 -1,0 -1,0 0,-2 1,-3 1,-3 1,0 1,0 1,0zm-8 1c2,0 2,0 2,2 0,0 -2,2 -2,2 -1,1 -1,0 -1,0 0,-2 0,-2 1,-4 0,0 0,0 0,0zm4 2c0,0 0,0 0,0 0,2 0,3 0,3 -1,0 -1,0 -1,0 0,-1 0,-3 1,-3 0,0 0,0 0,0zm4 2c0,0 0,0 0,0 0,1 0,1 -1,2 0,0 -1,0 -1,-1 0,0 1,-1 1,-1 0,0 0,0 1,0 0,0 0,0 0,0l0 0zm-11 0c0,0 0,0 0,1 0,0 0,1 -1,1 0,2 -1,0 -1,0 0,-1 1,-1 1,-2 0,0 1,0 1,0l0 0zm3 1c2,0 2,0 2,0 0,1 -2,3 -2,3 -1,0 -1,0 -1,0 0,-2 0,-3 1,-3 0,0 0,0 0,0zm4 1c0,0 0,0 0,0 0,2 0,2 0,3 -1,0 -1,0 -1,-1 0,0 0,-2 1,-2 0,0 0,0 0,0 0,0 0,0 0,0l0 0zm-11 0c0,0 0,0 0,2 0,0 0,1 -1,1 0,1 0,0 0,0 0,-1 0,-1 0,-3 1,0 1,0 1,0l0 0zm15 0c0,0 0,0 0,2 0,0 0,1 -1,1 0,1 -1,1 -1,0 0,0 1,-1 1,-1 0,-2 0,-2 1,-2 0,0 0,0 0,0zm-11 2c0,0 0,0 0,0 0,1 0,2 -1,2 0,0 -1,0 -1,0 0,-1 1,-2 1,-2 0,0 0,0 1,0 0,0 0,0 0,0zm3 1c2,0 2,0 2,0 0,1 -2,1 -2,3 -1,0 -1,0 -1,-2 0,0 0,-1 1,-1 0,0 0,0 0,0 0,0 0,0 0,0l0 0zm-11 0c1,0 1,0 1,1 0,0 -1,2 -1,2 -2,1 -2,0 -2,0 0,-2 0,-2 2,-3 0,0 0,0 0,0l0 0zm15 0c0,0 0,0 0,1 0,0 0,2 0,2 -1,1 -1,1 -1,0 0,0 0,-2 1,-2 0,-1 0,-1 0,-1 0,0 0,0 0,0zm-11 1c0,0 0,0 0,0 0,2 0,3 -1,3 0,0 0,0 0,0 0,-1 0,-3 0,-3 1,0 1,0 1,0 0,0 0,0 0,0zm15 0c0,0 0,0 0,0 0,2 0,3 -1,3 0,0 -1,0 -1,0 0,-1 1,-1 1,-3 0,0 0,0 1,0 0,0 0,0 0,0zm-11 2c0,0 0,0 0,0 0,1 0,1 -1,3 0,0 -1,0 -1,-2 0,0 1,-1 1,-1 0,0 0,0 1,0 0,0 0,0 0,0zm3 0c2,0 2,0 2,1 0,0 -2,2 -2,2 -1,1 -1,1 -1,0 0,0 0,-2 1,-2 0,-1 0,-1 0,-1 0,0 0,0 0,0zm-11 1c0,0 1,0 1,0 0,2 -1,3 -1,3 -2,0 -2,0 -2,0 0,-1 0,-3 2,-3 0,0 0,0 0,0 0,0 0,0 0,0zm15 0c0,0 0,0 0,0 0,2 0,3 0,3 -1,0 -1,0 -1,0 0,-1 0,-1 1,-3 0,0 0,0 0,0zm-11 2c0,0 0,0 0,0 0,1 0,1 -1,2 0,0 0,0 0,-1 0,0 0,-1 0,-1 1,0 1,0 1,0 0,0 0,0 0,0l0 0zm4 0c0,0 0,0 0,1 0,0 0,1 -1,1 0,2 -1,2 -1,0 0,0 1,-1 1,-1 0,-1 0,-1 1,-1 0,0 0,0 0,0zm3 1c2,0 2,0 2,0 0,1 -2,3 -2,3 -1,0 -1,0 -1,0 0,-2 0,-2 1,-3 0,0 0,0 0,0zm-11 1c0,0 1,0 1,0 0,2 -1,2 -1,3 -2,0 -2,0 -2,-1 0,0 0,-2 2,-2 0,0 0,0 0,0 0,0 0,0 0,0l0 0zm4 0c0,0 0,0 0,2 0,0 0,1 -1,1 0,1 0,1 0,0 0,0 0,-1 0,-1 1,-2 1,-2 1,-2zm4 2c0,0 0,0 0,0 0,1 0,2 -1,2 0,0 -1,0 -1,0 0,-1 1,-1 1,-2 0,0 1,0 1,0zm-8 1c1,0 1,0 1,1 0,0 -1,2 -1,2 -2,1 -2,1 -2,0 0,0 0,-2 2,-2 0,-1 0,-1 0,-1zm-81 1l0 115 49 0 0 -115 -49 0zm85 0c0,0 0,0 0,0 0,2 0,3 -1,3 0,0 0,0 0,0 0,-1 0,-1 0,-3 1,0 1,0 1,0zm-4 3c1,0 1,0 1,0 0,2 -1,3 -1,3 -2,0 -2,0 -2,0 0,-1 0,-1 2,-3 0,0 0,0 0,0zm-74 6l35 0 0 5 -35 0 0 -5zm0 8l35 0 0 6 -35 0 0 -6zm0 7l35 0 0 6 -35 0 0 -6zm0 9l35 0 0 5 -35 0 0 -5zm29 7c0,0 0,0 0,0 0,0 0,0 0,0 0,0 0,0 2,0 0,0 0,0 0,0 0,0 0,1 0,1 0,0 0,0 0,0l0 3c0,0 0,0 0,1 0,0 0,0 0,0 -2,0 -2,0 -2,0 0,0 0,0 0,0 0,0 0,0 0,0 0,0 0,0 0,0 0,0 0,0 0,0 0,-1 0,-1 0,-1l0 -3c0,0 0,-1 0,-1 0,0 0,0 0,0 0,0 0,0 0,0 0,0 0,0 0,0 0,0 0,0 0,0l0 0zm-1 1c0,0 0,0 0,0 0,0 1,1 1,1 0,0 -1,0 -1,0 0,0 0,2 0,2 -2,1 -2,2 0,2 1,2 3,2 4,0 0,-1 0,-2 -1,-4 0,0 0,0 0,0 0,0 0,0 0,0 0,0 0,0 0,0 0,0 0,0 0,0 0,0 0,0 0,0 0,0 0,0 0,0 0,0 0,0 0,0 0,0 0,0 1,0 0,0 0,0 0,0 2,0 2,3 0,4 -1,2 -3,3 -4,2 -2,-2 -3,-4 -2,-6 0,0 0,0 2,0 0,0 0,0 0,0 0,0 0,0 0,0 0,0 0,0 0,0 0,-1 0,-1 0,-1 0,0 0,0 0,0l0 0 0 0 0 0zm-25 1c1,0 2,0 2,2 0,1 -1,1 -2,1 0,0 -2,0 -2,-1 0,-2 2,-2 2,-2zm6 0c1,0 2,0 2,2 0,1 -1,1 -2,1 0,0 -2,0 -2,-1 0,-2 2,-2 2,-2zm-12 44c0,0 0,0 0,0 0,0 0,0 0,0 0,0 0,0 0,0 0,0 0,0 0,0 0,0 0,0 0,0 0,0 0,0 0,0 0,0 0,0 0,0 0,0 0,0 0,0 0,0 0,0 0,0 0,0 0,0 0,0 0,0 0,0 0,0 0,0 0,0 0,0 0,0 0,0 0,0 0,0 0,0 0,0 0,0 0,0 0,0 0,0 0,0 0,0l39 0c0,0 0,0 0,0 0,0 2,0 2,1 0,0 -2,0 -2,0 0,0 0,0 0,0l-39 0c0,0 0,0 0,0 0,0 -1,0 -1,0 0,-1 0,-1 1,-1l0 0zm0 4c0,0 0,0 0,0 0,0 0,0 0,0 0,0 0,0 0,0 0,0 0,0 0,0 0,0 0,0 0,0 0,0 0,0 0,0 0,0 0,0 0,0 0,0 0,0 0,0 0,0 0,0 0,0 0,0 0,0 0,0 0,0 0,0 0,0 0,0 0,0 0,0 0,0 0,0 0,0 0,0 0,0 0,0 0,0 0,0 0,0 0,0 0,0 0,0l39 0c0,0 0,0 0,0 0,0 2,0 2,0 0,1 -2,1 -2,1 0,0 0,0 0,0l-39 0c0,0 0,0 0,0 0,0 -1,0 -1,-1 0,0 0,0 1,0l0 0zm0 2c0,0 0,0 0,0 0,0 0,0 0,0 0,0 0,0 0,0 0,0 0,0 0,0 0,0 0,0 0,0 0,0 0,0 0,0 0,0 0,0 0,0 0,0 0,0 0,0 0,0 0,0 0,0 0,0 0,0 0,0 0,0 0,0 0,0 0,0 0,0 0,0 0,0 0,0 0,0 0,0 0,0 0,0 0,0 0,0 0,0 0,0 0,0 0,0l39 0c0,0 0,0 0,0 0,0 2,2 2,2 0,1 -2,1 -2,1 0,0 0,0 0,0l-39 0c0,0 0,0 0,0 0,0 -1,0 -1,-1 0,0 0,0 1,-2l0 0zm0 5c0,0 0,0 0,0 0,0 0,0 0,0 0,0 0,0 0,0 0,0 0,0 0,0 0,0 0,0 0,0 0,0 0,0 0,0 0,0 0,0 0,0 0,0 0,0 0,0 0,0 0,0 0,0 0,0 0,0 0,0 0,0 0,0 0,0 0,0 0,0 0,0 0,0 0,0 0,0 0,0 0,0 0,0 0,0 0,0 0,0 0,0 0,0 0,0l39 0c0,0 0,0 0,0 0,0 2,1 2,1 0,0 -2,1 -2,1 0,0 0,0 0,0l-39 0c0,0 0,0 0,0 0,0 -1,-1 -1,-1 0,0 0,-1 1,-1l0 0zm0 4c0,0 0,0 0,0 0,0 0,0 0,0 0,0 0,0 0,0 0,0 0,0 0,0 0,0 0,0 0,0 0,0 0,0 0,0 0,0 0,0 0,0 0,0 0,0 0,0 0,0 0,0 0,0 0,0 0,0 0,0 0,0 0,0 0,0 0,0 0,0 0,0 0,0 0,0 0,0 0,0 0,0 0,0 0,0 0,0 0,0 0,0 0,0 0,0l39 0c0,0 0,0 0,0 0,0 2,0 2,1 0,0 -2,0 -2,0 0,0 0,0 0,0l-39 0c0,0 0,0 0,0 0,0 -1,0 -1,0 0,-1 0,-1 1,-1l0 0zm0 4c0,0 0,0 0,0 0,0 0,0 0,0 0,0 0,0 0,0 0,0 0,0 0,0 0,0 0,0 0,0 0,0 0,0 0,0 0,0 0,0 0,0 0,0 0,0 0,0 0,0 0,0 0,0 0,0 0,0 0,0 0,0 0,0 0,0 0,0 0,0 0,0 0,0 0,0 0,0 0,0 0,0 0,0 0,0 0,0 0,0 0,0 0,0 0,0l39 0c0,0 0,0 0,0 0,0 2,0 2,2 0,0 -2,0 -2,0 0,0 0,0 0,0l-39 0c0,0 0,0 0,0 0,0 -1,0 -1,0 0,-2 0,-2 1,-2l0 0zm0 4c0,0 0,0 0,0 0,0 0,0 0,0 0,0 0,0 0,0 0,0 0,0 0,0 0,0 0,0 0,0 0,0 0,0 0,0 0,0 0,0 0,0 0,0 0,0 0,0 0,0 0,0 0,0 0,0 0,0 0,0 0,0 0,0 0,0 0,0 0,0 0,0 0,0 0,0 0,0 0,0 0,0 0,0 0,0 0,0 0,0 0,0 0,0 0,0l39 0c0,0 0,0 0,0 0,0 0,0 0,0 0,0 0,0 0,0 0,0 0,0 0,0 0,0 0,0 0,0 0,0 2,0 2,0 0,0 0,0 0,0 0,0 0,0 0,0 0,0 0,0 0,0 0,0 0,0 0,0 0,0 0,0 0,0 0,0 0,0 0,0 0,0 0,0 0,0 0,0 0,0 0,0 0,0 0,0 0,0 0,0 0,0 0,0 0,0 0,0 0,0 0,0 0,0 0,0 0,0 0,0 0,0 0,2 0,2 0,2 0,0 0,0 0,0 0,0 0,0 0,0 0,0 -2,0 -2,0 0,0 0,0 0,0 0,0 0,0 0,0l-39 0c0,0 0,0 0,0 0,0 -1,0 -1,-2 0,0 0,0 1,0l0 0z"/>
  </g>
  <g id="_252675852016">
   <path class="fil6" d="M75 279c-16,0 -30,-6 -37,-14l0 10c0,12 16,22 37,22 23,0 39,-10 39,-22l0 -10c-6,8 -20,14 -39,14z"/>
   <path class="fil6" d="M49 268c15,10 39,10 54,0 16,-9 16,-23 0,-31 -15,-9 -39,-9 -54,0 -16,8 -16,22 0,31zm18 -25l4 -2 -1 8 -14 0 4 -1 -10 -5 7 -6 10 6 0 0 0 0zm32 5l-4 -3 -10 6 -7 -4 10 -6 -4 -1 14 0 1 8 0 0zm-14 14l-4 3 1 -9 14 -1 -4 3 10 6 -7 4 -10 -6 0 0zm-31 3l-2 -9 4 3 10 -5 8 4 -10 6 4 2 -14 -1 0 0 0 0z"/>
  </g>
 </g>
</svg>
