<?xml version="1.0" encoding="UTF-8"?>
<!DOCTYPE svg PUBLIC "-//W3C//DTD SVG 1.1//EN" "http://www.w3.org/Graphics/SVG/1.1/DTD/svg11.dtd">
<!-- Creator: CorelDRAW X7 -->
<svg xmlns="http://www.w3.org/2000/svg" xml:space="preserve" width="350px" height="600px" version="1.1" style="shape-rendering:geometricPrecision; text-rendering:geometricPrecision; image-rendering:optimizeQuality; fill-rule:evenodd; clip-rule:evenodd"
viewBox="0 0 350 600"
 xmlns:xlink="http://www.w3.org/1999/xlink"
 xmlns:dc="http://purl.org/dc/elements/1.1/"
 xmlns:cc="http://creativecommons.org/ns#"
 xmlns:rdf="http://www.w3.org/1999/02/22-rdf-syntax-ns#"
 xmlns:svg="http://www.w3.org/2000/svg"
 xmlns:sodipodi="http://sodipodi.sourceforge.net/DTD/sodipodi-0.dtd"
 xmlns:inkscape="http://www.inkscape.org/namespaces/inkscape"
 enable-background="new 0 0 90 90">
 <defs>
  <style type="text/css">
   <![CDATA[
    .str0 {stroke:#373435;stroke-width:2.36222}
    .fil0 {fill:#373435}
    .fil2 {fill:#F58634}
    .fil4 {fill:#ED3237}
    .fil5 {fill:#00A859}
    .fil3 {fill:#3E4095}
    .fil1 {fill:black}
    .fil6 {fill:#FEFEFE;fill-rule:nonzero}
   ]]>
  </style>
 </defs>
 <g id="Layer_x0020_1">
  <metadata id="CorelCorpID_0Corel-Layer"/>
  <rect class="fil0 str0" x="43" y="106" width="30.0001" height="176.041"/>
  <rect class="fil0 str0" x="43" y="336" width="30.0001" height="139.971"/>
  <g id="_31471642080">
   <g>
    <path class="fil1" d="M101 34l-54 0 0 0 0 -8c0,-5 -4,-8 -8,-8l-26 0c-4,0 -7,3 -7,8l0 67c0,2 1,4 3,6 0,0 1,1 2,1 1,0 1,0 2,0l26 0c1,0 2,0 2,0 1,0 2,-1 3,-1 1,-2 3,-4 3,-6l0 -3 15 0 0 0 0 6 -10 0c-1,0 -3,1 -3,2l0 5c0,2 2,2 3,2l31 0c1,0 3,0 3,-2l0 -5c0,-1 -2,-2 -3,-2l-9 0 0 -6 27 0c4,0 8,-4 8,-8l0 -41c0,-4 -4,-7 -8,-7zm-57 59c0,0 0,1 0,2 -1,1 -3,2 -5,2l0 0 -25 0 0 0c-2,0 -4,-1 -5,-2 0,-1 0,-2 0,-2l0 -67c0,-1 0,-2 0,-2 1,-2 3,-3 5,-3l0 0 25 0 0 0c2,0 4,1 5,3 0,0 0,1 0,2l0 67zm3 -20l0 -30 52 0c0,0 1,0 1,0l0 29c0,0 -1,1 -1,1l-52 0 0 0zm36 26l0 4 -31 0 0 -4 10 0c1,0 3,-2 3,-3l0 -6 6 0 0 0 0 6c0,1 1,3 3,3l9 0zm23 -17c0,3 -2,5 -5,5l-54 0 0 0 0 -12 52 0c2,0 3,-1 3,-3l0 -29c0,-2 -1,-3 -3,-3l-52 0 0 0 0 -3 54 0c3,0 5,1 5,4l0 41z"/>
    <circle class="fil1" cx="68" cy="81" r="2"/>
    <path class="fil1" d="M41 99l0 4 -31 0 0 -4c0,0 -1,-1 -2,-2 0,1 0,1 0,1l0 5c0,2 1,2 3,2l30 0c2,0 3,0 3,-2l0 -5c0,0 0,0 0,-1 -1,1 -1,2 -3,2z"/>
    <circle class="fil1" cx="26" cy="88" r="2"/>
    <path class="fil1" d="M38 31c0,0 0,0 0,0l-23 0c0,0 0,0 0,0 -1,1 -2,2 -2,3l0 0 0 5 0 0c0,1 1,2 2,3 0,0 0,0 0,0l23 0c0,0 0,0 0,0 1,-1 2,-2 2,-3l0 0 0 -5 0 0c0,-1 -1,-2 -2,-3zm0 8l-22 0 0 -5 22 0 0 5z"/>
    <polygon class="fil1" points="16,63 16,65 36,65 36,63 36,62 16,62 "/>
    <polygon class="fil1" points="16,68 16,70 36,70 36,68 36,68 16,68 "/>
    <polygon class="fil1" points="16,73 16,74 36,74 36,73 36,71 16,71 "/>
    <polygon class="fil1" points="16,78 16,79 36,79 36,78 36,77 16,77 "/>
   </g>
  </g>
  <g id="_31471642400">
   <path class="fil1" d="M62 449l-48 32 39 0 45 -32 -36 0zm38 0l-46 33 0 96 48 -40 0 -89 -2 0zm-4 12c1,0 1,0 1,0 0,1 -1,2 -1,2 -1,1 -1,0 -1,0 0,-1 0,-2 1,-2 0,0 0,0 0,0zm-3 2c0,0 1,0 1,1 0,0 -1,1 -1,1 -1,1 -2,1 -2,0 0,0 1,-1 2,-2 0,0 0,0 0,0zm3 1c1,0 1,0 1,0 0,1 -1,2 -1,2 -1,1 -1,1 -1,0 0,-1 0,-1 1,-2 0,0 0,0 0,0zm-6 1c0,1 0,1 0,1 0,1 0,1 -1,2 0,0 -1,0 -1,0 0,-1 1,-2 1,-2 1,0 1,-1 1,-1zm3 1c0,0 1,1 1,1 0,0 -1,1 -1,2 -1,0 -2,0 -2,-1 0,0 1,-1 2,-1 0,-1 0,-1 0,-1zm3 1c1,0 1,0 1,1 0,0 -1,1 -1,1 -1,1 -1,1 -1,0 0,0 0,-1 1,-2 0,0 0,0 0,0 0,0 0,0 0,0zm-9 1c0,0 0,0 0,0 0,1 0,2 -1,2 0,1 -1,0 -1,0 0,-1 1,-2 1,-2 0,0 1,0 1,0zm3 1c0,0 0,0 0,0 0,1 0,2 -1,2 0,0 -1,0 -1,0 0,-1 1,-2 1,-2 1,0 1,0 1,0zm3 0c0,0 1,1 1,1 0,1 -1,1 -1,2 -1,0 -2,0 -2,0 0,-1 1,-2 2,-2 0,0 0,0 0,-1 0,0 0,0 0,0zm-9 1c0,0 0,0 0,1 0,0 0,1 -1,2 -1,0 -1,0 -1,-1 0,0 0,-1 1,-2 0,0 1,0 1,0zm12 0c1,0 1,0 1,1 0,0 -1,1 -1,2 -1,0 -1,0 -1,-1 0,0 0,-1 1,-1 0,-1 0,-1 0,-1 0,0 0,0 0,0zm-9 1c0,0 0,0 0,1 0,0 0,1 -1,1 0,1 -1,1 -1,0 0,-1 1,-1 1,-2 0,0 0,0 1,0 0,0 0,0 0,0zm3 1c0,0 0,0 0,0 0,1 0,2 -1,2 0,1 -1,0 -1,0 0,-1 1,-2 1,-2 1,0 1,0 1,0 0,0 0,0 0,0zm-9 0c0,1 0,1 0,1 0,1 -1,1 -1,2 -1,0 -1,0 -1,0 0,-1 0,-2 1,-2 0,0 0,-1 1,-1zm12 1c0,0 1,0 1,0 0,1 -1,2 -1,2 -1,0 -2,0 -2,0 0,-1 1,-2 2,-2 0,0 0,0 0,0 0,0 0,0 0,0zm-9 0c0,0 0,1 0,1 0,0 0,1 -1,2 -1,0 -1,0 -1,-1 0,0 0,-1 1,-1 0,-1 0,-1 0,-1 1,0 1,0 1,0zm12 0c1,0 1,1 1,1 0,1 -1,1 -1,2 -1,0 -1,0 -1,0 0,-1 0,-2 1,-2 0,0 0,-1 0,-1 0,0 0,0 0,0zm-9 1c0,0 0,0 0,1 0,0 0,1 -1,1 0,1 -1,1 -1,0 0,0 1,-1 1,-2 0,0 0,0 1,0 0,0 0,0 0,0zm3 1c0,0 0,0 0,0 0,1 0,2 -1,2 0,1 -1,1 -1,0 0,-1 1,-1 1,-2 1,0 1,0 1,0 0,0 0,0 0,0zm-9 1c0,0 0,0 0,0 0,1 -1,2 -1,2 -1,0 -1,0 -1,0 0,-1 0,-2 1,-2 0,0 0,0 0,0 0,0 0,0 1,0zm12 0c0,0 1,0 1,0 0,1 -1,2 -1,2 -1,1 -2,0 -2,0 0,-1 1,-2 2,-2 0,0 0,0 0,0zm-9 0c0,0 0,1 0,1 0,1 0,1 -1,2 -1,0 -1,0 -1,0 0,-1 0,-2 1,-2 0,0 0,0 0,-1 1,0 1,0 1,0zm3 1c0,0 0,0 0,1 0,0 0,1 -1,2 0,0 -1,0 -1,-1 0,0 1,-1 1,-1 0,-1 0,-1 1,-1 0,0 0,0 0,0zm3 1c0,0 0,0 0,1 0,0 0,1 -1,1 0,1 -1,1 -1,0 0,0 1,-1 1,-2 1,0 1,0 1,0zm-9 1c0,0 0,0 0,0 0,1 -1,2 -1,2 -1,1 -1,0 -1,0 0,-1 0,-2 1,-2 0,0 0,0 0,0 0,0 0,0 1,0zm3 1c0,0 0,0 0,0 0,1 0,2 -1,2 -1,0 -1,0 -1,0 0,-1 0,-2 1,-2 0,0 1,0 1,0zm3 0c0,0 0,1 0,1 0,1 0,1 -1,2 0,0 -1,0 -1,0 0,-1 1,-2 1,-2 0,-1 1,-1 1,-1zm-6 2c0,0 0,0 0,0 0,1 -1,2 -1,2 -1,1 -1,1 -1,0 0,-1 0,-1 1,-2 0,0 0,0 1,0zm-68 0l0 97 40 0 0 -97 -40 0zm71 1c0,0 0,0 0,0 0,1 0,2 -1,2 -1,1 -1,0 -1,0 0,-1 0,-2 1,-2 0,0 1,0 1,0zm-3 2c0,0 0,0 0,1 0,0 -1,1 -1,1 -1,1 -1,1 -1,0 0,0 0,-1 1,-2 0,0 0,0 1,0zm-63 5l29 0 0 5 -29 0 0 -5zm0 6l29 0 0 5 -29 0 0 -5zm0 7l29 0 0 5 -29 0 0 -5zm0 6l29 0 0 5 -29 0 0 -5zm25 7c0,0 0,0 0,0 0,0 0,0 0,0 0,0 0,0 0,0 0,0 1,0 1,0 0,0 0,0 0,0 0,0 0,0 0,0l0 3c0,0 0,0 0,1 0,0 -1,0 -1,0 0,0 0,0 0,0 0,0 0,0 0,0 0,0 0,0 0,0 0,0 0,0 0,0 0,0 0,0 0,0 0,-1 0,-1 0,-1l0 -3c0,0 0,0 0,0 0,0 0,0 0,0 0,0 0,0 0,0 0,0 0,0 0,0 0,0 0,0 0,0l0 0zm-1 1c0,0 0,0 0,0 0,0 0,0 0,1 0,0 0,0 0,0 0,0 0,0 -1,1 0,1 0,2 1,2 1,1 2,1 3,0 0,-1 0,-2 -1,-3 0,0 0,0 0,0 0,0 0,0 0,0 0,0 0,0 0,0 0,0 0,0 0,0 0,-1 0,-1 0,-1 0,0 0,0 0,0 0,0 0,0 1,0 0,0 0,0 0,0 0,0 0,0 0,0 1,1 2,3 1,5 -1,1 -3,1 -5,0 -1,-1 -1,-3 0,-4 0,0 0,0 0,-1 0,0 0,0 0,0 0,0 0,0 0,0 0,0 0,0 0,0 1,0 1,0 1,0 0,0 0,0 0,0l0 0zm-21 0c1,0 2,1 2,2 0,1 -1,2 -2,2 -1,0 -1,-1 -1,-2 0,-1 0,-2 1,-2zm5 0c1,0 2,1 2,2 0,1 -1,2 -2,2 -1,0 -2,-1 -2,-2 0,-1 1,-2 2,-2zm-10 37c0,0 0,0 0,0 0,0 0,0 0,0 0,0 0,0 0,0 0,0 0,0 0,0 0,0 0,0 0,0 0,0 0,0 0,0 0,0 0,0 0,0 0,0 0,0 0,0 0,0 0,0 0,0 0,0 0,0 0,0 0,0 0,0 0,0 0,0 0,0 0,0 0,0 0,0 0,0 0,0 0,0 0,0 0,0 0,0 0,0 0,0 0,0 0,0l33 0c0,0 0,0 0,0 0,0 1,0 1,1 0,0 -1,0 -1,0 0,0 0,0 0,0l-33 0c0,0 0,0 0,0 0,0 -1,0 -1,0 0,-1 0,-1 1,-1l0 0zm0 3c0,0 0,0 0,0 0,0 0,0 0,0 0,0 0,0 0,0 0,0 0,0 0,0 0,0 0,0 0,0 0,0 0,0 0,0 0,0 0,0 0,0 0,0 0,0 0,0 0,0 0,0 0,0 0,0 0,0 0,0 0,0 0,0 0,0 0,0 0,0 0,0 0,0 0,0 0,0 0,0 0,0 0,0 0,0 0,0 0,0 0,0 0,0 0,0l33 0c0,0 0,0 0,0 0,0 1,0 1,1 0,0 -1,1 -1,1 0,0 0,0 0,0l-33 0c0,0 0,0 0,0 0,0 -1,-1 -1,-1 0,0 0,-1 1,-1l0 0zm0 3c0,0 0,0 0,0 0,0 0,0 0,0 0,0 0,0 0,0 0,0 0,0 0,0 0,0 0,0 0,0 0,0 0,0 0,0 0,0 0,0 0,0 0,0 0,0 0,0 0,0 0,0 0,0 0,0 0,0 0,0 0,0 0,0 0,0 0,0 0,0 0,0 0,0 0,0 0,0 0,0 0,0 0,0 0,0 0,0 0,0 0,0 0,0 0,0l33 0c0,0 0,0 0,0 0,0 1,1 1,1 0,1 -1,1 -1,1 0,0 0,0 0,0l-33 0c0,0 0,0 0,0 0,0 -1,0 -1,-1 0,0 0,-1 1,-1l0 0zm0 4c0,0 0,0 0,0 0,0 0,0 0,0 0,0 0,0 0,0 0,0 0,0 0,0 0,0 0,0 0,0 0,0 0,0 0,0 0,0 0,0 0,0 0,0 0,0 0,0 0,0 0,0 0,0 0,0 0,0 0,0 0,0 0,0 0,0 0,0 0,0 0,0 0,0 0,0 0,0 0,0 0,0 0,0 0,0 0,0 0,0 0,0 0,0 0,0l33 0c0,0 0,0 0,0 0,0 1,0 1,0 0,1 -1,1 -1,1 0,0 0,0 0,0l-33 0c0,0 0,0 0,0 0,0 -1,0 -1,-1 0,0 0,0 1,0l0 0zm0 3c0,0 0,0 0,0 0,0 0,0 0,0 0,0 0,0 0,0 0,0 0,0 0,0 0,0 0,0 0,0 0,0 0,0 0,0 0,0 0,0 0,0 0,0 0,0 0,0 0,0 0,0 0,0 0,0 0,0 0,0 0,0 0,0 0,0 0,0 0,0 0,0 0,0 0,0 0,0 0,0 0,0 0,0 0,0 0,0 0,0 0,0 0,0 0,0l33 0c0,0 0,0 0,0 0,0 1,0 1,1 0,0 -1,0 -1,0 0,0 0,0 0,0l-33 0c0,0 0,0 0,0 0,0 -1,0 -1,0 0,-1 0,-1 1,-1l0 0zm0 3c0,0 0,0 0,0 0,0 0,0 0,0 0,0 0,0 0,0 0,0 0,0 0,0 0,0 0,0 0,0 0,0 0,0 0,0 0,0 0,0 0,0 0,0 0,0 0,0 0,0 0,0 0,0 0,0 0,0 0,0 0,0 0,0 0,0 0,0 0,0 0,0 0,0 0,0 0,0 0,0 0,0 0,0 0,0 0,0 0,0 0,0 0,0 0,0l33 0c0,0 0,0 0,0 0,0 1,0 1,1 0,0 -1,1 -1,1 0,0 0,0 0,0l-33 0c0,0 0,0 0,0 0,0 -1,-1 -1,-1 0,-1 0,-1 1,-1l0 0zm0 3c0,0 0,0 0,0 0,0 0,0 0,0 0,0 0,0 0,0 0,0 0,0 0,0 0,0 0,0 0,0 0,0 0,0 0,0 0,0 0,0 0,0 0,0 0,0 0,0 0,0 0,0 0,0 0,0 0,0 0,0 0,0 0,0 0,0 0,0 0,0 0,0 0,0 0,0 0,0 0,0 0,0 0,0 0,0 0,0 0,0 0,0 0,0 0,0l33 0c0,0 0,0 0,0 0,0 0,0 0,0 0,0 0,0 0,0 0,0 0,0 0,0 0,0 0,0 0,0 0,0 0,1 0,1 0,0 0,0 0,0 0,0 0,0 1,0 0,0 0,0 0,0 0,0 0,0 0,0 0,0 0,0 0,0 0,0 0,0 0,0 0,0 0,0 0,0 0,0 0,0 0,0 0,0 0,0 0,0 0,0 0,0 0,0 0,0 0,0 0,0 0,0 0,0 0,0 0,0 0,0 0,0 0,0 0,0 0,0 -1,0 -1,0 -1,1 0,0 0,0 0,0 0,0 0,0 0,0 0,0 0,0 0,0 0,0 0,0 0,0l-33 0c0,0 0,0 0,0 0,0 -1,0 -1,-1 0,0 0,-1 1,-1l0 0z"/>
  </g>
  <g id="_31471641152">
   <path class="fil1" d="M58 319c-16,0 -30,-5 -37,-13l0 9c0,12 17,21 37,21 20,0 36,-9 36,-21l0 -9c-7,8 -20,13 -36,13z"/>
   <path class="fil1" d="M32 309c14,8 37,8 51,0 14,-8 14,-21 0,-29 -14,-8 -37,-8 -51,0 -14,8 -14,21 0,29zm18 -23l4 -3 -2 8 -14 1 4 -2 -9 -5 8 -5 9 6zm30 4l-4 -2 -9 5 -8 -4 10 -5 -4 -2 13 1 2 7zm-14 13l-4 2 2 -7 13 -1 -4 2 9 5 -7 4 -9 -5zm-28 3l-2 -8 3 3 10 -6 7 5 -9 5 4 2 -13 -1z"/>
  </g>
  <rect class="fil2 str0" x="295" y="33" width="30.0001" height="66.0003"/>
  <rect class="fil3 str0" x="168" y="33" width="30.0001" height="66.0003"/>
  <rect class="fil0 str0" x="126" y="33" width="30.0001" height="66.0003"/>
  <rect class="fil4 str0" x="210" y="33" width="30.0001" height="66.0003"/>
  <rect class="fil5 str0" x="253" y="33" width="30.0001" height="66.0003"/>
  <path class="fil6" d="M316 49l-3 0 -1 -3 -4 0 -1 3 -3 0 5 -12 2 0 5 12zm-4 -5l-2 -4 -2 4 4 0z"/>
  <path id="1" class="fil6" d="M306 68l0 -12 4 0c1,0 2,0 2,0 1,0 2,0 2,1 1,1 1,1 1,2 0,1 0,2 -1,2 0,1 0,1 -1,1 0,1 0,1 -1,1 0,0 -1,0 -2,0l-2 0 0 5 -2 0zm2 -10l0 3 1 0c1,0 2,0 2,0 1,0 1,0 1,-1 0,0 0,0 0,-1 0,0 0,0 0,-1 0,0 -1,0 -1,0 0,0 -1,0 -2,0l-1 0z"/>
  <polygon id="2" class="fil6" points="306,86 306,74 309,74 309,84 315,84 315,86 "/>
  <rect class="fil2 str0" x="295" y="503" width="30.0001" height="66.0003"/>
  <path class="fil6" d="M316 519l-3 0 -1 -3 -4 0 -1 3 -3 0 5 -12 2 0 5 12zm-4 -5l-2 -4 -2 4 4 0z"/>
  <path id="1" class="fil6" d="M306 538l0 -12 4 0c1,0 2,0 2,0 1,0 2,0 2,1 1,1 1,1 1,2 0,1 0,2 -1,2 0,1 0,1 -1,1 0,1 0,1 -1,1 0,0 -1,0 -2,0l-2 0 0 5 -2 0zm2 -10l0 3 1 0c1,0 2,0 2,0 1,0 1,0 1,-1 0,0 0,0 0,-1 0,0 0,0 0,-1 0,0 -1,0 -1,0 0,0 -1,0 -2,0l-1 0z"/>
  <polygon id="2" class="fil6" points="306,556 306,544 309,544 309,554 315,554 315,556 "/>
  <rect class="fil2 str0" x="295" y="33" width="30.0001" height="66.0003"/>
  <path class="fil6" d="M316 49l-3 0 -1 -3 -4 0 -1 3 -3 0 5 -12 2 0 5 12zm-4 -5l-2 -4 -2 4 4 0z"/>
  <path id="1" class="fil6" d="M306 68l0 -12 4 0c1,0 2,0 2,0 1,0 2,0 2,1 1,1 1,1 1,2 0,1 0,2 -1,2 0,1 0,1 -1,1 0,1 0,1 -1,1 0,0 -1,0 -2,0l-2 0 0 5 -2 0zm2 -10l0 3 1 0c1,0 2,0 2,0 1,0 1,0 1,-1 0,0 0,0 0,-1 0,0 0,0 0,-1 0,0 -1,0 -1,0 0,0 -1,0 -2,0l-1 0z"/>
  <polygon id="2" class="fil6" points="306,86 306,74 309,74 309,84 315,84 315,86 "/>
  <rect class="fil2 str0" x="295" y="503" width="30.0001" height="66.0003"/>
  <path class="fil6" d="M316 519l-3 0 -1 -3 -4 0 -1 3 -3 0 5 -12 2 0 5 12zm-4 -5l-2 -4 -2 4 4 0z"/>
  <path id="1" class="fil6" d="M306 538l0 -12 4 0c1,0 2,0 2,0 1,0 2,0 2,1 1,1 1,1 1,2 0,1 0,2 -1,2 0,1 0,1 -1,1 0,1 0,1 -1,1 0,0 -1,0 -2,0l-2 0 0 5 -2 0zm2 -10l0 3 1 0c1,0 2,0 2,0 1,0 1,0 1,-1 0,0 0,0 0,-1 0,0 0,0 0,-1 0,0 -1,0 -1,0 0,0 -1,0 -2,0l-1 0z"/>
  <polygon id="2" class="fil6" points="306,556 306,544 309,544 309,554 315,554 315,556 "/>
  <polygon class="fil6" points="267,49 267,38 263,38 263,37 272,37 272,38 269,38 269,49 "/>
  <path id="1" class="fil6" d="M263 68l0 -12 5 0c1,0 2,0 3,0 0,0 1,1 1,1 0,1 1,1 1,2 0,1 -1,1 -1,2 -1,1 -2,1 -3,1 1,0 1,1 1,1 1,0 1,1 1,1l3 4 -2 0 -2 -3c0,-1 -1,-1 -1,-2 0,0 -1,0 -1,0 0,0 0,-1 -1,-1 0,0 0,0 -1,0l-1 0 0 6 -2 0zm2 -7l3 0c1,0 1,0 2,0 0,0 0,-1 1,-1 0,0 0,-1 0,-1 0,-1 0,-1 -1,-1 0,-1 -1,-1 -2,-1l-3 0 0 4z"/>
  <path id="2" class="fil6" d="M262 86l5 -12 1 0 5 12 -1 0 -2 -3 -5 0 -1 3 -2 0zm4 -5l4 0 -2 -3c0,-1 0,-2 0,-2 -1,0 -1,1 -1,2l-1 3z"/>
  <rect class="fil5 str0" x="253" y="503" width="30.0001" height="66.0003"/>
  <polygon class="fil6" points="267,519 267,508 263,508 263,507 272,507 272,508 269,508 269,519 "/>
  <path id="1" class="fil6" d="M263 538l0 -12 5 0c1,0 2,0 3,0 0,0 1,1 1,1 0,1 1,1 1,2 0,1 -1,1 -1,2 -1,1 -2,1 -3,1 1,0 1,1 1,1 1,0 1,1 1,1l3 4 -2 0 -2 -3c0,-1 -1,-1 -1,-2 0,0 -1,0 -1,0 0,0 0,-1 -1,-1 0,0 0,0 -1,0l-1 0 0 6 -2 0zm2 -7l3 0c1,0 1,0 2,0 0,0 0,-1 1,-1 0,0 0,-1 0,-1 0,-1 0,-1 -1,-1 0,-1 -1,-1 -2,-1l-3 0 0 4z"/>
  <path id="2" class="fil6" d="M262 556l5 -12 1 0 5 12 -1 0 -2 -3 -5 0 -1 3 -2 0zm4 -5l4 0 -2 -3c0,-1 0,-2 0,-2 -1,0 -1,1 -1,2l-1 3z"/>
  <path class="fil6" d="M221 49l0 -12 5 0c1,0 2,0 3,0 0,1 1,1 1,2 0,0 0,1 0,1 0,1 0,2 0,3 -1,0 -2,1 -3,1 1,0 1,0 2,1 0,0 0,1 1,2l1 2 -2 0 -2 -3c-1,-1 -1,-1 -1,-1 -1,-1 -1,-1 -1,-1 0,0 -1,0 -1,0l-1 0 0 5 -2 0zm2 -7l2 0c1,0 2,0 2,0 0,0 1,0 1,-1 0,0 0,0 0,0 0,-1 0,-1 0,-1 -1,-1 -1,-1 -1,-1 0,0 -1,0 -2,0l-2 0 0 3z"/>
  <polygon id="1" class="fil6" points="221,68 221,56 230,56 230,58 224,58 224,60 230,60 230,62 224,62 224,66 230,66 230,68 "/>
  <path id="2" class="fil6" d="M221 74l4 0c1,0 2,0 2,1 1,0 2,0 2,1 1,0 1,1 1,2 1,0 1,1 1,2 0,1 0,2 -1,3 0,1 0,1 -1,2 0,0 -1,1 -2,1 0,0 -1,0 -2,0l-4 0 0 -12zm2 2l0 8 2 0c1,0 1,0 1,0 1,0 1,0 1,0 1,-1 1,-1 1,-2 0,0 0,-1 0,-2 0,-1 0,-1 0,-2 0,0 0,-1 -1,-1 0,0 0,0 -1,-1 0,0 -1,0 -2,0l-1 0z"/>
  <rect class="fil4 str0" x="211" y="283" width="30.0001" height="66.0003"/>
  <path class="fil6" d="M221 299l0 -12 5 0c1,0 2,0 3,0 0,1 1,1 1,2 0,0 0,1 0,1 0,1 0,2 0,3 -1,0 -2,1 -3,1 1,0 1,0 2,1 0,0 0,1 1,2l1 2 -2 0 -2 -3c-1,-1 -1,-1 -1,-1 -1,-1 -1,-1 -1,-1 0,0 -1,0 -1,0l-1 0 0 5 -2 0zm2 -7l2 0c1,0 2,0 2,0 0,0 1,0 1,-1 0,0 0,0 0,0 0,-1 0,-1 0,-1 -1,-1 -1,-1 -1,-1 0,0 -1,0 -2,0l-2 0 0 3z"/>
  <polygon id="1" class="fil6" points="221,318 221,306 230,306 230,308 224,308 224,310 230,310 230,312 224,312 224,316 230,316 230,318 "/>
  <path id="2" class="fil6" d="M221 324l4 0c1,0 2,0 2,1 1,0 2,0 2,1 1,0 1,1 1,2 1,0 1,1 1,2 0,1 0,2 -1,3 0,1 0,1 -1,2 0,0 -1,1 -2,1 0,0 -1,0 -2,0l-4 0 0 -12zm2 2l0 8 2 0c1,0 1,0 1,0 1,0 1,0 1,0 1,-1 1,-1 1,-2 0,0 0,-1 0,-2 0,-1 0,-1 0,-2 0,0 0,-1 -1,-1 0,0 0,0 -1,-1 0,0 -1,0 -2,0l-1 0z"/>
  <rect class="fil4 str0" x="211" y="503" width="30.0001" height="66.0003"/>
  <path class="fil6" d="M221 519l0 -12 5 0c1,0 2,0 3,0 0,1 1,1 1,2 0,0 0,1 0,1 0,1 0,2 0,3 -1,0 -2,1 -3,1 1,0 1,0 2,1 0,0 0,1 1,2l1 2 -2 0 -2 -3c-1,-1 -1,-1 -1,-1 -1,-1 -1,-1 -1,-1 0,0 -1,0 -1,0l-1 0 0 5 -2 0zm2 -7l2 0c1,0 2,0 2,0 0,0 1,0 1,-1 0,0 0,0 0,0 0,-1 0,-1 0,-1 -1,-1 -1,-1 -1,-1 0,0 -1,0 -2,0l-2 0 0 3z"/>
  <polygon id="1" class="fil6" points="221,538 221,526 230,526 230,528 224,528 224,530 230,530 230,532 224,532 224,536 230,536 230,538 "/>
  <path id="2" class="fil6" d="M221 544l4 0c1,0 2,0 2,1 1,0 2,0 2,1 1,0 1,1 1,2 1,0 1,1 1,2 0,1 0,2 -1,3 0,1 0,1 -1,2 0,0 -1,1 -2,1 0,0 -1,0 -2,0l-4 0 0 -12zm2 2l0 8 2 0c1,0 1,0 1,0 1,0 1,0 1,0 1,-1 1,-1 1,-2 0,0 0,-1 0,-2 0,-1 0,-1 0,-2 0,0 0,-1 -1,-1 0,0 0,0 -1,-1 0,0 -1,0 -2,0l-1 0z"/>
  <polygon class="fil6" points="179,49 179,37 188,37 188,39 181,39 181,42 187,42 187,44 181,44 181,47 188,47 188,49 "/>
  <polygon id="1" class="fil6" points="178,68 178,56 181,56 186,64 186,56 188,56 188,68 186,68 181,60 181,68 "/>
  <polygon id="2" class="fil6" points="179,86 179,74 182,74 182,84 188,84 188,86 "/>
  <rect class="fil3 str0" x="168" y="283" width="30.0001" height="66.0003"/>
  <polygon class="fil6" points="179,299 179,287 188,287 188,289 181,289 181,292 187,292 187,294 181,294 181,297 188,297 188,299 "/>
  <polygon id="1" class="fil6" points="178,318 178,306 181,306 186,314 186,306 188,306 188,318 186,318 181,310 181,318 "/>
  <polygon id="2" class="fil6" points="179,336 179,324 182,324 182,334 188,334 188,336 "/>
  <rect class="fil3 str0" x="168" y="503" width="30.0001" height="66.0003"/>
  <polygon class="fil6" points="179,519 179,507 188,507 188,509 181,509 181,512 187,512 187,514 181,514 181,517 188,517 188,519 "/>
  <polygon id="1" class="fil6" points="178,538 178,526 181,526 186,534 186,526 188,526 188,538 186,538 181,530 181,538 "/>
  <polygon id="2" class="fil6" points="179,556 179,544 182,544 182,554 188,554 188,556 "/>
  <polygon class="fil6" points="137,49 137,37 145,37 145,39 140,39 140,42 145,42 145,44 140,44 140,49 "/>
  <polygon id="1" class="fil6" points="140,68 140,56 142,56 142,68 "/>
  <path id="2" class="fil6" d="M136 82l2 0c1,1 1,1 1,2 1,0 1,0 2,0 1,0 1,0 2,0 0,0 0,-1 0,-1 0,-1 0,-1 0,-1 0,0 0,0 -1,0 0,-1 -1,-1 -2,-1 -1,0 -2,-1 -2,-1 -1,-1 -2,-2 -2,-3 0,0 1,-1 1,-1 0,-1 1,-1 1,-2 1,0 2,0 3,0 1,0 2,0 3,1 1,1 1,2 1,3l-2 0c0,-1 0,-1 -1,-2 0,0 -1,0 -1,0 -1,0 -1,0 -2,1 0,0 0,0 0,0 0,1 0,1 0,1 0,0 1,1 2,1 2,0 2,0 3,1 0,0 1,0 1,1 1,0 1,1 1,2 0,0 0,1 -1,2 0,0 -1,1 -1,1 -1,0 -2,0 -3,0 -2,0 -3,0 -4,-1 0,0 -1,-1 -1,-3z"/>
  <rect class="fil0 str0" x="126" y="283" width="30.0001" height="66.0003"/>
  <polygon class="fil6" points="137,299 137,287 145,287 145,289 140,289 140,292 145,292 145,294 140,294 140,299 "/>
  <polygon id="1" class="fil6" points="140,318 140,306 142,306 142,318 "/>
  <path id="2" class="fil6" d="M136 332l2 0c1,1 1,1 1,2 1,0 1,0 2,0 1,0 1,0 2,0 0,0 0,-1 0,-1 0,-1 0,-1 0,-1 0,0 0,0 -1,0 0,-1 -1,-1 -2,-1 -1,0 -2,-1 -2,-1 -1,-1 -2,-2 -2,-3 0,0 1,-1 1,-1 0,-1 1,-1 1,-2 1,0 2,0 3,0 1,0 2,0 3,1 1,1 1,2 1,3l-2 0c0,-1 0,-1 -1,-2 0,0 -1,0 -1,0 -1,0 -1,0 -2,1 0,0 0,0 0,0 0,1 0,1 0,1 0,0 1,1 2,1 2,0 2,0 3,1 0,0 1,0 1,1 1,0 1,1 1,2 0,0 0,1 -1,2 0,0 -1,1 -1,1 -1,0 -2,0 -3,0 -2,0 -3,0 -4,-1 0,0 -1,-1 -1,-3z"/>
  <rect class="fil0 str0" x="126" y="503" width="30.0001" height="66.0003"/>
  <polygon class="fil6" points="137,519 137,507 145,507 145,509 140,509 140,512 145,512 145,514 140,514 140,519 "/>
  <polygon id="1" class="fil6" points="140,538 140,526 142,526 142,538 "/>
  <path id="2" class="fil6" d="M136 552l2 0c1,1 1,1 1,2 1,0 1,0 2,0 1,0 1,0 2,0 0,0 0,-1 0,-1 0,-1 0,-1 0,-1 0,0 0,0 -1,0 0,-1 -1,-1 -2,-1 -1,0 -2,-1 -2,-1 -1,-1 -2,-2 -2,-3 0,0 1,-1 1,-1 0,-1 1,-1 1,-2 1,0 2,0 3,0 1,0 2,0 3,1 1,1 1,2 1,3l-2 0c0,-1 0,-1 -1,-2 0,0 -1,0 -1,0 -1,0 -1,0 -2,1 0,0 0,0 0,0 0,1 0,1 0,1 0,0 1,1 2,1 2,0 2,0 3,1 0,0 1,0 1,1 1,0 1,1 1,2 0,0 0,1 -1,2 0,0 -1,1 -1,1 -1,0 -2,0 -3,0 -2,0 -3,0 -4,-1 0,0 -1,-1 -1,-3z"/>
 </g>
</svg>
