<?xml version="1.0" encoding="UTF-8"?>
<!DOCTYPE svg PUBLIC "-//W3C//DTD SVG 1.1//EN" "http://www.w3.org/Graphics/SVG/1.1/DTD/svg11.dtd">
<!-- Creator: CorelDRAW X7 -->
<svg xmlns="http://www.w3.org/2000/svg" xml:space="preserve" width="2477px" height="2060px" version="1.1" style="shape-rendering:geometricPrecision; text-rendering:geometricPrecision; image-rendering:optimizeQuality; fill-rule:evenodd; clip-rule:evenodd"
viewBox="0 0 2494 2075"
 xmlns:xlink="http://www.w3.org/1999/xlink">
 <defs>
  <style type="text/css">
   <![CDATA[
    .str0 {stroke:#FEFEFE;stroke-width:2.37891}
    .fil0 {fill:#FEFEFE}
    .fil1 {fill:black}
   ]]>
  </style>
 </defs>
 <g id="Layer_x0020_1">
  <metadata id="CorelCorpID_0Corel-Layer"/>
  <rect class="fil0 str0" x="1" y="1" width="2492" height="2072"/>
  <g id="_77334490864">
   <path class="fil1" d="M2343 737l-515 83c0,0 0,-3 0,-3l70 -190c5,-15 -13,-27 -25,-17l-525 424c-7,8 -7,18 0,25l525 425c12,10 30,-3 25,-18l-70 -187c0,0 0,-2 0,-2l515 82c25,5 47,-15 47,-40l0 -539c-2,-28 -22,-45 -47,-43z"/>
   <path class="fil1" d="M654 610c-12,-10 -30,2 -25,17l70 190c0,0 0,3 0,3l-515 -83c-25,-5 -47,15 -47,40l0 540c0,25 22,45 47,40l515 -83c0,3 0,3 0,3l-70 187c-5,15 13,27 25,17l525 -424c7,-8 7,-18 0,-25l-525 -422z"/>
   <path class="fil1" d="M1146 850l-262 -540c-3,-5 -8,-8 -13,-5l-47 25c-5,2 -5,7 -3,12l325 508z"/>
   <path class="fil1" d="M1691 335l-50 -28c-5,-2 -8,0 -10,3l-263 542 325 -505c3,-7 3,-12 -2,-12z"/>
   <path class="fil1" d="M1209 1984c0,15 10,27 25,27l42 0c15,0 25,-12 25,-27l-45 -775 -47 775z"/>
   <path class="fil1" d="M1301 120c0,-15 -10,-27 -25,-27l-42 0c-15,0 -25,12 -25,27l44 774 48 -774z"/>
   <path class="fil1" d="M829 1809l35 20c7,5 17,2 22,-8l260 -534 -320 499c-7,8 -5,18 3,23z"/>
   <path class="fil1" d="M1368 1289l258 530c5,10 17,15 27,10l25 -15c10,-5 13,-20 8,-30l-318 -495z"/>
  </g>
 </g>
</svg>
