<svg xmlns="http://www.w3.org/2000/svg" xmlns:xlink="http://www.w3.org/1999/xlink" version="1.1" x="0px" y="0px" viewBox="0 0 100 125" enable-background="new 0 0 100 100" xml:space="preserve"><g><path fill-rule="evenodd" clip-rule="evenodd" d="M42.34,11.585c10.936,0.369,18.594,5.021,23.299,13.481   c1.994,3.59,2.732,7.457,3.037,11.397c0.461,5.962-0.406,11.747-2.834,17.338c-3.029,6.979-7.828,12.865-14.584,17.563   c-5.159,3.57-9.938,7.465-13.842,12.172c-3.336,4.014-8.176,5.51-13.745,4.521c-5.776-1.033-9.408-4.236-10.848-9.201   c-0.743-2.564-0.443-5.094,0.867-7.512c0.692-1.273,1.92-1.734,3.143-1.246c1.236,0.49,1.615,1.561,1.011,2.861   c-2.174,4.688,0.526,9.652,6.012,11.064c3.802,0.988,7.849-0.285,10.114-3.1c3.695-4.596,8.277-8.473,13.353-11.877   c7.042-4.734,12.024-10.686,14.752-17.996c2.744-7.353,3.1-14.829,0.328-22.211c-2.258-5.997-6.771-10.408-13.862-12.374   c-7.143-1.966-13.731-0.729-19.633,3.248c-3.073,2.067-5.246,4.715-6.64,7.862c-0.586,1.319-1.763,1.882-3.009,1.477   c-1.365-0.443-1.878-1.56-1.241-2.944c3.073-6.634,8.546-11.092,16.343-13.408C36.937,11.936,39.594,11.585,42.34,11.585z    M56.474,27.162c-3.789-5.388-10.867-8.073-17.618-6.781c-7.377,1.402-13.099,7.418-13.371,12.965   c-0.263,5.241,3.244,9.533,9.2,10.585c0.581,0.102,1.153,0.276,1.771,0.203c0.609-0.083,0.965-0.379,1.007-0.914   c0.036-0.535-0.286-0.876-0.868-1.006c-0.415-0.102-0.858-0.12-1.278-0.212c-3.58-0.748-6.266-2.362-7.17-5.657   c-0.447-1.624-0.429-3.276,0.005-4.891c1.629-6.119,9.897-10.557,17.008-9.099c6.214,1.273,9.763,4.973,11.447,10.067   c1.504,4.521,1.375,9.146,0.014,13.695c-1.67,5.554-4.871,10.335-10.012,14.062c-3.05,2.207-5.91,4.578-8.379,7.291   c-0.471,0.525-0.609,1.063,0.009,1.533c0.642,0.496,1.292,0.275,1.74-0.232c2.635-2.98,5.979-5.324,9.145-7.844   c7.263-5.785,10.677-13.077,10.806-21.566C59.962,34.388,58.89,30.614,56.474,27.162z M27.566,47.787   c-3.895,1.209-7.221,3.1-8.721,6.618c-1.661,3.902-0.937,7.723,1.14,11.387c0.54,0.951,1.389,1.68,2.565,2.096   c2.561,0.877,4.545-0.064,6.308-1.541c1.597-1.33,2.547-3.018,3.285-4.799c1.403-3.369,3.981-5.74,7.779-7.143   c1.564-0.582,3.165-1.043,4.789-1.477c6.063-1.598,8.536-6.507,5.62-11.378c-2.164-3.6-5.896-5.095-10.423-5.27   c-2.894-0.11-4.905-1.292-5.837-3.6c-0.24-0.59-0.618-0.996-1.365-0.857c-0.817,0.147-0.97,0.72-0.858,1.347   c0.037,0.231,0.115,0.462,0.222,0.665c1.384,2.759,3.852,4.208,7.275,4.393c3.271,0.185,6.206,0.932,8.296,3.331   c3.151,3.618,1.449,8.176-3.552,9.44c-0.702,0.186-1.408,0.352-2.096,0.555c-3.839,1.125-7.4,2.629-9.805,5.629   c-1.015,1.273-1.734,2.648-2.403,4.078c-0.845,1.801-1.81,3.563-3.918,4.551c-1.592,0.738-2.875,0.414-3.815-0.924   c-0.226-0.313-0.41-0.654-0.577-1.006c-0.659-1.393-0.923-2.869-1.111-4.375c-0.48-3.828,1.527-7.086,5.458-8.867   c3.197-1.44,6.635-1.994,10.183-2.188c0.692-0.036,1.398,0.065,2.081-0.119c0.554-0.148,0.826-0.48,0.789-0.97   c-0.036-0.498-0.318-0.793-0.899-0.894c-0.706-0.111-1.398-0.019-1.901,0C33.029,46.523,30.247,46.957,27.566,47.787z    M73.78,49.236c-0.221,0.747,0.184,1.485,1.145,1.881c2.568,1.08,5.162,2.123,7.752,3.156c1.365,0.555,2.514,0.26,3.035-0.746   c0.498-0.961,0.004-1.865-1.33-2.41c-2.459-1.014-4.926-2.011-7.398-2.999c-0.389-0.156-0.805-0.258-1.08-0.341   C74.796,47.795,74.034,48.349,73.78,49.236z M86.036,40.119c1.125-0.027,2.053-0.896,2.016-1.8s-0.92-1.67-2.045-1.68   c-2.967-0.009-5.934-0.018-8.9,0c-1.25,0.01-2.086,0.775-2.07,1.81c0.008,0.969,0.857,1.661,2.1,1.67c1.465,0.019,2.934,0,4.4,0   C83.03,40.119,84.536,40.146,86.036,40.119z M75.538,28.787c2.791-1.136,5.602-2.243,8.361-3.434   c1.139-0.498,1.406-1.458,0.852-2.344c-0.516-0.82-1.572-1.106-2.67-0.7c-0.67,0.249-1.32,0.535-1.984,0.803   c-2.012,0.82-4.031,1.623-6.031,2.463c-0.996,0.415-1.42,1.265-1.156,2.067c0.24,0.738,1.033,1.236,2.07,1.228   C75.081,28.86,75.335,28.87,75.538,28.787z"/></g></svg>