<?xml version="1.0" encoding="UTF-8"?>
<!DOCTYPE svg PUBLIC "-//W3C//DTD SVG 1.1//EN" "http://www.w3.org/Graphics/SVG/1.1/DTD/svg11.dtd">
<!-- Creator: CorelDRAW X7 -->
<svg xmlns="http://www.w3.org/2000/svg" xml:space="preserve" width="1116px" height="1653px" version="1.1" style="shape-rendering:geometricPrecision; text-rendering:geometricPrecision; image-rendering:optimizeQuality; fill-rule:evenodd; clip-rule:evenodd"
viewBox="0 0 1030 1525"
 xmlns:xlink="http://www.w3.org/1999/xlink">
 <defs>
  <style type="text/css">
   <![CDATA[
    .str1 {stroke:#373435;stroke-width:1.14635}
    .str0 {stroke:#373435;stroke-width:3.0326}
    .fil6 {fill:black}
    .fil3 {fill:#00A859}
    .fil0 {fill:#373435}
    .fil2 {fill:#3E4095}
    .fil1 {fill:#ED3237}
    .fil4 {fill:#F58634}
    .fil7 {fill:#FEFEFE;fill-rule:nonzero}
    .fil5 {fill:#FEFEFE;fill-rule:nonzero}
   ]]>
  </style>
 </defs>
 <g id="Layer_x0020_1">
  <metadata id="CorelCorpID_0Corel-Layer"/>
  <rect class="fil0 str0" x="429" y="49" width="72.4795" height="251.025"/>
  <rect class="fil1 str0" x="682" y="49" width="72.4795" height="251.025"/>
  <rect class="fil2 str0" x="555" y="46" width="72.4795" height="251.025"/>
  <rect class="fil3 str0" x="809" y="46" width="72.4795" height="251.025"/>
  <rect class="fil4 str0" x="932" y="43" width="72.4795" height="251.025"/>
  <rect class="fil0 str0" x="429" y="1142" width="72.4795" height="251.025"/>
  <rect class="fil1 str0" x="682" y="1140" width="72.4795" height="251.025"/>
  <rect class="fil2 str0" x="555" y="1140" width="72.4795" height="251.025"/>
  <rect class="fil3 str0" x="809" y="1137" width="72.4795" height="251.025"/>
  <rect class="fil4 str0" x="932" y="1137" width="72.4795" height="251.025"/>
  <g id="_496697082608">
   <polygon class="fil5" points="840,1197 840,1160 826,1160 826,1151 863,1151 863,1160 849,1160 849,1197 "/>
  </g>
  <g id="_496697085296">
   <path class="fil5" d="M826 1269l0 -46 20 0c3,0 6,0 9,3 3,0 5,0 5,3 3,3 3,6 3,8 0,3 -3,6 -3,9 -2,0 -5,3 -8,3 0,3 3,3 3,6 3,0 3,3 5,5l6 9 -11 0 -6 -9c-3,-2 -3,-5 -6,-8 0,0 0,0 -3,0 0,0 -3,0 -3,0l-2 0 0 17 -9 0 0 0zm9 -26l5 0c6,0 9,0 9,0 3,0 3,-3 3,-3 0,0 0,-3 0,-3 0,-2 0,-2 0,-2 0,-3 -3,-3 -3,-3 0,0 -3,0 -9,0l-5 0 0 11 0 0z"/>
  </g>
  <g id="_496697085360">
   <path class="fil5" d="M866 1341l-8 0 -6 -9 -17 0 -3 9 -12 0 17 -46 12 0 17 46 0 0zm-17 -17l-6 -18 -6 18 12 0 0 0z"/>
  </g>
  <rect class="fil0 str0" x="429" y="610" width="72.4795" height="251.025"/>
  <rect class="fil1 str0" x="682" y="610" width="72.4795" height="251.025"/>
  <rect class="fil2 str0" x="555" y="607" width="72.4795" height="251.025"/>
  <g id="_252675855120">
   <g>
    <path class="fil6" d="M365 60l-210 0 0 0 0 -31c0,-17 -14,-29 -26,-29l-100 0c-17,0 -26,12 -26,29l0 259c0,8 0,17 9,23 5,0 5,3 8,3 3,0 3,0 9,0l100 0c0,0 3,0 6,0 6,0 9,-3 15,-3 3,-12 5,-15 5,-23l0 -15 58 0 3 0 0 23 -38 0c-5,0 -8,3 -8,9l0 20c0,3 3,6 8,6l118 0c6,0 9,-3 9,-6l0 -20c0,-6 -3,-9 -9,-9l-34 0 0 -23 103 0c18,0 29,-11 29,-28l0 -156c0,-17 -11,-29 -29,-29l0 0 0 0 0 0zm-215 225c0,3 -6,3 -6,9 0,2 -9,11 -15,11l0 0 -97 0 0 0c-9,0 -15,-9 -15,-11 -5,-6 -5,-6 -5,-9l0 -256c0,-6 0,-6 5,-9 0,-3 6,-8 15,-8l0 0 97 0 0 0c6,0 15,5 15,8 0,3 6,3 6,9l0 256zm5 -75l0 -115 202 0c0,0 3,-3 3,0l0 109c0,6 -3,6 -3,6l-202 0 0 0 0 0 0 0zm141 101l0 8 -118 0 0 -8 38 0c6,0 8,-6 8,-15l0 -23 26 0 3 0 0 23c0,9 0,15 9,15l34 0 0 0 0 0zm90 -66c0,8 -12,20 -21,20l-210 0 0 -3 0 -40 202 0c8,0 14,-9 14,-18l0 -109c0,-6 -6,-12 -14,-12l-202 0 0 0 0 -14 210 0c9,0 21,6 21,20l0 156 0 0 0 0z"/>
    <circle class="fil6" cx="236" cy="242" r="9"/>
    <path class="fil6" d="M135 311l0 8 -118 0 0 -8c0,0 -5,-6 -8,-6 0,0 0,0 0,0l0 20c0,3 8,6 11,6l115 0c6,0 15,-3 15,-6l0 -20c0,0 0,0 -6,0 0,0 -3,6 -9,6l0 0 0 0z"/>
    <circle class="fil6" cx="78" cy="268" r="9"/>
    <path class="fil6" d="M124 52c0,0 0,-3 0,-3l-89 0c0,0 0,3 0,3 -3,0 -6,6 -6,8l0 0 0 21 0 0c0,2 3,8 6,8 0,0 0,0 0,0l89 0c0,0 0,0 0,0 5,0 8,-6 8,-8l0 0 0 -21 0 0c0,-2 -3,-8 -8,-8zm-3 29l-86 0 0 -21 86 0 0 21z"/>
    <polygon class="fil6" points="35,173 35,181 118,181 118,173 118,170 35,170 "/>
    <polygon class="fil6" points="35,193 35,201 118,201 118,193 118,190 35,190 "/>
    <polygon class="fil6" points="35,210 35,213 118,213 118,210 118,204 35,204 "/>
    <polygon class="fil6" points="35,227 35,233 118,233 118,227 118,224 35,224 "/>
   </g>
  </g>
  <rect class="fil0 str1" x="190" y="331" width="64.9661" height="333.226"/>
  <rect class="fil0 str1" x="190" y="849" width="64.9661" height="234.231"/>
  <g id="_252675852592">
   <path class="fil6" d="M170 1079l-167 109 138 0 153 -109 -124 0 0 0 0 0zm132 0l-158 112 0 334 167 -138 0 -308 -9 0 0 0 0 0 0 0 0 0zm-14 40c0,0 0,0 0,3 0,0 0,6 -3,6 0,3 -3,0 -3,0 0,-6 3,-6 3,-9 3,0 3,0 3,0l0 0zm-12 9c0,0 0,0 0,3 0,0 0,3 0,3 -3,6 -3,0 -3,0 0,-3 0,-3 3,-6 0,0 0,0 0,0l0 0zm12 3c0,0 0,0 0,0 0,3 0,9 -3,9 0,0 -3,0 -3,0 0,-6 3,-9 3,-9 3,0 3,0 3,0zm-23 3c6,0 6,0 6,6 0,0 -6,5 -6,5 -3,3 -3,0 -3,0 0,-5 0,-5 3,-11 0,0 0,0 0,0l0 0zm11 6c0,0 0,0 0,0 0,5 0,8 0,8 -3,0 -3,0 -3,0 0,-3 0,-8 3,-8 0,0 0,0 0,0zm12 5c0,0 0,0 0,0 0,3 0,3 -3,6 0,0 -3,0 -3,-3 0,0 3,-3 3,-3 0,0 0,0 3,0 0,0 0,0 0,0l0 0zm-32 0c0,0 0,0 0,3 0,0 0,3 -3,3 0,6 -3,0 -3,0 0,-3 3,-3 3,-6 0,0 3,0 3,0l0 0zm9 3c6,0 6,0 6,0 0,3 -6,9 -6,9 -3,0 -3,0 -3,0 0,-6 0,-9 3,-9 0,0 0,0 0,0zm11 3c0,0 0,0 0,0 0,6 0,6 0,9 -3,0 -3,0 -3,-3 0,0 0,-6 3,-6 0,0 0,0 0,0 0,0 0,0 0,0l0 0zm-31 0c0,0 0,0 0,6 0,0 0,3 -3,3 0,3 0,0 0,0 0,-3 0,-3 0,-9 3,0 3,0 3,0l0 0zm43 0c0,0 0,0 0,6 0,0 0,3 -3,3 0,3 -3,3 -3,0 0,0 3,-3 3,-3 0,-6 0,-6 3,-6 0,0 0,0 0,0zm-32 6c0,0 0,0 0,0 0,3 0,6 -3,6 0,0 -3,0 -3,0 0,-3 3,-6 3,-6 0,0 0,0 3,0 0,0 0,0 0,0zm9 3c6,0 6,0 6,0 0,3 -6,3 -6,8 -3,0 -3,0 -3,-5 0,0 0,-3 3,-3 0,0 0,0 0,0 0,0 0,0 0,0l0 0zm-32 0c3,0 3,0 3,3 0,0 -3,5 -3,5 -6,3 -6,0 -6,0 0,-5 0,-5 6,-8 0,0 0,0 0,0l0 0zm43 0c0,0 0,0 0,3 0,0 0,5 0,5 -3,3 -3,3 -3,0 0,0 0,-5 3,-5 0,-3 0,-3 0,-3 0,0 0,0 0,0zm-31 3c0,0 0,0 0,0 0,5 0,8 -3,8 0,0 0,0 0,0 0,-3 0,-8 0,-8 3,0 3,0 3,0 0,0 0,0 0,0zm43 0c0,0 0,0 0,0 0,5 0,8 -3,8 0,0 -3,0 -3,0 0,-3 3,-3 3,-8 0,0 0,0 3,0 0,0 0,0 0,0zm-32 5c0,0 0,0 0,0 0,3 0,3 -3,9 0,0 -3,0 -3,-6 0,0 3,-3 3,-3 0,0 0,0 3,0 0,0 0,0 0,0zm9 0c6,0 6,0 6,3 0,0 -6,6 -6,6 -3,3 -3,3 -3,0 0,0 0,-6 3,-6 0,-3 0,-3 0,-3 0,0 0,0 0,0zm-32 3c0,0 3,0 3,0 0,6 -3,9 -3,9 -6,0 -6,0 -6,0 0,-3 0,-9 6,-9 0,0 0,0 0,0 0,0 0,0 0,0zm43 0c0,0 0,0 0,0 0,6 0,9 0,9 -3,0 -3,0 -3,0 0,-3 0,-3 3,-9 0,0 0,0 0,0zm-31 6c0,0 0,0 0,0 0,3 0,3 -3,6 0,0 0,0 0,-3 0,0 0,-3 0,-3 3,0 3,0 3,0 0,0 0,0 0,0l0 0zm11 0c0,0 0,0 0,3 0,0 0,3 -3,3 0,5 -3,5 -3,0 0,0 3,-3 3,-3 0,-3 0,-3 3,-3 0,0 0,0 0,0zm9 3c6,0 6,0 6,0 0,3 -6,8 -6,8 -3,0 -3,0 -3,0 0,-5 0,-5 3,-8 0,0 0,0 0,0zm-32 3c0,0 3,0 3,0 0,5 -3,5 -3,8 -6,0 -6,0 -6,-3 0,0 0,-5 6,-5 0,0 0,0 0,0 0,0 0,0 0,0l0 0zm12 0c0,0 0,0 0,5 0,0 0,3 -3,3 0,3 0,3 0,0 0,0 0,-3 0,-3 3,-5 3,-5 3,-5zm11 5c0,0 0,0 0,0 0,3 0,6 -3,6 0,0 -3,0 -3,0 0,-3 3,-3 3,-6 0,0 3,0 3,0zm-23 3c3,0 3,0 3,3 0,0 -3,6 -3,6 -6,3 -6,3 -6,0 0,0 0,-6 6,-6 0,-3 0,-3 0,-3zm-233 3l0 331 141 0 0 -331 -141 0zm245 0c0,0 0,0 0,0 0,6 0,9 -3,9 0,0 0,0 0,0 0,-3 0,-3 0,-9 3,0 3,0 3,0zm-12 9c3,0 3,0 3,0 0,6 -3,9 -3,9 -6,0 -6,0 -6,0 0,-3 0,-3 6,-9 0,0 0,0 0,0zm-213 17l101 0 0 15 -101 0 0 -15zm0 23l101 0 0 17 -101 0 0 -17zm0 20l101 0 0 18 -101 0 0 -18zm0 26l101 0 0 15 -101 0 0 -15zm84 20c0,0 0,0 0,0 0,0 0,0 0,0 0,0 0,0 5,0 0,0 0,0 0,0 0,0 0,3 0,3 0,0 0,0 0,0l0 9c0,0 0,0 0,3 0,0 0,0 0,0 -5,0 -5,0 -5,0 0,0 0,0 0,0 0,0 0,0 0,0 0,0 0,0 0,0 0,0 0,0 0,0 0,-3 0,-3 0,-3l0 -9c0,0 0,-3 0,-3 0,0 0,0 0,0 0,0 0,0 0,0 0,0 0,0 0,0 0,0 0,0 0,0l0 0zm-3 3c0,0 0,0 0,0 0,0 3,3 3,3 0,0 -3,0 -3,0 0,0 0,6 0,6 -6,3 -6,6 0,6 3,5 8,5 11,0 0,-3 0,-6 -3,-12 0,0 0,0 0,0 0,0 0,0 0,0 0,0 0,0 0,0 0,0 0,0 0,0 0,0 0,0 0,0 0,0 0,0 0,0 0,0 0,0 0,0 0,0 0,0 3,0 0,0 0,0 0,0 6,0 6,9 0,12 -3,5 -8,8 -11,5 -6,-5 -9,-11 -6,-17 0,0 0,0 6,0 0,0 0,0 0,0 0,0 0,0 0,0 0,0 0,0 0,0 0,-3 0,-3 0,-3 0,0 0,0 0,0l0 0 0 0 0 0 0 0zm-72 3c3,0 6,0 6,6 0,3 -3,3 -6,3 0,0 -6,0 -6,-3 0,-6 6,-6 6,-6zm17 0c3,0 6,0 6,6 0,3 -3,3 -6,3 0,0 -6,0 -6,-3 0,-6 6,-6 6,-6zm-34 127c0,0 0,0 0,0 0,0 0,0 0,0 0,0 0,0 0,0 0,0 0,0 0,0 0,0 0,0 0,0 0,0 0,0 0,0 0,0 0,0 0,0 0,0 0,0 0,0 0,0 0,0 0,0 0,0 0,0 0,0 0,0 0,0 0,0 0,0 0,0 0,0 0,0 0,0 0,0 0,0 0,0 0,0 0,0 0,0 0,0 0,0 0,0 0,0l112 0c0,0 0,0 0,0 0,0 5,0 5,3 0,0 -5,0 -5,0 0,0 0,0 0,0l-112 0c0,0 0,0 0,0 0,0 -3,0 -3,0 0,-3 0,-3 3,-3l0 0zm0 11c0,0 0,0 0,0 0,0 0,0 0,0 0,0 0,0 0,0 0,0 0,0 0,0 0,0 0,0 0,0 0,0 0,0 0,0 0,0 0,0 0,0 0,0 0,0 0,0 0,0 0,0 0,0 0,0 0,0 0,0 0,0 0,0 0,0 0,0 0,0 0,0 0,0 0,0 0,0 0,0 0,0 0,0 0,0 0,0 0,0 0,0 0,0 0,0l112 0c0,0 0,0 0,0 0,0 5,0 5,0 0,3 -5,3 -5,3 0,0 0,0 0,0l-112 0c0,0 0,0 0,0 0,0 -3,0 -3,-3 0,0 0,0 3,0l0 0zm0 6c0,0 0,0 0,0 0,0 0,0 0,0 0,0 0,0 0,0 0,0 0,0 0,0 0,0 0,0 0,0 0,0 0,0 0,0 0,0 0,0 0,0 0,0 0,0 0,0 0,0 0,0 0,0 0,0 0,0 0,0 0,0 0,0 0,0 0,0 0,0 0,0 0,0 0,0 0,0 0,0 0,0 0,0 0,0 0,0 0,0 0,0 0,0 0,0l112 0c0,0 0,0 0,0 0,0 5,6 5,6 0,3 -5,3 -5,3 0,0 0,0 0,0l-112 0c0,0 0,0 0,0 0,0 -3,0 -3,-3 0,0 0,0 3,-6l0 0zm0 14c0,0 0,0 0,0 0,0 0,0 0,0 0,0 0,0 0,0 0,0 0,0 0,0 0,0 0,0 0,0 0,0 0,0 0,0 0,0 0,0 0,0 0,0 0,0 0,0 0,0 0,0 0,0 0,0 0,0 0,0 0,0 0,0 0,0 0,0 0,0 0,0 0,0 0,0 0,0 0,0 0,0 0,0 0,0 0,0 0,0 0,0 0,0 0,0l112 0c0,0 0,0 0,0 0,0 5,3 5,3 0,0 -5,3 -5,3 0,0 0,0 0,0l-112 0c0,0 0,0 0,0 0,0 -3,-3 -3,-3 0,0 0,-3 3,-3l0 0zm0 12c0,0 0,0 0,0 0,0 0,0 0,0 0,0 0,0 0,0 0,0 0,0 0,0 0,0 0,0 0,0 0,0 0,0 0,0 0,0 0,0 0,0 0,0 0,0 0,0 0,0 0,0 0,0 0,0 0,0 0,0 0,0 0,0 0,0 0,0 0,0 0,0 0,0 0,0 0,0 0,0 0,0 0,0 0,0 0,0 0,0 0,0 0,0 0,0l112 0c0,0 0,0 0,0 0,0 5,0 5,3 0,0 -5,0 -5,0 0,0 0,0 0,0l-112 0c0,0 0,0 0,0 0,0 -3,0 -3,0 0,-3 0,-3 3,-3l0 0zm0 11c0,0 0,0 0,0 0,0 0,0 0,0 0,0 0,0 0,0 0,0 0,0 0,0 0,0 0,0 0,0 0,0 0,0 0,0 0,0 0,0 0,0 0,0 0,0 0,0 0,0 0,0 0,0 0,0 0,0 0,0 0,0 0,0 0,0 0,0 0,0 0,0 0,0 0,0 0,0 0,0 0,0 0,0 0,0 0,0 0,0 0,0 0,0 0,0l112 0c0,0 0,0 0,0 0,0 5,0 5,6 0,0 -5,0 -5,0 0,0 0,0 0,0l-112 0c0,0 0,0 0,0 0,0 -3,0 -3,0 0,-6 0,-6 3,-6l0 0zm0 12c0,0 0,0 0,0 0,0 0,0 0,0 0,0 0,0 0,0 0,0 0,0 0,0 0,0 0,0 0,0 0,0 0,0 0,0 0,0 0,0 0,0 0,0 0,0 0,0 0,0 0,0 0,0 0,0 0,0 0,0 0,0 0,0 0,0 0,0 0,0 0,0 0,0 0,0 0,0 0,0 0,0 0,0 0,0 0,0 0,0 0,0 0,0 0,0l112 0c0,0 0,0 0,0 0,0 0,0 0,0 0,0 0,0 0,0 0,0 0,0 0,0 0,0 0,0 0,0 0,0 5,0 5,0 0,0 0,0 0,0 0,0 0,0 0,0 0,0 0,0 0,0 0,0 0,0 0,0 0,0 0,0 0,0 0,0 0,0 0,0 0,0 0,0 0,0 0,0 0,0 0,0 0,0 0,0 0,0 0,0 0,0 0,0 0,0 0,0 0,0 0,0 0,0 0,0 0,0 0,0 0,0 0,6 0,6 0,6 0,0 0,0 0,0 0,0 0,0 0,0 0,0 -5,0 -5,0 0,0 0,0 0,0 0,0 0,0 0,0l-112 0c0,0 0,0 0,0 0,0 -3,0 -3,-6 0,0 0,0 3,0l0 0z"/>
  </g>
  <g id="_252675852016">
   <path class="fil6" d="M216 803c-46,0 -87,-17 -107,-40l0 28c0,35 46,64 107,64 66,0 112,-29 112,-64l0 -28c-17,23 -57,40 -112,40z"/>
   <path class="fil6" d="M141 771c43,29 112,29 155,0 46,-26 46,-66 0,-89 -43,-26 -112,-26 -155,0 -46,23 -46,63 0,89zm52 -72l11 -5 -3 23 -40 0 12 -3 -29 -15 20 -17 29 17 0 0 0 0 0 0zm92 15l-12 -9 -28 17 -21 -11 29 -17 -11 -3 40 0 3 23 0 0 0 0zm-40 40l-12 9 3 -26 40 -3 -11 8 29 18 -21 11 -28 -17 0 0 0 0zm-90 9l-5 -26 11 8 29 -14 23 11 -29 18 12 5 -41 -2 0 0 0 0 0 0z"/>
  </g>
  <path class="fil7" d="M449 107l0 -44 14 0c6,0 9,0 11,0 2,1 4,2 6,5 2,2 3,5 3,8 0,3 -1,5 -2,7 -1,2 -2,3 -3,4 -2,2 -4,2 -5,3 -2,0 -5,0 -9,0l-6 0 0 17 -9 0zm9 -37l0 13 5 0c3,0 6,-1 7,-1 1,0 2,-1 3,-2 0,-1 1,-2 1,-4 0,-1 -1,-3 -2,-4 -1,-1 -2,-1 -3,-2 -1,0 -4,0 -7,0l-4 0z"/>
  <polygon id="1" class="fil7" points="447,175 447,131 456,131 456,149 474,149 474,131 482,131 482,175 474,175 474,156 456,156 456,175 "/>
  <polygon id="2" class="fil7" points="461,244 461,226 444,200 455,200 465,218 475,200 486,200 469,226 469,244 "/>
  <path class="fil7" d="M567 111l16 0c3,0 6,0 8,1 3,0 5,2 7,4 2,2 3,4 4,7 1,3 1,6 1,10 0,4 0,7 -1,10 -1,3 -3,5 -5,7 -1,2 -3,3 -6,4 -2,1 -5,1 -8,1l-16 0 0 -44zm8 7l0 29 7 0c3,0 4,0 5,0 2,0 3,-1 4,-2 1,-1 2,-2 2,-4 1,-2 1,-5 1,-8 0,-4 0,-6 -1,-8 0,-2 -1,-3 -2,-4 -1,-1 -3,-2 -4,-2 -2,-1 -4,-1 -8,-1l-4 0z"/>
  <polygon id="1" class="fil7" points="611,155 611,146 619,146 619,155 "/>
  <polygon id="2" class="fil7" points="570,224 570,180 579,180 579,216 601,216 601,224 "/>
  <polygon id="3" class="fil7" points="607,224 607,215 616,215 616,224 "/>
  <polygon class="fil7" points="701,130 701,86 710,86 728,116 728,86 736,86 736,130 727,130 709,101 709,130 "/>
  <polygon id="1" class="fil7" points="703,199 703,155 736,155 736,162 712,162 712,172 734,172 734,180 712,180 712,191 736,191 736,199 "/>
  <polygon id="2" class="fil7" points="715,268 715,231 702,231 702,224 736,224 736,231 723,231 723,268 "/>
  <g id="_496697082608_0">
   <polygon class="fil5" points="841,108 841,70 826,70 826,62 864,62 864,70 849,70 849,108 "/>
  </g>
  <g id="_496697085296_1">
   <path class="fil5" d="M826 180l0 -46 21 0c2,0 5,0 8,3 3,0 6,0 6,3 3,2 3,5 3,8 0,3 -3,6 -3,9 -3,0 -6,3 -9,3 0,3 3,3 3,5 3,0 3,3 6,6l6 9 -12 0 -6 -9c-2,-3 -2,-6 -5,-8 0,0 0,0 -3,0 0,0 -3,0 -3,0l-3 0 0 17 -9 0 0 0zm9 -26l6 0c6,0 8,0 8,0 3,0 3,-3 3,-3 0,0 0,-3 0,-3 0,-3 0,-3 0,-3 0,-3 -3,-3 -3,-3 0,0 -2,0 -8,0l-6 0 0 12 0 0z"/>
  </g>
  <g id="_496697085360_2">
   <path class="fil5" d="M867 252l-9 0 -6 -9 -17 0 -3 9 -11 0 17 -46 11 0 18 46 0 0zm-18 -18l-5 -17 -6 17 11 0 0 0z"/>
  </g>
  <path class="fil7" d="M989 124l-9 0 -4 -10 -18 0 -3 10 -10 0 17 -44 10 0 17 44zm-16 -17l-6 -17 -6 17 12 0z"/>
  <path id="1" class="fil7" d="M951 193l0 -44 15 0c5,0 8,0 10,1 3,0 5,2 6,4 2,2 3,5 3,8 0,3 -1,5 -2,7 0,2 -2,4 -3,5 -2,1 -3,1 -5,2 -2,0 -5,0 -9,0l-6 0 0 17 -9 0zm9 -37l0 13 5 0c4,0 6,0 7,-1 1,0 2,-1 3,-2 0,-1 1,-2 1,-3 0,-2 -1,-3 -2,-4 -1,-1 -2,-2 -3,-2 -1,-1 -3,-1 -7,-1l-4 0z"/>
  <path id="2" class="fil7" d="M951 262l0 -44 15 0c5,0 8,0 10,0 3,1 5,2 6,5 2,2 3,5 3,8 0,3 -1,5 -2,7 0,2 -2,3 -3,4 -2,1 -3,2 -5,2 -2,1 -5,1 -9,1l-6 0 0 17 -9 0zm9 -37l0 13 5 0c4,0 6,-1 7,-1 1,-1 2,-1 3,-2 0,-1 1,-2 1,-4 0,-1 -1,-3 -2,-4 -1,-1 -2,-1 -3,-2 -1,0 -3,0 -7,0l-4 0z"/>
  <polygon class="fil7" points="701,687 701,643 710,643 728,672 728,643 736,643 736,687 727,687 709,658 709,687 "/>
  <polygon id="1" class="fil7" points="703,756 703,712 736,712 736,719 712,719 712,729 734,729 734,736 712,736 712,748 736,748 736,756 "/>
  <polygon id="2" class="fil7" points="715,824 715,788 702,788 702,780 736,780 736,788 723,788 723,824 "/>
  <path class="fil7" d="M567 668l16 0c3,0 6,0 8,0 3,1 5,3 7,4 2,2 3,5 4,8 1,2 1,6 1,10 0,4 0,7 -1,9 -1,4 -3,6 -5,8 -1,2 -3,3 -6,4 -2,0 -5,1 -8,1l-16 0 0 -44zm8 7l0 29 7 0c3,0 4,0 5,0 2,-1 3,-1 4,-2 1,-1 2,-2 2,-4 1,-2 1,-5 1,-8 0,-4 0,-6 -1,-8 0,-2 -1,-3 -2,-5 -1,-1 -3,-1 -4,-2 -2,0 -4,0 -8,0l-4 0z"/>
  <polygon id="1" class="fil7" points="611,712 611,703 619,703 619,712 "/>
  <polygon id="2" class="fil7" points="570,780 570,737 579,737 579,773 601,773 601,780 "/>
  <polygon id="3" class="fil7" points="607,780 607,772 616,772 616,780 "/>
  <path class="fil7" d="M449 683l0 -44 14 0c5,0 9,0 10,1 3,0 5,2 7,4 1,2 2,5 2,8 0,3 0,5 -1,7 -1,2 -2,4 -4,5 -1,1 -3,1 -5,2 -2,0 -5,0 -9,0l-6 0 0 17 -8 0zm8 -37l0 13 5 0c4,0 6,0 7,-1 2,0 2,-1 3,-2 1,-1 1,-2 1,-3 0,-2 0,-3 -1,-4 -1,-1 -2,-2 -4,-2 -1,-1 -3,-1 -6,-1l-5 0z"/>
  <polygon id="1" class="fil7" points="447,752 447,708 456,708 456,725 473,725 473,708 482,708 482,752 473,752 473,732 456,732 456,752 "/>
  <polygon id="2" class="fil7" points="460,820 460,802 444,776 454,776 465,794 475,776 485,776 469,802 469,820 "/>
  <polygon class="fil7" points="697,1220 697,1176 706,1176 724,1205 724,1176 732,1176 732,1220 723,1220 705,1191 705,1220 "/>
  <polygon id="1" class="fil7" points="699,1288 699,1244 732,1244 732,1252 708,1252 708,1262 730,1262 730,1269 708,1269 708,1281 732,1281 732,1288 "/>
  <polygon id="2" class="fil7" points="711,1357 711,1321 698,1321 698,1313 732,1313 732,1321 719,1321 719,1357 "/>
  <path class="fil7" d="M563 1200l16 0c3,0 6,1 8,1 3,1 5,2 7,4 2,2 3,4 4,7 1,3 1,7 1,11 0,3 0,6 -1,9 -1,3 -3,6 -5,8 -1,1 -3,3 -6,3 -2,1 -5,1 -8,1l-16 0 0 -44zm8 8l0 29 7 0c3,0 4,0 5,-1 2,0 3,-1 4,-1 1,-1 2,-3 2,-5 1,-2 1,-4 1,-8 0,-3 0,-6 -1,-8 0,-1 -1,-3 -2,-4 -1,-1 -3,-2 -4,-2 -2,0 -4,0 -8,0l-4 0z"/>
  <polygon id="1" class="fil7" points="607,1244 607,1236 615,1236 615,1244 "/>
  <polygon id="2" class="fil7" points="566,1313 566,1269 575,1269 575,1306 597,1306 597,1313 "/>
  <polygon id="3" class="fil7" points="603,1313 603,1305 612,1305 612,1313 "/>
  <path class="fil7" d="M445 1216l0 -44 14 0c5,0 9,0 10,0 3,1 5,2 7,5 1,2 2,5 2,8 0,3 0,5 -1,7 -1,2 -2,3 -4,4 -1,1 -3,2 -5,2 -2,1 -5,1 -9,1l-6 0 0 17 -8 0zm8 -37l0 13 5 0c4,0 6,-1 7,-1 2,-1 2,-1 3,-2 1,-1 1,-2 1,-4 0,-1 0,-3 -1,-4 -1,-1 -2,-1 -4,-2 -1,0 -3,0 -6,0l-5 0z"/>
  <polygon id="1" class="fil7" points="443,1284 443,1240 452,1240 452,1258 469,1258 469,1240 478,1240 478,1284 469,1284 469,1265 452,1265 452,1284 "/>
  <polygon id="2" class="fil7" points="456,1353 456,1335 440,1309 450,1309 461,1326 471,1309 481,1309 465,1335 465,1353 "/>
  <path class="fil7" d="M991 1206l-9 0 -4 -10 -18 0 -3 10 -10 0 17 -44 10 0 17 44zm-16 -18l-6 -16 -6 16 12 0z"/>
  <path id="1" class="fil7" d="M953 1274l0 -44 15 0c5,0 8,1 10,1 3,1 5,2 6,4 2,3 3,5 3,9 0,3 -1,5 -2,7 0,2 -2,3 -3,4 -2,1 -3,2 -5,2 -2,1 -5,1 -9,1l-6 0 0 16 -9 0zm9 -36l0 12 5 0c4,0 6,0 7,0 1,-1 2,-2 3,-3 0,-1 1,-2 1,-3 0,-2 -1,-3 -2,-4 -1,-1 -2,-2 -3,-2 -1,0 -3,0 -7,0l-4 0z"/>
  <path id="2" class="fil7" d="M953 1343l0 -44 15 0c5,0 8,0 10,1 3,0 5,2 6,4 2,2 3,5 3,9 0,2 -1,5 -2,6 0,2 -2,4 -3,5 -2,1 -3,1 -5,2 -2,0 -5,0 -9,0l-6 0 0 17 -9 0zm9 -37l0 13 5 0c4,0 6,0 7,-1 1,0 2,-1 3,-2 0,-1 1,-2 1,-3 0,-2 -1,-3 -2,-4 -1,-1 -2,-2 -3,-2 -1,0 -3,-1 -7,-1l-4 0z"/>
 </g>
</svg>
