<?xml version="1.0" encoding="UTF-8"?>
<!DOCTYPE svg PUBLIC "-//W3C//DTD SVG 1.1//EN" "http://www.w3.org/Graphics/SVG/1.1/DTD/svg11.dtd">
<!-- Creator: CorelDRAW X7 -->
<svg xmlns="http://www.w3.org/2000/svg" xml:space="preserve" width="1257px" height="813px" version="1.1" style="shape-rendering:geometricPrecision; text-rendering:geometricPrecision; image-rendering:optimizeQuality; fill-rule:evenodd; clip-rule:evenodd"
viewBox="0 0 1270 822"
 xmlns:xlink="http://www.w3.org/1999/xlink">
 <defs>
  <style type="text/css">
   <![CDATA[
    .str2 {stroke:#373435;stroke-width:2.83322}
    .str0 {stroke:#BDBFC1;stroke-width:2.38687}
    .str1 {stroke:#91D8F7;stroke-width:2.38687}
    .fil0 {fill:#BDBFC1}
    .fil3 {fill:#373435}
    .fil1 {fill:#91D8F7}
    .fil4 {fill:black}
    .fil2 {fill:#373435;fill-rule:nonzero}
   ]]>
  </style>
 </defs>
 <g id="Layer_x0020_1">
  <metadata id="CorelCorpID_0Corel-Layer"/>
  <rect class="fil0 str0" x="1" y="1" width="629" height="816"/>
  <rect class="fil1 str1" x="639" y="4" width="629" height="816"/>
  <path class="fil2" d="M264 219l-26 0 -10 -27 -49 0 -10 27 -25 0 46 -120 26 0 48 120zm-44 -47l-17 -45 -16 45 33 0z"/>
  <path id="1" class="fil2" d="M271 180l24 -2c1,8 4,14 8,17 5,4 11,6 18,6 8,0 14,-2 18,-5 4,-3 6,-7 6,-12 0,-2 -1,-5 -3,-7 -1,-2 -4,-4 -9,-5 -2,-1 -9,-3 -19,-5 -13,-4 -22,-8 -27,-12 -8,-7 -11,-15 -11,-25 0,-6 1,-12 5,-17 3,-5 8,-9 15,-12 6,-3 14,-4 24,-4 15,0 26,3 34,10 7,6 11,15 12,27l-25 0c-1,-6 -3,-10 -7,-13 -3,-3 -8,-4 -15,-4 -7,0 -12,1 -16,4 -3,2 -4,5 -4,8 0,3 1,5 4,7 3,3 10,5 22,8 12,3 20,6 26,9 6,3 10,7 13,12 4,5 5,12 5,19 0,7 -2,14 -6,20 -3,6 -9,10 -16,13 -7,3 -16,5 -26,5 -15,0 -27,-4 -35,-11 -8,-7 -13,-17 -15,-31z"/>
  <path id="2" class="fil2" d="M490 219l-23 0 0 -87c-8,8 -18,14 -29,18l0 -21c6,-2 12,-6 19,-12 7,-5 12,-12 15,-19l18 0 0 121z"/>
  <path class="fil2" d="M904 211l-26 0 -10 -28 -49 0 -10 28 -26 0 47 -121 26 0 48 121zm-44 -48l-17 -45 -16 45 33 0z"/>
  <path id="1" class="fil2" d="M911 172l24 -3c1,8 4,14 8,18 5,3 10,5 18,5 8,0 14,-1 17,-5 4,-3 6,-7 6,-11 0,-3 0,-6 -2,-8 -2,-2 -5,-3 -9,-5 -3,-1 -9,-3 -19,-5 -13,-3 -22,-7 -28,-12 -7,-7 -11,-15 -11,-24 0,-7 2,-12 6,-18 3,-5 8,-9 15,-12 6,-3 14,-4 23,-4 15,0 27,3 34,10 8,7 12,16 12,27l-24 1c-1,-7 -3,-11 -7,-14 -3,-3 -8,-4 -15,-4 -7,0 -13,2 -17,4 -2,2 -3,5 -3,8 0,3 1,5 3,7 3,3 11,6 23,8 11,3 20,6 26,9 5,3 10,7 13,12 3,6 5,12 5,20 0,6 -2,13 -6,19 -4,6 -9,10 -16,13 -7,3 -16,5 -26,5 -16,0 -27,-4 -36,-11 -8,-7 -13,-17 -14,-30z"/>
  <path id="2" class="fil2" d="M1149 189l0 22 -81 0c1,-9 4,-16 8,-23 5,-8 13,-17 26,-29 11,-10 17,-17 19,-20 3,-5 5,-10 5,-14 0,-6 -1,-9 -4,-12 -3,-3 -7,-4 -12,-4 -4,0 -8,1 -11,4 -3,3 -5,8 -5,14l-23 -2c1,-13 6,-22 13,-27 7,-6 16,-9 27,-9 12,0 21,4 28,10 7,6 10,14 10,24 0,5 -1,11 -3,16 -2,4 -5,10 -9,15 -3,4 -8,9 -15,15 -7,7 -12,12 -14,14 -2,2 -4,4 -5,6l46 0z"/>
 </g>
 <g id="Layer_x0020_1_0">
  <metadata id="CorelCorpID_1Corel-Layer"/>
  <rect class="fil3 str2" transform="matrix(1.43053 4.04194E-009 -5.43372E-005 1.41361 391.222 405.377)" width="334.724" height="98.4512"/>
  <g id="_755938643904">
   <path class="fil4" d="M1052 527c-85,0 -155,-30 -182,-73l0 58c0,58 85,100 182,100 101,0 186,-42 186,-100l0 -58c-30,43 -100,73 -186,73z"/>
   <path class="fil4" d="M928 469c70,43 182,43 252,0 70,-42 70,-97 0,-140 -70,-42 -182,-42 -252,0 -73,43 -73,98 0,140zm82 -112l30 -15 -15 42 -70 0 12 -12 -39 -30 39 -13 43 28 0 0 0 0zm155 27l-12 -12 -58 27 -27 -27 42 -30 -27 -13 70 13 12 42 0 0 0 0zm-70 58l-27 12 15 -39 70 0 -31 12 58 15 -42 27 -43 -27 0 0 0 0zm-140 12l-15 -39 15 12 55 -28 30 28 -42 27 12 0 -55 0 0 0z"/>
  </g>
 </g>
 <g id="Layer_x0020_1_0_1">
  <metadata id="CorelCorpID_2Corel-Layer"/>
  <g id="_755938643904_1">
   <path class="fil4" d="M206 534c-85,0 -155,-28 -183,-70l0 58c0,54 86,97 183,97 100,0 185,-43 185,-97l0 -58c-30,42 -100,70 -185,70z"/>
   <path class="fil4" d="M81 479c70,43 183,43 253,0 69,-43 69,-100 0,-143 -70,-39 -183,-39 -253,0 -73,43 -73,100 0,143zm82 -112l31 -16 -16 43 -69 0 12 -15 -40 -28 40 -15 42 31 0 0zm155 27l-12 -15 -58 30 -27 -30 43 -28 -28 -15 70 15 12 43 0 0 0 0zm-70 58l-27 12 15 -43 70 0 -30 15 58 16 -43 27 -43 -27 0 0 0 0zm-139 12l-16 -43 16 15 54 -27 31 27 -43 28 12 0 -54 0 0 0z"/>
  </g>
 </g>
</svg>
